<svg width="80" height="80" viewBox="0 0 80 80" fill="none" xmlns="http://www.w3.org/2000/svg">
<path d="M46.6666 31.1109C47.2288 39.7553 54.4911 46.5976 63.3333 46.5976C72.1755 46.5976 79.4377 39.7553 80 31.1109V8.88867H46.6666V31.1109Z" fill="#FFDC5D"/>
<path d="M80 48.3378V31.1111C79.4378 39.7556 72.1756 46.5978 63.3333 46.5978C54.4911 46.5978 47.2289 39.7556 46.6667 31.1111V21.4733C58.5067 21.1289 65.5778 16.2667 69.4156 12.1822C70.3378 15.46 72.8911 20 80 20V4.22222C77.9311 2.69111 75.3 1.79333 72.3067 1.79333C71.5667 1.79333 70.8467 1.86889 70.1422 1.99333C67.54 0.728889 65.3111 0 62.2222 0C51.3178 0 42.2222 9.09556 42.2222 20V35.5556C42.3645 40.5733 44.1511 45.2222 47.0711 48.8889L53.3333 53.3333H73.3333L79.5956 48.8889C79.7378 48.7111 79.8645 48.52 80 48.3378Z" fill="#FFAC33"/>
<path d="M79.5956 48.8887H46.6667C42.2222 48.8887 40 51.1109 40 55.4953V79.9998H80V48.8887H79.5956Z" fill="#9268CA"/>
<path d="M46.6355 57.7773H48.9199V79.9996H46.6355V57.7773Z" fill="#7450A8"/>
<path d="M57.7778 42.2227V48.8893C57.7778 51.9582 60.2645 54.4449 63.3334 54.4449C66.4023 54.4449 68.8889 51.9582 68.8889 48.8893V42.2227H57.7778Z" fill="#FFDC5D"/>
<path d="M56.1555 39.4863H70.5111C70.5111 39.4863 68.7155 43.0774 63.3333 43.0774C57.9511 43.0774 56.1555 39.4863 56.1555 39.4863Z" fill="#DA2F47"/>
<path d="M64.4444 34.4449H62.2222C61.6089 34.4449 61.1111 33.9471 61.1111 33.3338C61.1111 32.7204 61.6089 32.2227 62.2222 32.2227H64.4444C65.0578 32.2227 65.5555 32.7204 65.5555 33.3338C65.5555 33.9471 65.0578 34.4449 64.4444 34.4449Z" fill="#BF6952"/>
<path d="M55.5556 28.8893C54.3267 28.8893 53.3334 27.8938 53.3334 26.6671V24.4449C53.3334 23.2182 54.3267 22.2227 55.5556 22.2227C56.7845 22.2227 57.7778 23.2182 57.7778 24.4449V26.6671C57.7778 27.8938 56.7845 28.8893 55.5556 28.8893ZM71.1112 28.8893C69.8823 28.8893 68.8889 27.8938 68.8889 26.6671V24.4449C68.8889 23.2182 69.8823 22.2227 71.1112 22.2227C72.34 22.2227 73.3334 23.2182 73.3334 24.4449V26.6671C73.3334 27.8938 72.34 28.8893 71.1112 28.8893Z" fill="#662113"/>
<path d="M11.1111 48.8889V40H22.2222V48.8889H26.6667V62.2222H6.66667V48.8889H11.1111Z" fill="#FFDC5D"/>
<path d="M33.3333 48.8887H22.2222L16.7289 57.2842L11.1111 48.8887H0V79.9998H40V55.4953C40 51.1109 37.7778 48.8887 33.3333 48.8887Z" fill="#3B94D9"/>
<path d="M31.08 57.7773H33.3644V79.9996H31.08V57.7773Z" fill="#1B6399"/>
<path d="M33.3333 31.1109V11.1109L0 8.88867V31.1109H0.0533333C0.613333 39.7553 7.82667 46.5976 16.6667 46.5976C25.0911 46.5976 32.0711 40.3776 33.1956 32.3131C33.2511 31.9131 33.3067 31.5176 33.3333 31.1109Z" fill="#FFDC5D"/>
<path d="M8.45778 1.79111C5.34444 1.79111 2.44889 2.7 0 4.24889V22.2111C13.2156 22.0889 20.8333 16.4489 24.8044 11.9933C25.9289 15.5244 28.4333 20.9289 33.3333 22.0156V31.1111C33.3067 31.5178 33.2511 31.9133 33.1956 32.3111C36.0533 28.8933 37.7778 24.4956 37.7778 19.6911C37.7778 8.81556 28.9622 0 18.0867 0C15.1133 0 12.3067 0.677778 9.77778 1.85778C9.34222 1.82 8.90222 1.79111 8.45778 1.79111ZM33.3333 11.1111V11.48L33.2711 11.1089L33.3333 11.1111Z" fill="#FFAC33"/>
<path d="M23.8267 39.3849H9.50671C9.50671 39.3849 11.2956 42.9627 16.6667 42.9627C22.0378 42.9627 23.8267 39.3849 23.8267 39.3849ZM17.7778 34.4449H15.5556C14.9423 34.4449 14.4445 33.9471 14.4445 33.3338C14.4445 32.7204 14.9423 32.2227 15.5556 32.2227H17.7778C18.3912 32.2227 18.8889 32.7204 18.8889 33.3338C18.8889 33.9471 18.3912 34.4449 17.7778 34.4449Z" fill="#BF6952"/>
<path d="M8.88885 28.8893C7.66218 28.8893 6.66663 27.8938 6.66663 26.6671V24.4449C6.66663 23.2182 7.66218 22.2227 8.88885 22.2227C10.1155 22.2227 11.1111 23.2182 11.1111 24.4449V26.6671C11.1111 27.8938 10.1155 28.8893 8.88885 28.8893ZM24.4444 28.8893C23.2177 28.8893 22.2222 27.8938 22.2222 26.6671V24.4449C22.2222 23.2182 23.2177 22.2227 24.4444 22.2227C25.6711 22.2227 26.6666 23.2182 26.6666 24.4449V26.6671C26.6666 27.8938 25.6711 28.8893 24.4444 28.8893Z" fill="#662113"/>
<path d="M43.1823 73.0041C42.5956 74.1397 42.2223 75.0508 42.2223 75.5552C52.5689 75.5552 62.2223 68.8886 62.2223 68.8886C59.7223 60.693 58.5201 50.8019 58.5201 50.8019C58.5201 41.153 50.7001 33.333 41.0512 33.333C38.2845 33.333 35.6778 33.993 33.3534 35.1375C25.9534 35.293 20.0001 41.3308 20.0001 48.7663C20.0001 50.6063 20.3667 52.3597 21.0312 53.9597C20.4756 57.5397 19.4023 63.5641 17.7778 68.8886C17.7778 68.8886 27.4312 75.5552 37.7778 75.5552C37.7778 75.0508 37.4067 74.1419 36.8201 73.0086C29.7556 71.5508 24.4445 65.333 24.4445 57.8819L24.4489 57.7775H24.4445V44.4441H32.3356C34.5978 43.1686 37.2067 42.4308 39.9934 42.4308C42.7801 42.4308 45.3912 43.1686 47.6512 44.4441H55.5556V57.7775H55.5378L55.5423 57.8819C55.5423 65.3286 50.2401 71.5419 43.1823 73.0041Z" fill="#F4900C"/>
<path d="M44.4445 77.7776V68.8887H35.5556V77.7776H33.3334V79.9998H46.6667V77.7776H44.4445Z" fill="#FFDC5D"/>
<path d="M31.1111 73.333C25.5711 73.333 21.6089 76.4108 20.4133 79.9997H40L35.5556 73.333H31.1111ZM51.1111 73.333H44.4444L40 79.9997H59.5956C58.4444 76.4397 54.7978 73.333 51.1111 73.333Z" fill="#EA596E"/>
<path d="M55.5422 57.8818L55.5378 57.7773H55.5556V44.444H47.6511C45.3889 43.1684 42.78 42.4307 39.9933 42.4307C37.2067 42.4307 34.5978 43.1684 32.3356 44.444H24.4445V57.7773H24.4489L24.4445 57.8818C24.4445 65.3329 29.7556 71.5529 36.82 73.0084C37.8445 73.2196 38.9045 73.3329 39.9933 73.3329C41.0867 73.3329 42.1533 73.2173 43.1822 73.004C50.24 71.5418 55.5422 65.3284 55.5422 57.8818Z" fill="#FFDC5D"/>
<path d="M57.7778 51.1107L55.5556 42.2218L48.8889 37.7773L24.4445 39.9996L22.5311 51.1107C34.5533 51.1107 41.2533 47.2107 44.8978 43.6285C47.6445 46.8707 52.2845 51.1107 57.7778 51.1107Z" fill="#F4900C"/>
<path d="M46.6666 66.6666H33.3333C33.3333 66.6666 34.6289 71.111 40 71.111C45.3711 71.111 46.6666 66.6666 46.6666 66.6666ZM40 65.5555C39.7111 65.5555 39.4222 65.4444 39.2222 65.2221C39 65.0221 38.8889 64.7332 38.8889 64.4444C38.8889 64.1555 39 63.8666 39.2222 63.6444C39.6 63.2666 40.3778 63.2444 40.8 63.6666C41 63.8666 41.1111 64.1555 41.1111 64.4444C41.1111 64.7332 41 65.0221 40.7778 65.2221C40.5778 65.4444 40.2889 65.5555 40 65.5555Z" fill="#BF6952"/>
<path d="M33.3333 62.2223C32.1066 62.2223 31.1111 61.229 31.1111 60.0001V57.7779C31.1111 56.549 32.1066 55.5557 33.3333 55.5557C34.56 55.5557 35.5555 56.549 35.5555 57.7779V60.0001C35.5555 61.229 34.56 62.2223 33.3333 62.2223ZM46.6666 62.2223C45.4378 62.2223 44.4444 61.229 44.4444 60.0001V57.7779C44.4444 56.549 45.4378 55.5557 46.6666 55.5557C47.8955 55.5557 48.8889 56.549 48.8889 57.7779V60.0001C48.8889 61.229 47.8955 62.2223 46.6666 62.2223Z" fill="#662113"/>
</svg>
