<svg width="72" height="72" viewBox="0 0 72 72" fill="none" xmlns="http://www.w3.org/2000/svg">
<path d="M72 64C72 68.418 68.418 72 64 72H8C3.582 72 0 68.418 0 64V8C0 3.582 3.582 0 8 0H64C68.418 0 72 3.582 72 8V64Z" fill="#226699"/>
<path d="M36 4.49805L43.502 12H54V22.498L61.5021 30L54 37.502V48H43.502L36 55.502L28.498 48H18V37.502L10.498 30L18 22.498V12H28.498L36 4.49805Z" fill="#55ACEE"/>
<path d="M35.9999 9.18799L40.4679 19.326L50.1719 16.492L47.3359 26.194L60.3079 30.664L47.3359 35.132L50.1719 44.834L40.4679 42L35.9999 66.308L31.5299 42L21.8299 44.834L24.6639 35.132L11.6899 30.664L24.6639 26.194L21.8299 16.492L31.5299 19.326L35.9999 9.18799Z" fill="#FFD983"/>
<path d="M36 36C39.3137 36 42 33.3137 42 30C42 26.6863 39.3137 24 36 24C32.6863 24 30 26.6863 30 30C30 33.3137 32.6863 36 36 36Z" fill="#F5F8FA"/>
<path d="M19.998 25.9999C19.618 25.9999 19.232 25.8919 18.89 25.6639L6.88999 17.6639C5.97199 17.0519 5.72399 15.8099 6.33599 14.8899C6.94799 13.9699 8.18999 13.7219 9.10999 14.3359L21.11 22.3359C22.03 22.9479 22.276 24.1899 21.664 25.1099C21.278 25.6879 20.644 25.9999 19.998 25.9999ZM52.002 25.9999C51.356 25.9999 50.72 25.6879 50.336 25.1099C49.722 24.1899 49.97 22.9479 50.89 22.3359L62.89 14.3359C63.81 13.7219 65.052 13.9699 65.664 14.8899C66.278 15.8079 66.03 17.0519 65.11 17.6639L53.11 25.6639C52.768 25.8919 52.382 25.9999 52.002 25.9999ZM8.00199 47.9999C7.35599 47.9999 6.72199 47.6879 6.33599 47.1099C5.72399 46.1899 5.97199 44.9499 6.88999 44.3359L18.89 36.3359C19.808 35.7199 21.05 35.9699 21.664 36.8899C22.276 37.8099 22.028 39.0499 21.11 39.6639L9.10999 47.6639C8.76799 47.8899 8.38199 47.9999 8.00199 47.9999ZM65.998 47.9999C65.662 47.9999 65.32 47.9159 65.008 47.7359L51.008 39.7359C50.05 39.1879 49.716 37.9659 50.264 37.0079C50.812 36.0499 52.032 35.7139 52.992 36.2639L66.992 44.2639C67.95 44.8119 68.284 46.0339 67.736 46.9919C67.368 47.6379 66.694 47.9999 65.998 47.9999ZM20 67.9999C19.728 67.9999 19.454 67.9459 19.188 67.8279C18.18 67.3779 17.724 66.1959 18.174 65.1879L26.174 47.1879C26.622 46.1799 27.802 45.7219 28.814 46.1719C29.822 46.6219 30.278 47.8039 29.828 48.8119L21.828 66.8119C21.496 67.5559 20.764 67.9999 20 67.9999ZM52.002 67.9999C51.234 67.9999 50.504 67.5579 50.172 66.8119L42.172 48.8119C41.724 47.8019 42.178 46.6199 43.188 46.1719C44.2 45.7239 45.38 46.1799 45.828 47.1879L53.828 65.1879C54.276 66.1979 53.822 67.3799 52.812 67.8279C52.548 67.9459 52.274 67.9999 52.002 67.9999ZM30.002 15.9999C29.268 15.9999 28.562 15.5959 28.21 14.8939L24.21 6.89386C23.716 5.90586 24.116 4.70386 25.104 4.20986C26.094 3.71586 27.294 4.11786 27.788 5.10386L31.788 13.1039C32.282 14.0919 31.882 15.2939 30.894 15.7879C30.608 15.9319 30.302 15.9999 30.002 15.9999ZM41.998 15.9999C41.698 15.9999 41.392 15.9319 41.106 15.7899C40.118 15.2959 39.718 14.0939 40.212 13.1059L44.212 5.10586C44.708 4.11586 45.906 3.71586 46.896 4.21186C47.884 4.70586 48.284 5.90786 47.79 6.89586L43.79 14.8959C43.438 15.5959 42.732 15.9999 41.998 15.9999Z" fill="#FFCC4D"/>
</svg>
