<svg width="78" height="80" viewBox="0 0 78 80" fill="none" xmlns="http://www.w3.org/2000/svg">
<path d="M60.8568 16.7856C78.1763 34.1004 82.8562 57.4998 71.3106 69.0406C59.7651 80.5862 36.3705 75.9063 19.0533 58.5915C18.4651 58.0033 17.9286 57.3915 17.3687 56.7892L27.7613 46.3965C41.2291 59.8644 58.3863 64.5466 66.0802 56.848C73.7765 49.1518 69.0966 31.9946 55.6311 18.5268L55.6829 18.5762L55.6334 18.5244C40.2433 3.1319 19.1851 -0.76681 8.6042 9.81406C3.4867 14.9316 1.78793 22.5031 3.10319 30.6911C1.08442 21.0843 2.75025 12.1834 8.6042 6.33181C20.1474 -5.21139 43.542 -0.531522 60.8568 16.7856Z" fill="#FDD888"/>
<path d="M38.5939 79.9973C38.001 79.9973 37.4104 79.8161 36.9022 79.4538L24.959 70.887L13.0159 79.4538C11.9971 80.1832 10.6324 80.1832 9.62066 79.442C8.60892 78.7079 8.18305 77.4091 8.56186 76.2209L13.0182 61.8449L1.1809 53.504C0.173867 52.7628 -0.242592 51.4593 0.140926 50.2687C0.529151 49.0829 1.63265 48.2759 2.88202 48.2665L17.3451 48.2382L22.2085 34.2222C22.6038 33.0363 23.712 32.2363 24.9614 32.2363C26.2108 32.2363 27.319 33.0363 27.7143 34.2222L32.1047 48.2382L47.0384 48.2665C48.2901 48.2759 49.396 49.0829 49.7795 50.2687C50.1654 51.4593 49.7466 52.7628 48.7395 53.504L36.9022 61.8449L41.3562 76.2209C41.7374 77.4091 41.3068 78.7103 40.2998 79.442C39.7892 79.8138 39.1916 79.9973 38.5939 79.9973Z" fill="#FFAC33"/>
</svg>
