<svg width="80" height="57" viewBox="0 0 80 57" fill="none" xmlns="http://www.w3.org/2000/svg">
<path d="M4.59218 17.4415L4.58324 17.437C4.58324 17.437 0 45.1845 0 49.1845C0 53.2605 3.00112 56.5633 6.70391 56.5633C8.22346 56.5633 9.60894 55.9867 10.733 55.0482L33.4503 35.075L4.59218 17.4415ZM75.4078 17.4415L75.4168 17.437C75.4168 17.437 80 45.1845 80 49.1845C80 53.2605 76.9989 56.5633 73.2961 56.5633C71.7765 56.5633 70.3911 55.9867 69.267 55.0482L46.5497 35.075L75.4078 17.4415Z" fill="#31373D"/>
<path d="M57.8771 37.9888C68.3674 37.9888 76.8715 29.4847 76.8715 18.9944C76.8715 8.50409 68.3674 0 57.8771 0C47.3868 0 38.8827 8.50409 38.8827 18.9944C38.8827 29.4847 47.3868 37.9888 57.8771 37.9888Z" fill="#14171A"/>
<path d="M22.123 37.9888C32.6133 37.9888 41.1174 29.4847 41.1174 18.9944C41.1174 8.50409 32.6133 0 22.123 0C11.6326 0 3.12854 8.50409 3.12854 18.9944C3.12854 29.4847 11.6326 37.9888 22.123 37.9888Z" fill="#14171A"/>
<path d="M22.1229 0H57.8771V37.6983H22.1229V0Z" fill="#14171A"/>
<path d="M29.0503 47.486C35.221 47.486 40.2234 42.4836 40.2234 36.3128C40.2234 30.1421 35.221 25.1396 29.0503 25.1396C22.8795 25.1396 17.8771 30.1421 17.8771 36.3128C17.8771 42.4836 22.8795 47.486 29.0503 47.486Z" fill="#14171A"/>
<path d="M50.9497 47.486C57.1205 47.486 62.1229 42.4836 62.1229 36.3128C62.1229 30.1421 57.1205 25.1396 50.9497 25.1396C44.7789 25.1396 39.7765 30.1421 39.7765 36.3128C39.7765 42.4836 44.7789 47.486 50.9497 47.486Z" fill="#14171A"/>
<path d="M50.9498 43.0167C54.6522 43.0167 57.6537 40.0153 57.6537 36.3128C57.6537 32.6103 54.6522 29.6089 50.9498 29.6089C47.2473 29.6089 44.2458 32.6103 44.2458 36.3128C44.2458 40.0153 47.2473 43.0167 50.9498 43.0167Z" fill="#67757F"/>
<path d="M29.0502 43.0167C32.7527 43.0167 35.7541 40.0153 35.7541 36.3128C35.7541 32.6103 32.7527 29.6089 29.0502 29.6089C25.3478 29.6089 22.3463 32.6103 22.3463 36.3128C22.3463 40.0153 25.3478 43.0167 29.0502 43.0167Z" fill="#67757F"/>
<path d="M57.3408 12.7038C59.3191 12.7038 60.9229 11.1 60.9229 9.12168C60.9229 7.14332 59.3191 5.53955 57.3408 5.53955C55.3624 5.53955 53.7587 7.14332 53.7587 9.12168C53.7587 11.1 55.3624 12.7038 57.3408 12.7038Z" fill="#FFCC4D"/>
<path d="M57.3408 27.1711C59.3191 27.1711 60.9229 25.5673 60.9229 23.589C60.9229 21.6106 59.3191 20.0068 57.3408 20.0068C55.3624 20.0068 53.7587 21.6106 53.7587 23.589C53.7587 25.5673 55.3624 27.1711 57.3408 27.1711Z" fill="#77B255"/>
<path d="M50.1073 19.9372C52.0856 19.9372 53.6894 18.3334 53.6894 16.3551C53.6894 14.3767 52.0856 12.7729 50.1073 12.7729C48.1289 12.7729 46.5251 14.3767 46.5251 16.3551C46.5251 18.3334 48.1289 19.9372 50.1073 19.9372Z" fill="#50A5E6"/>
<path d="M64.5743 19.9372C66.5527 19.9372 68.1564 18.3334 68.1564 16.3551C68.1564 14.3767 66.5527 12.7729 64.5743 12.7729C62.596 12.7729 60.9922 14.3767 60.9922 16.3551C60.9922 18.3334 62.596 19.9372 64.5743 19.9372Z" fill="#DD2E44"/>
<path d="M24.7442 12.2076V7.36287C24.7442 6.7394 24.2392 6.23438 23.6157 6.23438H20.1341C19.5107 6.23438 19.0056 6.7394 19.0056 7.36287V12.2076L21.8749 15.0791L24.7442 12.2076ZM19.0034 20.3193V25.164C19.0034 25.7874 19.5084 26.2925 20.1319 26.2925H23.6135C24.2369 26.2925 24.742 25.7874 24.742 25.164V20.3193L21.8727 17.4478L19.0034 20.3193ZM30.7777 13.3919H25.933L23.0615 16.2634L25.933 19.1349H30.7777C31.4012 19.1349 31.9062 18.6277 31.9062 18.0064V14.5226C31.9062 13.8992 31.4012 13.3919 30.7777 13.3919ZM17.819 13.3919H12.9721C12.3487 13.3919 11.8436 13.8992 11.8436 14.5204V18.002C11.8436 18.6254 12.3487 19.1305 12.9721 19.1305H17.8168L20.6883 16.259L17.819 13.3919Z" fill="#8899A6"/>
</svg>
