<svg width="64" height="64" viewBox="0 0 64 64" fill="none" xmlns="http://www.w3.org/2000/svg">
<path d="M42.7407 27.6472C42.7422 28.1659 42.6184 28.6773 42.3799 29.1375C42.1414 29.5977 41.7953 29.9929 41.3713 30.2893L30.6305 37.8384C30.0901 38.2262 29.442 38.4337 28.7778 38.4315C28.2606 38.4415 27.7504 38.311 27.3009 38.054C26.7739 37.788 26.3313 37.3796 26.0229 36.8747C25.7146 36.3698 25.5527 35.7885 25.5555 35.1962V20.0982C25.5564 19.5062 25.719 18.9259 26.0256 18.4203C26.3323 17.9147 26.7712 17.5033 27.2945 17.2308C27.8179 16.9583 28.4057 16.8353 28.9939 16.875C29.5821 16.9147 30.1482 17.1156 30.6305 17.456L41.3713 25.005C41.7953 25.3015 42.1414 25.6967 42.3799 26.1569C42.6184 26.617 42.7422 27.1284 42.7407 27.6472Z" fill="#FF967E"/>
<path d="M61 12.549V42.7451C60.9929 44.745 60.1985 46.661 58.7901 48.0752C57.3816 49.4894 55.4733 50.287 53.4815 50.2941H10.5185C8.52666 50.287 6.6184 49.4894 5.20994 48.0752C3.80148 46.661 3.00708 44.745 3 42.7451V12.549C3.00708 10.5491 3.80148 8.63308 5.20994 7.21891C6.6184 5.80473 8.52666 5.0071 10.5185 5H53.4815C55.4733 5.0071 57.3816 5.80473 58.7901 7.21891C60.1985 8.63308 60.9929 10.5491 61 12.549ZM54.5556 12.549C54.5556 12.263 54.4424 11.9887 54.241 11.7865C54.0395 11.5842 53.7663 11.4706 53.4815 11.4706H10.5185C10.2337 11.4706 9.96046 11.5842 9.75903 11.7865C9.55761 11.9887 9.44444 12.263 9.44444 12.549V42.7451C9.44444 43.0311 9.55761 43.3054 9.75903 43.5077C9.96046 43.7099 10.2337 43.8235 10.5185 43.8235H53.4815C53.7663 43.8235 54.0395 43.7099 54.241 43.5077C54.4424 43.3054 54.5556 43.0311 54.5556 42.7451V12.549Z" fill="#7EC1FF"/>
<path d="M40.5926 53.5293H23.4074C22.5528 53.5293 21.7332 53.8702 21.1289 54.4769C20.5247 55.0836 20.1852 55.9065 20.1852 56.7646C20.1852 57.6226 20.5247 58.4456 21.1289 59.0523C21.7332 59.659 22.5528 59.9999 23.4074 59.9999H40.5926C41.4472 59.9999 42.2668 59.659 42.871 59.0523C43.4753 58.4456 43.8148 57.6226 43.8148 56.7646C43.8148 55.9065 43.4753 55.0836 42.871 54.4769C42.2668 53.8702 41.4472 53.5293 40.5926 53.5293Z" fill="#A77EFF"/>
</svg>
