<svg width="173" height="300" viewBox="0 0 173 300" fill="none" xmlns="http://www.w3.org/2000/svg">
<path d="M10.6575 277.013C3.8288 279.27 -0.356384 280.09 0.0239563 280.907C0.404007 281.727 26.5224 300.018 28.5601 299.139C30.5994 298.263 64.8897 289.307 67.3351 289.307C69.7817 289.307 105.226 300.047 108.08 298.731C110.935 297.414 131.425 282.871 132.241 281.113C133.056 279.355 77.5293 279.208 71.4127 279.208C65.2968 279.208 10.6575 277.013 10.6575 277.013Z" fill="#E9E9E9"/>
<path d="M68.3638 251.345C71.9612 249.564 90.8693 241.942 96.3227 239.926C103.145 240.813 124.31 245.187 127.618 245.975C120.088 249.781 105.889 257.37 103.988 257.582C102.092 257.802 69.3661 251.98 68.3638 251.345Z" fill="#F68ABF"/>
<path d="M78.7204 252.342C79.0752 252.565 83.4229 253.444 88.9698 254.473C93.0201 252.433 102.717 246.099 108.919 242.413C108.279 242.26 106.89 241.954 105.017 241.549C98.1264 244.191 82.012 250.71 78.7204 252.342Z" fill="#E94290"/>
<path d="M68.3637 251.346C68.3637 251.346 69.4592 286.108 69.717 287.774C73.2693 288.93 103.314 296.721 104.923 296.569C104.837 282.496 104.197 259.193 103.988 257.583C96.9543 255.205 68.3637 251.346 68.3637 251.346Z" fill="#E94290"/>
<path d="M127.618 245.975C128.121 254.643 128.71 281.31 128.556 281.71C128.166 282.724 105.896 296.676 104.923 296.568C103.948 296.468 103.717 258.396 103.988 257.582C104.261 256.771 127.618 245.975 127.618 245.975Z" fill="#DD2278"/>
<path d="M103.988 257.582C104.588 255.554 105.599 295.86 104.923 296.568C104.246 297.279 102.862 261.415 103.988 257.582Z" fill="#F68ABF"/>
<path d="M68.3639 251.344C68.3639 251.344 88.6958 252.387 103.988 257.581C96.3022 256.949 68.3639 251.344 68.3639 251.344Z" fill="#FAB8D2"/>
<path d="M127.618 245.974C126.781 247.146 105.881 257.075 103.988 257.581C106.87 254.747 127.618 245.974 127.618 245.974Z" fill="#FAB8D2"/>
<path d="M67.3538 251.048C68.0566 250.605 50.2445 242.131 39.3952 239.635C28.16 241.226 8.1 245.684 8.1 245.684C15.6286 249.488 29.8277 257.077 31.7276 257.291C33.6264 257.509 66.3533 251.689 67.3538 251.048Z" fill="#1379C8"/>
<path d="M55.4026 253.499C61.739 252.338 66.9635 251.297 67.3538 251.047C67.7638 250.789 61.8815 247.802 54.7539 244.86C46.6257 246.665 39.4928 248.499 39.4928 248.499C43.0466 250.298 49.4412 252.085 55.4026 253.499Z" fill="#254AA5"/>
<path d="M67.354 251.047C67.354 251.047 66.2586 286.8 65.6137 287.476C63.1538 288.352 32.4053 296.429 30.7946 296.279C30.8813 282.2 31.5203 258.898 31.7278 257.29C38.762 254.907 67.354 251.047 67.354 251.047Z" fill="#254AA5"/>
<path d="M8.09979 245.683C7.41759 252.229 6.42971 278.053 6.19868 281.416C6.75802 282.347 29.8205 296.382 30.7942 296.279C31.7695 296.173 31.9981 258.107 31.7274 257.29C31.4567 256.476 8.09979 245.683 8.09979 245.683Z" fill="#1C61B6"/>
<path d="M31.7275 257.29C31.1294 255.262 30.1177 295.567 30.7943 296.279C31.4742 296.987 32.8541 261.125 31.7275 257.29Z" fill="#42A6E2"/>
<path d="M67.354 251.049C67.354 251.049 47.0215 252.098 31.7278 257.292C39.4166 256.657 67.354 251.049 67.354 251.049Z" fill="#42A6E2"/>
<path d="M8.09989 245.684C8.93552 246.854 29.8353 256.786 31.7275 257.292C28.8471 254.458 8.09989 245.684 8.09989 245.684Z" fill="#42A6E2"/>
<path d="M42.9477 211.664C43.5744 211.47 69.3967 200.324 70.9081 200.248C72.5003 200.042 100.015 205.262 102.204 206.3C94.6709 210.1 80.4741 217.689 78.5757 217.904C76.6775 218.124 43.9506 212.305 42.9477 211.664Z" fill="#FACF09"/>
<path d="M42.9478 211.666C42.9478 211.666 44.1391 247.313 44.6881 248.095C46.5745 249.899 77.8971 257.045 79.5066 256.895C79.4225 242.813 78.7827 219.513 78.5757 217.906C71.538 215.525 42.9478 211.666 42.9478 211.666Z" fill="#F7AD0E"/>
<path d="M102.204 206.301C102.849 206.745 104.659 241.096 104.102 242.034C103.546 242.968 80.4809 256.997 79.5066 256.894C78.5313 256.789 78.3041 218.723 78.5757 217.905C78.8458 217.094 102.204 206.301 102.204 206.301Z" fill="#EB7317"/>
<path d="M78.5754 217.905C79.1732 215.877 80.1837 256.186 79.5062 256.894C78.8302 257.608 77.4476 221.741 78.5754 217.905Z" fill="#FACC3B"/>
<path d="M42.9477 211.665C42.9477 211.665 63.2799 212.711 78.5757 217.905C70.889 217.273 42.9477 211.665 42.9477 211.665Z" fill="#FFF652"/>
<path d="M102.204 206.301C101.365 207.47 80.4671 217.399 78.5757 217.905C81.4558 215.074 102.204 206.301 102.204 206.301Z" fill="#FFF652"/>
<path d="M144.153 63.5159C143.877 76.1017 145.325 81.2953 165.414 92.1617C178.076 99.0101 176.586 117.189 147.86 105.365C166.935 125.008 146.658 142.567 134.352 113.865C152.363 169.881 82.514 170.195 74.6901 112.21C67.5595 143.554 42.4314 114.291 55.8687 91.4475C29.0993 115.967 34.257 63.9773 67.9912 46.5183C97.0018 54.1103 144.153 63.5159 144.153 63.5159Z" fill="#21201F"/>
<path d="M44.6741 90.0329C44.7029 90.0123 44.7235 89.9917 44.7235 89.9917C44.4875 88.4839 44.6121 87.9401 44.5562 85.8445C44.5257 84.5835 42.9209 82.8435 42.027 82.9699C41.4148 82.2556 40.4581 82.2263 39.9581 82.4849C39.1119 81.3415 35.8808 80.0189 35.3335 81.0212C35.1495 81.3592 37.5212 82.9552 37.831 83.5254C38.2325 84.2749 38.1202 85.5358 36.6788 84.6041C36.4398 83.8223 35.4749 83.2932 35.0499 83.3608C33.8904 83.5519 34.6299 88.1312 38.1375 89.542C39.1827 89.9623 40.8948 90.5707 41.4283 91.3349C41.4283 91.3349 46.4494 109.238 63.5408 112.227C64.8273 110.628 65.1494 108.171 65.1494 108.171C65.1494 108.171 51.3991 106.466 44.6741 90.0329Z" fill="#FABD99"/>
<path d="M49.6703 93.4905C50.0689 92.9556 43.0271 87.133 37.5057 82.9269C36.8538 82.4008 35.4606 81.6542 35.4024 81.0017C32.9393 79.2705 21.2462 71.5609 20.8814 72.0488C20.4141 72.6778 32.146 81.2368 35.0306 83.6059C35.9456 83.5089 36.4491 84.2202 36.7074 84.9638C42.2282 89.0964 49.3311 93.9432 49.6703 93.4905Z" fill="#8A6449"/>
<path d="M23.5279 72.7389C23.7007 72.0982 23.3186 69.0002 20.7212 68.3242C18.5426 67.7511 16.0069 68.336 14.4618 66.5959C14.6802 71.1782 18.5617 75.008 22.3407 74.1645C23.1114 73.2739 23.5279 72.7389 23.5279 72.7389Z" fill="#512D1F"/>
<path d="M23.6055 72.5764C23.8072 72.7322 24.4341 73.3054 24.5046 73.7521C24.3974 74.1313 23.7402 74.7485 23.7402 74.7485C23.7402 74.7485 22.7364 74.6868 22.2993 74.096C22.3373 73.5317 23.1129 72.5823 23.6055 72.5764Z" fill="#D7D7D7"/>
<path d="M13.6635 65.9811C13.6635 65.9811 15.0503 67.4919 17.9254 67.58C19.9059 67.6476 20.9825 68.1032 19.9303 69.5728C18.8745 71.0454 17.2859 72.7472 20.4341 74.1639C18.0997 75.5219 12.0032 71.6009 13.6635 65.9811Z" fill="#EE226D"/>
<path d="M59.4916 105.27C62.4452 105.964 71.1348 109.117 71.1348 109.117L66.414 116.442C66.414 116.442 58.1439 114.614 55.9518 113.37C55.9707 112.865 57.9461 105.637 59.4916 105.27Z" fill="#1B62B7"/>
<path d="M58.2508 114.409C58.2508 114.409 60.1563 108.104 61.4102 105.788C59.6449 104.971 58.463 104.991 58.463 104.991C58.463 104.991 56.1648 110.2 55.639 113.477C56.8596 114.206 58.2508 114.409 58.2508 114.409Z" fill="white"/>
<path d="M89.6736 198.017L90.6853 203.264L86.5136 203.329L86.0072 198.458L89.6736 198.017Z" fill="#FABD99"/>
<path d="M66.5999 198.458L65.7137 202.57L62.0499 202L62.8714 197.635L66.5999 198.458Z" fill="#FABD99"/>
<path d="M87.3978 149.173C87.3978 149.173 91.1536 184.996 92.1667 197.05C91.1536 198.987 84.4733 200.166 82.0273 199.325C79.4983 192.409 73.9955 165.53 73.9955 165.53C73.9955 165.53 70.3638 192.65 69.8574 197.791C65.6443 199.81 59.3719 197.47 59.2882 197.132C59.2038 196.797 58.3188 179.35 61.5214 149.005C72.0585 149.849 87.3978 149.173 87.3978 149.173Z" fill="#8D8D8E"/>
<path d="M66.1575 200.801C66.1575 200.801 65.778 205.537 65.5893 207.688C62.1757 209.969 52.5027 210.028 49.1531 208.767C47.13 206.742 48.1423 201.304 52.2502 199.661C56.361 198.018 59.205 201.181 60.0256 202.001C60.5941 201.683 62.0496 201.242 62.0496 201.242L62.4217 200.12C62.4217 200.12 63.1315 200.863 66.1575 200.801Z" fill="#F14B1C"/>
<path d="M90.2971 201.021C90.2971 201.021 90.5349 202.079 90.5576 202.441C92.8969 202.126 95.9949 204.78 95.8041 210.092C91.1898 212.558 82.9708 210.912 82.9708 210.912C82.9708 210.912 81.1397 205.289 86.323 202.632C86.1949 201.43 86.2848 201.339 86.2848 201.339C86.2848 201.339 88.3384 202.162 90.2971 201.021Z" fill="#F14B1C"/>
<path d="M65.7782 206.049C64.4502 206.928 57.1815 208.956 48.0781 206.552C47.4482 208.383 48.6504 209.335 48.6504 209.335C48.6504 209.335 57.561 211.922 65.6503 208.636C66.4095 208.13 65.7782 206.049 65.7782 206.049Z" fill="white"/>
<path d="M95.8045 208.196C94.0985 209.016 86.5764 210.283 82.53 208.766C81.4392 210.115 82.3995 211.267 83.0355 211.608C85.4633 212.558 92.0358 213.213 95.8929 210.724C96.6348 209.63 95.8045 208.196 95.8045 208.196Z" fill="white"/>
<path d="M70.4064 192.777C70.4064 192.777 71.4593 195.936 69.8577 198.467C63.578 199.984 59.5842 198.27 58.4884 197.556C58.1125 194.54 59.3332 191.866 59.3332 191.866C59.3332 191.866 61.8092 193.367 70.4064 192.777Z" fill="#6A6969"/>
<path d="M91.8299 191.951C90.7347 192.497 87.0007 194.775 80.4694 194.14C80.1758 196.542 81.0167 199.66 81.4808 199.916C84.7252 200.463 89.5129 200.128 92.8839 197.85C93.3724 194.54 91.8299 191.951 91.8299 191.951Z" fill="#6A6969"/>
<path d="M86.6503 120.853C91.2146 117.068 86.8907 113.876 86.8907 113.876C87.0623 113.94 81.1512 109.046 70.1464 108.685C63.7439 117.024 60.6271 128.766 60.2092 137.275C59.4147 143.853 59.529 149.164 60.4061 150.416C72.0373 158.699 89.6736 151.871 90.1159 149.217C90.4807 147.027 87.8362 129.753 86.6503 120.853Z" fill="#0D8BD5"/>
<path d="M80.5527 103.548C80.5527 103.548 79.9814 104.95 79.3077 110.77C75.0196 112.339 74.7563 109.711 74.7563 109.711C74.7563 109.711 75.2839 106.164 76.8849 102.795C78.5905 103.771 80.5527 103.548 80.5527 103.548Z" fill="#FABD99"/>
<path d="M76.8844 102.795C76.06 104.526 75.525 106.302 75.195 107.621C76.1508 107.983 77.32 108.638 79.3358 108.142C79.8266 104.808 80.1729 103.527 80.1729 103.527C80.1729 103.527 78.5901 103.771 76.8844 102.795Z" fill="#EAA376"/>
<path d="M89.8712 202.687C89.7942 202.711 89.7072 202.696 89.6414 202.646C88.2253 201.594 87.3658 202.643 87.3311 202.687C87.2397 202.802 87.0728 202.82 86.9608 202.731C86.8441 202.64 86.8271 202.473 86.9179 202.358C86.9285 202.343 88.1362 200.865 89.9553 202.226C90.0717 202.311 90.097 202.476 90.0097 202.59C89.9759 202.64 89.9253 202.673 89.8712 202.687Z" fill="#EADEDD"/>
<path d="M63.5938 202.848C63.5156 202.833 63.4439 202.786 63.4054 202.707C62.593 201.143 61.3603 201.713 61.3089 201.734C61.1798 201.799 61.0199 201.743 60.9582 201.614C60.8933 201.481 60.9506 201.323 61.0802 201.258C61.0972 201.252 62.8305 200.45 63.8722 202.466C63.9404 202.592 63.8886 202.754 63.7608 202.822C63.707 202.848 63.6488 202.854 63.5938 202.848Z" fill="#EADEDD"/>
<path d="M60.7505 203.983C60.6964 203.928 60.6699 203.842 60.6855 203.763C61.0035 202.026 59.6827 201.717 59.6271 201.706C59.4851 201.673 59.3934 201.532 59.4249 201.394C59.4543 201.25 59.5942 201.162 59.7385 201.191C59.7558 201.197 61.617 201.623 61.2052 203.857C61.1799 203.998 61.0403 204.092 60.8974 204.069C60.8372 204.057 60.7884 204.028 60.7505 203.983Z" fill="#EADEDD"/>
<path d="M90.6209 204.184C90.5227 204.211 90.4131 204.196 90.3225 204.128C88.4843 202.759 87.366 204.125 87.3222 204.181C87.2008 204.328 86.9865 204.358 86.839 204.24C86.6899 204.119 86.6647 203.905 86.781 203.755C86.7987 203.737 88.3679 201.815 90.7323 203.579C90.8828 203.69 90.9139 203.908 90.8043 204.061C90.7549 204.122 90.6932 204.161 90.6209 204.184Z" fill="#EADEDD"/>
<path d="M83.0216 111.836C82.2054 112.642 79.0807 119.002 78.3541 123.996C73.5491 123.361 66.0276 121.024 66.0276 121.024C66.0276 121.024 68.3037 112.806 71.8428 108.759C71.1483 108.647 70.0787 108.759 70.0787 108.759C70.0787 108.759 53.1316 127.726 57.052 172.482C59.7041 174.125 73.1076 174.248 76.1415 177.281C79.1742 180.318 89.2901 177.158 94.0943 175.515C94.9837 164.457 91.7797 143.889 88.6588 135.309C84.232 135.688 77.6073 125.692 85.0659 112.924C84.2582 112.274 83.0216 111.836 83.0216 111.836Z" fill="#ECF7FA"/>
<path d="M88.6588 135.309C88.3463 135.335 88.0207 135.303 87.6918 135.229C91.3232 145.769 93.3078 165.292 92.5577 176.026C93.1114 175.847 93.6276 175.673 94.0943 175.514C94.9837 164.457 91.7797 143.888 88.6588 135.309Z" fill="#ECF7FA"/>
<path d="M85.0657 112.923C84.8326 113.323 84.6127 113.719 84.4079 114.107C84.6139 113.714 84.8344 113.32 85.0657 112.923Z" fill="#ECF7FA"/>
<path d="M91.5053 127.676C93.969 131.153 95.4271 145.487 80.5079 144.347C80.0026 144.415 80.828 147.571 80.828 147.571C80.828 147.571 89.6803 149.52 94.6694 142.072C98.9043 135.75 96.8821 126.967 94.6694 124.31C92.6472 124.751 91.5053 127.676 91.5053 127.676Z" fill="#FABD99"/>
<path d="M86.8907 113.878C89.3979 115.368 94.0815 120.597 95.6717 122.784C96.0685 123.292 96.2898 123.615 96.666 124.115C96.6422 125.15 92.5358 128.159 89.8317 129.747C87.9103 127.792 85.3364 124.474 84.6998 122.187C83.2699 117.046 86.8907 113.878 86.8907 113.878Z" fill="#1B62B7"/>
<path d="M95.6718 122.783C95.6718 122.783 90.7815 127.141 88.5142 128.455C89.585 130.063 90.6016 130.657 90.6016 130.657C90.6016 130.657 95.2536 127.435 97.4019 124.931C96.7467 123.676 95.6718 122.783 95.6718 122.783Z" fill="white"/>
<path d="M48.456 154.436C49.7557 160.464 60.2888 163.312 71.9937 160.799C83.6977 158.277 92.1327 151.347 90.8363 145.318C89.5386 139.293 79.002 136.442 67.2991 138.958C55.5963 141.477 47.1607 148.404 48.456 154.436Z" fill="#AF5C1E"/>
<path d="M48.0142 153.487C49.2543 159.245 59.7441 161.87 71.4476 159.357C83.1525 156.835 91.6348 150.134 90.396 144.376C89.1568 138.615 78.6678 135.996 66.9629 138.512C55.26 141.022 46.7748 147.735 48.0142 153.487Z" fill="#F68912"/>
<path d="M71.2269 158.844C82.9327 156.325 91.415 149.621 90.1773 143.863C90.1226 143.607 90.0256 143.36 89.9333 143.113C90.1335 143.519 90.3016 143.936 90.396 144.377C91.6348 150.135 83.1525 156.836 71.4476 159.358C60.2694 161.76 50.2222 159.464 48.257 154.241C50.6716 159.1 60.4222 161.169 71.2269 158.844Z" fill="#FBC87F"/>
<path d="M79.2408 149.25C79.4648 150.293 81.3597 150.767 83.481 150.311C85.5975 149.861 87.1327 148.642 86.9078 147.604C86.683 146.561 84.7875 146.084 82.6692 146.54C80.5532 146.999 79.0186 148.21 79.2408 149.25Z" fill="#6A44A5"/>
<path d="M72.9519 154.784C73.1755 155.831 75.0737 156.307 77.1923 155.845C79.3083 155.393 80.8446 154.182 80.6201 153.138C80.3976 152.101 78.4991 151.624 76.3834 152.08C74.2651 152.536 72.7288 153.747 72.9519 154.784Z" fill="#FBC508"/>
<path d="M63.6558 157.114C63.8795 158.154 65.7809 158.633 67.895 158.178C70.0125 157.719 71.5468 156.508 71.3237 155.465C71.0973 154.421 69.2015 153.951 67.0829 154.404C64.9658 154.859 63.4315 156.07 63.6558 157.114Z" fill="#ECF7FA"/>
<path d="M54.5659 155.947C54.7901 156.996 56.6859 157.472 58.8031 157.014C60.9255 156.555 62.4542 155.344 62.2337 154.306C62.0068 153.26 60.1099 152.781 57.9907 153.242C55.8759 153.695 54.3384 154.912 54.5659 155.947Z" fill="#EB2735"/>
<path d="M50.124 151.712C50.3465 152.753 52.2435 153.223 54.3597 152.773C56.4801 152.321 58.0138 151.098 57.7916 150.063C57.5656 149.02 55.6683 148.547 53.5506 148.999C51.4337 149.458 49.8971 150.669 50.124 151.712Z" fill="#46B43A"/>
<path d="M54.2902 146.587C54.5174 147.625 56.4135 148.104 58.5324 147.648C60.6472 147.19 62.1847 145.976 61.959 144.938C61.7368 143.901 59.8351 143.419 57.7203 143.874C55.6023 144.333 54.0695 145.544 54.2902 146.587Z" fill="#45B5E6"/>
<path d="M62.2212 142.76C62.4446 143.8 64.3433 144.274 66.4613 143.821C68.5773 143.363 70.1124 142.152 69.8891 141.108C69.6642 140.068 67.7666 139.591 65.6489 140.047C63.5309 140.506 61.9975 141.717 62.2212 142.76Z" fill="#1B64B5"/>
<path d="M70.2153 143.228C70.5275 144.671 73.4152 145.28 76.669 144.583C79.9215 143.884 82.3094 142.143 81.9963 140.692C81.6824 139.248 78.7949 138.643 75.5433 139.345C72.2892 140.039 69.8996 141.788 70.2153 143.228Z" fill="white"/>
<path d="M75.543 139.345C78.7947 138.642 81.6822 139.248 81.9961 140.691C82.0102 140.764 82.012 140.832 82.0161 140.905C80.9048 140.182 78.6992 139.985 76.2928 140.506C73.1978 141.17 70.8914 142.778 70.9446 144.18C70.551 143.924 70.2947 143.604 70.2151 143.227C69.8994 141.787 72.289 140.038 75.543 139.345Z" fill="#AF5C1E"/>
<path d="M80.637 142.854C80.5805 142.789 77.7089 142.445 77.2098 142.143C76.3945 141.649 75.1994 140.153 73.1563 140.02C72.1152 140.02 70.7785 141.158 72.4297 141.763C72.9176 141.943 73.9364 142.542 74.2568 143.083C74.1183 144.127 72.507 144.535 72.1276 144.685C74.4716 146.058 79.3378 144.782 80.637 142.854Z" fill="#FABD99"/>
<path d="M66.4971 126.949C65.8972 125.527 61.4169 131.096 62.0498 135.776C62.6817 140.455 67.5067 129.351 66.4971 126.949Z" fill="#EB2735"/>
<path d="M86.852 158.811C85.3536 159.11 83.4378 160.454 84.4501 161.97C85.4615 163.487 85.3733 166.711 86.8908 165.956C88.4054 165.198 88.1153 158.558 86.852 158.811Z" fill="#6FC2E8"/>
<path d="M79.8078 130.217C77.9179 129.653 76.6114 133.142 76.6114 134.156C76.6114 135.164 78.3811 137.063 79.2664 136.434C80.15 135.799 78.8882 133.9 79.3934 133.9C79.8972 133.9 81.0741 130.596 79.8078 130.217Z" fill="#5DBC50"/>
<path d="M79.4762 109.465L79.4136 109.967C79.4136 109.967 78.8763 111.349 76.6334 110.873C74.3878 110.399 74.8813 109.027 74.8813 109.027L74.968 108.609C74.968 108.609 72.0702 108.521 72.5017 110.302C72.9443 112.128 75.3789 113.586 79.5905 113.007C81.7935 112.707 82.7743 110.673 79.4762 109.465Z" fill="white"/>
<path d="M9.49014 76.2434C9.49014 82.3923 16.4858 85.3609 11.1858 90.0196C5.88751 94.6842 6.73431 79.4236 9.49014 76.2434Z" fill="#EE226D"/>
<path d="M18.7919 106.546C18.1576 106.755 10.2502 118.297 15.8268 122.015C18.3698 123.714 21.7599 117.989 20.0637 114.176C18.3698 110.358 18.7919 106.546 18.7919 106.546Z" fill="#EE226D"/>
<path d="M60.741 13.4401C80.9409 -5.99115 114.709 -4.12182 132.731 17.5521C145.899 33.3858 137.397 38.3002 137.397 38.3002C137.397 38.3002 151.257 39.3377 150.166 56.4588C149.806 62.0962 141.11 80.9867 130.688 78.456C130.688 78.456 106.285 71.8428 92.5568 67.5574C78.3262 65.4823 50.6783 60.2534 50.6783 60.2534C41.8194 37.7564 53.6125 20.3003 60.741 13.4401Z" fill="#21201F"/>
<path d="M99.9687 16.4522C83.0789 12.6106 66.2524 19.074 56.0615 31.701C64.2854 15.4499 82.7694 6.22953 101.333 10.4532C119.897 14.6769 132.574 30.9867 132.958 49.1953C129.231 33.4028 116.857 20.2938 99.9687 16.4522Z" fill="#F4C5DD"/>
<path d="M123.576 79.8994C118.614 101.691 95.3511 111.652 74.3664 106.876C53.3832 102.096 42.6353 84.3905 47.5982 62.5961C52.5594 40.8075 73.4088 27.7984 94.3932 32.5776C115.377 37.3539 128.538 58.1079 123.576 79.8994Z" fill="#FABD99"/>
<path d="M78.2627 66.7026C77.1696 68.8041 80.4245 74.5915 76.9239 75.5262C74.7568 76.1052 72.4668 73.842 74.5863 70.9997C75.8149 69.3538 78.2627 66.7026 78.2627 66.7026Z" fill="#F36457"/>
<path d="M90.6412 85.1169C90.1318 87.3566 93.1107 89.9461 97.2959 90.8984C101.481 91.8507 105.287 90.8044 105.797 88.5647C106.306 86.322 103.327 83.7326 99.1426 82.7802C94.9569 81.8309 91.1517 82.8743 90.6412 85.1169Z" fill="#F36457"/>
<path d="M47.5987 75.3211C47.0891 77.5638 50.0688 80.1503 54.2537 81.1026C58.4395 82.0549 62.2452 81.0115 62.7549 78.7688C63.2651 76.5291 60.2856 73.9397 56.1008 72.9874C51.9147 72.0351 48.109 73.0814 47.5987 75.3211Z" fill="#F36457"/>
<path d="M65.7359 80.253C69.1354 78.9509 69.5434 82.3075 76.159 83.7918C82.9125 85.3026 84.5879 82.2693 87.2673 85.526C89.4526 88.1801 84.5382 99.311 73.5022 96.6892C62.3837 94.0409 62.4995 81.4933 65.7359 80.253Z" fill="#4E1F22"/>
<path d="M81.6729 95.9792C79.5031 97.0373 76.7717 97.4694 73.5024 96.6905C70.4391 95.9616 68.2303 94.4802 66.7024 92.6902C68.7214 92.4815 71.3358 92.6167 74.5858 93.3486C77.6867 94.0452 80.0037 94.9828 81.6729 95.9792Z" fill="#EE5B63"/>
<path d="M66.934 79.9693C69.3469 79.7988 70.4068 82.5029 76.1591 83.7932C81.98 85.0953 84.0295 83.0261 86.199 84.5134C85.4415 87.6613 80.011 88.8752 75.3444 87.77C70.7221 86.6678 66.1834 83.0878 66.934 79.9693Z" fill="white"/>
<path d="M93.8001 69.6586C91.5686 73.0093 92.3237 77.4328 95.4861 79.5432C98.651 81.6507 103.027 80.6454 105.258 77.2918C107.492 73.9352 106.733 69.5116 103.574 67.4042C100.406 65.2967 96.0316 66.3078 93.8001 69.6586Z" fill="white"/>
<path d="M94.1782 70.705C92.8018 72.7742 93.2673 75.5048 95.2181 76.8039C97.1692 78.1031 99.868 77.4829 101.245 75.4137C102.622 73.3444 102.154 70.6168 100.206 69.3177C98.2523 68.0185 95.5552 68.6417 94.1782 70.705Z" fill="#231F20"/>
<path d="M98.6259 72.0179C98.4783 72.7292 98.906 73.417 99.5741 73.5551C100.244 73.6903 100.903 73.2289 101.055 72.5176C101.199 71.8092 100.777 71.1244 100.11 70.9803C99.4386 70.8481 98.7722 71.3095 98.6259 72.0179Z" fill="white"/>
<path d="M94.396 74.2256C94.3019 74.6665 94.5679 75.0897 94.9856 75.1809C95.3988 75.2661 95.8121 74.9781 95.9023 74.5342C95.9879 74.0963 95.7304 73.6701 95.3133 73.5849C94.8989 73.4967 94.4859 73.7847 94.396 74.2256Z" fill="white"/>
<path d="M107.417 72.0801C107.417 72.0801 103.449 64.6321 95.0741 67.4214C104.058 61.2225 107.417 72.0801 107.417 72.0801Z" fill="#6D3A2C"/>
<path d="M66.5936 63.4678C67.155 67.4534 64.5602 71.1186 60.7962 71.6506C57.0322 72.1797 53.5234 69.3815 52.9608 65.393C52.3994 61.4015 54.9953 57.7422 58.757 57.2072C62.5239 56.6781 66.031 59.4822 66.5936 63.4678Z" fill="white"/>
<path d="M62.1618 63.424C62.5084 65.8812 60.9082 68.1415 58.5877 68.4707C56.2654 68.797 54.1012 67.0687 53.7538 64.6115C53.4076 62.1484 55.0089 59.8911 57.3291 59.5619C59.6526 59.2356 61.815 60.9639 62.1618 63.424Z" fill="#231F20"/>
<path d="M57.5843 62.6806C57.4086 63.389 56.727 63.8211 56.0647 63.6565C55.4022 63.4889 55.0054 62.7894 55.1777 62.084C55.3531 61.3815 56.0318 60.9435 56.6961 61.1023C57.3592 61.2757 57.7595 61.9811 57.5843 62.6806Z" fill="white"/>
<path d="M60.4429 66.503C60.3362 66.941 59.9141 67.2084 59.4991 67.1085C59.0882 67.0056 58.8401 66.5677 58.9503 66.1297C59.0635 65.6977 59.4811 65.4243 59.8941 65.5272C60.305 65.6301 60.5522 66.068 60.4429 66.503Z" fill="white"/>
<path d="M53.2687 59.7624C53.2687 59.7624 60.0675 54.7628 66.4121 60.9028C60.9933 51.4267 53.2687 59.7624 53.2687 59.7624Z" fill="#6D3A2C"/>
<path d="M65.2258 52.2789C64.9733 48.2756 57.8428 47.094 54.0917 53.0137C57.9859 50.3243 65.2258 52.2789 65.2258 52.2789Z" fill="#21201F"/>
<path d="M99.8731 60.1624C101.832 56.6617 108.773 58.681 109.594 65.6411C107.246 61.5321 99.8731 60.1624 99.8731 60.1624Z" fill="#21201F"/>
<path d="M121.352 79.7645C121.352 79.7645 122.871 75.4526 128.386 75.8994C134.203 76.3726 134.977 84.285 131.04 88.1266C127.102 91.9594 120.758 90.7749 119.485 86.898L121.352 79.7645Z" fill="#FABD99"/>
<path d="M129.11 78.0613C125.531 76.7063 121.302 82.6524 125.681 86.9907C124.431 81.9852 126.67 80.7742 128.913 83.4783C129.167 81.9676 128.423 80.8448 126.161 80.5861C126.709 78.6345 129.11 78.0613 129.11 78.0613Z" fill="#D37658"/>
<path d="M124.953 76.4531C124.953 76.4531 110.238 75.974 118.435 50.7671C92.7176 56.7485 68.2755 19.1498 48.503 59.5173C48.4595 21.9215 103.343 15.1054 127.034 48.1101C133.015 58.077 124.953 76.4531 124.953 76.4531Z" fill="#21201F"/>
</svg>
