<svg width="186" height="173" viewBox="0 0 186 173" fill="none" xmlns="http://www.w3.org/2000/svg">
<path d="M175.229 132.903C178.281 134.825 180.896 136.07 183.31 137.444C185.726 138.817 186.782 141.686 183.471 142.954C180.161 144.217 151.173 153.908 151.173 153.908C151.173 153.908 150.784 157.346 145.972 159.091C141.654 160.655 138.772 159.462 136.873 158.177C131.56 160.272 99.5505 171.604 97.2361 172.335C94.9238 173.068 93.8218 172.77 91.154 171.191C88.1086 169.387 51.8902 144.546 49.3456 142.592C46.8029 140.637 46.6449 138.959 49.1297 138.025C52.1395 136.896 59.5005 134.909 59.5005 134.909L175.229 132.903Z" fill="#EE2B21"/>
<path d="M174.921 129.246C174.921 129.246 174.757 134.421 182.049 138.813C171.049 142.325 143.536 151.571 143.536 151.571L142.45 150.858C142.45 150.858 141.074 139.202 148.276 133.115C155.475 127.024 174.921 129.246 174.921 129.246Z" fill="#CEC391"/>
<path d="M95.2249 168.705L143.537 151.572C143.537 151.572 143.232 150.185 140.08 146.936C136.931 143.692 126.956 137.274 117.519 142.097C108.078 146.916 98.8334 155.796 98.8334 155.796L95.2249 168.705Z" fill="#DED19B"/>
<path d="M174.921 129.247C161.531 121.908 126.37 98.5648 126.37 98.5648C126.37 98.5648 119.467 102.909 114.939 102.297C104.864 100.937 98.6786 99.68 94.2153 110.373C108.314 123.262 142.45 150.858 142.45 150.858C142.45 150.858 143.605 137.948 153.485 132.992C163.238 128.098 166.919 135.697 174.921 129.247Z" fill="#EAE1B9"/>
<path d="M142.45 150.858C142.043 148.067 133.455 139.266 123.559 131.696C113.665 124.125 94.2151 110.373 94.2151 110.373C94.2151 110.373 87.5368 104.532 78.6788 110.097C69.8207 115.667 67.217 123.973 52.8972 126.362C68.7783 133.816 98.833 155.796 98.833 155.796C98.833 155.796 105.213 154.334 111.169 148.915C120.957 139.999 132.501 139.273 142.45 150.858Z" fill="#FAF0C5"/>
<path d="M150.175 152.956C148.523 146.874 138.371 146.029 137.752 156.636C139.475 158.444 140.475 156.618 140.475 156.618C140.475 156.618 141.041 152.747 143.454 151.969C146.447 151.004 146.919 153.151 147.873 153.961C148.9 154.836 150.345 154.392 150.175 152.956Z" fill="#FCD405"/>
<path d="M71.9824 127.05C72.0685 127.024 72.1458 126.977 72.2187 126.909C82.9406 116.401 95.4757 115.553 95.5994 115.544C95.9329 115.527 96.1869 115.202 96.1692 114.82C96.1537 114.442 95.871 114.149 95.5398 114.169C95.4117 114.175 82.4703 115.052 71.4391 125.858C71.1873 126.107 71.1564 126.538 71.3728 126.832C71.5274 127.042 71.7659 127.117 71.9824 127.05Z" fill="#BCAD75"/>
<path d="M78.2638 132.034C78.3477 132.007 78.4294 131.961 78.5001 131.892C89.2221 121.387 101.757 120.539 101.883 120.53C102.212 120.51 102.468 120.185 102.451 119.805C102.433 119.426 102.152 119.132 101.821 119.15C101.691 119.158 88.7517 120.037 77.7205 130.843C77.4688 131.088 77.4356 131.526 77.6543 131.813C77.8089 132.023 78.0474 132.1 78.2638 132.034Z" fill="#BCAD75"/>
<path d="M84.5443 137.016C84.6282 136.989 84.71 136.943 84.7784 136.874C95.5026 126.371 108.035 125.521 108.159 125.512C108.493 125.492 108.749 125.167 108.731 124.788C108.713 124.408 108.431 124.116 108.1 124.134C107.971 124.14 95.0322 125.017 84.001 135.825C83.7493 136.073 83.7162 136.508 83.9348 136.797C84.0872 137.007 84.3279 137.082 84.5443 137.016Z" fill="#BCAD75"/>
<path d="M90.8252 141.998C90.9092 141.974 90.9887 141.928 91.0593 141.857C101.781 131.354 114.316 130.503 114.44 130.494C114.776 130.477 115.03 130.15 115.01 129.77C114.997 129.39 114.712 129.099 114.38 129.116C114.252 129.125 101.311 130 90.2797 140.808C90.0302 141.055 89.9993 141.488 90.2135 141.777C90.3681 141.989 90.6088 142.067 90.8252 141.998Z" fill="#BCAD75"/>
<path d="M97.1055 146.983C97.1894 146.956 97.2689 146.91 97.3396 146.841C108.064 136.334 120.597 135.486 120.723 135.477C121.054 135.457 121.308 135.132 121.292 134.752C121.275 134.373 120.994 134.081 120.661 134.099C120.53 134.108 107.591 134.984 96.56 145.792C96.3083 146.038 96.2796 146.473 96.4938 146.762C96.6484 146.972 96.8869 147.049 97.1055 146.983Z" fill="#BCAD75"/>
<path d="M107.906 115.574C107.987 115.547 108.065 115.499 108.131 115.43C118.246 104.966 130.33 103.772 130.449 103.758C130.77 103.73 131.008 103.412 130.984 103.043C130.96 102.676 130.679 102.402 130.359 102.429C130.235 102.442 117.76 103.675 107.356 114.441C107.117 114.686 107.097 115.105 107.314 115.379C107.466 115.578 107.7 115.642 107.906 115.574Z" fill="#BCAD75"/>
<path d="M114.08 120.198C114.164 120.17 114.239 120.121 114.306 120.053C124.422 109.589 136.507 108.394 136.626 108.383C136.946 108.355 137.185 108.034 137.161 107.668C137.134 107.303 136.856 107.027 136.536 107.056C136.412 107.067 123.937 108.302 113.53 119.063C113.292 119.308 113.274 119.73 113.488 120.004C113.643 120.201 113.875 120.267 114.08 120.198Z" fill="#BCAD75"/>
<path d="M120.259 124.823C120.341 124.792 120.416 124.746 120.485 124.675C130.599 114.211 142.682 113.019 142.803 113.005C143.123 112.979 143.36 112.659 143.335 112.29C143.311 111.923 143.033 111.649 142.713 111.678C142.589 111.689 130.113 112.922 119.707 123.688C119.469 123.935 119.451 124.352 119.665 124.626C119.82 124.823 120.052 124.891 120.259 124.823Z" fill="#BCAD75"/>
<path d="M126.436 129.446C126.518 129.415 126.593 129.368 126.659 129.298C136.776 118.836 148.858 117.639 148.98 117.63C149.3 117.599 149.539 117.281 149.512 116.913C149.486 116.548 149.207 116.274 148.889 116.299C148.766 116.314 136.29 117.546 125.884 128.31C125.646 128.556 125.628 128.977 125.842 129.251C125.995 129.448 126.229 129.516 126.436 129.446Z" fill="#BCAD75"/>
<path d="M132.614 134.07C132.693 134.041 132.77 133.991 132.837 133.924C142.951 123.461 155.036 122.266 155.157 122.255C155.475 122.226 155.714 121.904 155.689 121.537C155.663 121.171 155.387 120.897 155.067 120.925C154.943 120.936 142.468 122.169 132.061 132.933C131.825 133.18 131.805 133.602 132.017 133.874C132.172 134.072 132.406 134.139 132.614 134.07Z" fill="#BCAD75"/>
<path d="M168.372 134.746C160.985 134.037 152.297 131.765 146.652 146.21C153.982 132.833 168.372 134.746 168.372 134.746Z" fill="#AEA36F"/>
<path d="M176.071 137.666C176.071 137.666 160.824 137.099 147.851 147.779C159.271 140.953 176.071 137.666 176.071 137.666Z" fill="#AEA36F"/>
<path d="M136.01 147.936C132.618 145.333 126.204 141.51 112.956 150.679C128.965 143.683 136.01 147.936 136.01 147.936Z" fill="#AEA36F"/>
<path d="M134.34 151.446C134.34 151.446 120.928 150.766 104.487 161.545C118.57 154.906 134.34 151.446 134.34 151.446Z" fill="#AEA36F"/>
<path d="M52.897 126.363C53.9617 128.721 54.0876 134.192 51.8813 139.342C61.2915 145.324 95.2242 168.705 95.2242 168.705C95.2242 168.705 98.486 165.682 98.8327 155.797C87.7596 147.102 52.897 126.363 52.897 126.363Z" fill="#BCAD75"/>
<path d="M93.888 155.637C93.888 155.637 69.858 137.897 58.5221 133.679C66.8391 138.906 93.888 155.637 93.888 155.637Z" fill="#9E9465"/>
<path d="M78.515 150.267C78.515 150.267 62.5966 139.88 56.4438 137.213C65.7436 143.791 78.515 150.267 78.515 150.267Z" fill="#9E9465"/>
<path d="M89.6126 160.254C89.6126 160.254 76.3929 150.753 68.1488 147.045C72.9367 151.089 89.6126 160.254 89.6126 160.254Z" fill="#9E9465"/>
<path d="M98.833 155.796C95.0212 151.574 59.8695 128.348 52.8972 126.362C59.472 129.98 98.833 155.796 98.833 155.796Z" fill="#FAF5DC"/>
<path d="M164.832 139.63C164.832 139.63 171.084 146.304 174.869 157.302C172.096 154.787 170.084 153.075 165.919 149.959C165.919 149.959 167.286 159.714 166.976 164.266C162.997 154.542 156.738 145.372 155.086 143.829C160.068 139.869 164.832 139.63 164.832 139.63Z" fill="#0A92DB"/>
<path d="M98.8334 155.797C97.5481 157.404 97.621 163.233 95.2249 168.705C99.4341 164.136 98.8334 155.797 98.8334 155.797Z" fill="#FAF0C5"/>
<path d="M94.7162 96.219C94.7162 96.219 109.305 115.05 115.442 109.136C116.847 104.134 106.902 98.2264 106.902 98.2264C106.902 98.2264 101.889 95.0374 95.9795 87.2262C92.4173 82.5178 94.7162 96.219 94.7162 96.219Z" fill="#EAA376"/>
<path d="M18.173 85.9087C18.173 85.9087 17.3974 70.1913 14.6444 68.9523C11.8893 67.7134 8.37241 68.2456 8.37241 68.2456C8.37241 68.2456 0.420697 67.6957 0.0253867 69.4293C-0.372574 71.1586 3.99483 72.1126 7.04955 74.0163C9.07513 75.2729 10.633 75.0079 10.633 79.7759C10.633 82.5055 10.1237 87.4414 10.1237 87.4414C10.1237 87.4414 17.2927 88.4374 18.173 85.9087Z" fill="#FABD1F"/>
<path d="M10.4903 68.1322C11.7125 68.1587 13.273 68.3376 14.6444 68.9515C15.5088 69.3424 16.1819 71.16 16.6943 73.4744C15.8951 73.9515 14.0444 73.5208 12.4126 72.4674C10.2799 71.0937 9.34261 69.1569 10.4903 68.1322Z" fill="#FEE79C"/>
<path d="M2.77912 71.9111C1.07752 71.1227 -0.197863 70.3961 0.0254098 69.4289C0.181767 68.7442 1.51479 68.4174 3.0682 68.2716C2.869 68.5212 1.77428 70.0494 2.77912 71.9111Z" fill="#FEE79C"/>
<path d="M31.7647 82.0745C31.7647 82.0745 37.8169 67.5408 35.8618 65.2418C33.9047 62.9428 30.4977 61.9114 30.4977 61.9114C30.4977 61.9114 23.5524 57.9981 22.4497 59.3938C21.3506 60.7874 25.8207 64.3937 26.8255 66.5514C27.8397 68.7134 27.4856 71.0014 26.8127 73.6449C25.9324 77.1011 23.7481 80.4557 23.7481 80.4557C23.7481 80.4557 29.8794 83.9826 31.7647 82.0745Z" fill="#FABD1F"/>
<path d="M22.4494 59.3937C22.9591 58.751 24.7048 59.2347 26.4495 59.9458C25.5913 60.2815 24.0421 61.0787 23.7378 62.5518C22.6866 61.2576 21.9176 60.0695 22.4494 59.3937Z" fill="#FEE79C"/>
<path d="M32.4942 62.7369C33.579 63.2802 34.8985 64.1106 35.8614 65.2413C36.5369 66.0363 36.2567 68.3022 35.5955 70.917C34.5765 70.7514 33.0953 70.3318 31.7879 69.2894C29.6791 67.5999 30.9631 63.7617 32.4942 62.7369Z" fill="#FEE79C"/>
<path d="M49.8477 88.6752C49.8477 88.6752 44.9235 85.2742 39.057 85.1505C33.193 85.0291 30.8832 86.0538 30.8832 86.0538C30.8832 86.0538 33.5569 80.6674 34.3056 77.0522C31.9366 77.0522 23.4089 76.3698 23.4089 76.3698C20.9914 84.9761 21.0828 84.8723 19.4905 89.8214C19.2334 86.8444 18.2982 79.9474 18.2982 79.9474C18.2982 79.9474 12.1311 80.9236 8.76347 80.7977C7.7626 83.9182 5.72575 101.659 8.42513 104.397C13.1892 109.234 20.2566 111.272 27.1127 113.054C35.9796 115.362 42.7902 115.296 42.7902 115.296L49.8477 88.6752Z" fill="#F142AA"/>
<path d="M36.7457 110.883C36.8587 105.828 36.8587 95.7819 44.8634 85.0533C47.7578 84.7154 51.0051 88.1871 55.8809 87.9508C58.9904 87.7962 64.1736 84.9628 66.9165 82.1338C72.3647 76.5111 75.9777 78.1696 75.9777 78.1696C78.3495 77.8671 89.405 81.2415 96.2799 86.5396C100.854 94.0085 99.1332 112.129 64.4209 116.005C60.0769 116.488 59.1185 117.623 54.1296 116.625C49.1368 115.634 45.1861 117.798 40.9446 117.917C36.7088 118.043 36.6536 115.033 36.7457 110.883Z" fill="#0A92DB"/>
<path d="M23.4088 76.3702C23.4088 76.3702 31.9365 77.0526 34.3055 77.0526C33.5568 80.6678 30.883 86.0542 30.883 86.0542C29.3252 86.8868 23.0663 88.8015 19.4904 89.8218C21.0826 84.8727 20.9912 84.9765 23.4088 76.3702Z" fill="#EE1997"/>
<path d="M92.6492 87.406C93.9257 89.1948 92.393 93.4085 86.1343 93.0264C79.8756 92.64 75.1495 85.7474 76.6866 82.2956C78.2171 78.8527 92.6492 87.406 92.6492 87.406Z" fill="#FABD99"/>
<path d="M92.6494 87.4051C93.0028 87.8998 93.1309 88.5844 93.0116 89.2999C91.9008 90.1656 89.8712 90.1789 87.4132 89.7018C83.4535 88.9399 79.9929 88.1648 76.7089 85.5765C76.3247 84.3685 76.2783 83.209 76.6868 82.2947C78.2173 78.8518 92.6494 87.4051 92.6494 87.4051Z" fill="#EAA376"/>
<path d="M70.2556 93.2099C73.8133 101.255 83.8065 117.64 103.563 119.435C106.392 118.298 111.637 118.09 111.743 119.451C111.794 120.12 109.433 120.8 109.433 120.8C109.433 120.8 116.73 125.722 115.866 126.758C115.005 127.798 111.966 125.018 111.966 125.018C111.966 125.018 115.235 128.43 114.254 129.406C113.278 130.385 109.7 127.551 109.7 127.551C109.7 127.551 113.093 130.729 111.949 131.462C110.8 132.202 108.74 129.888 108.74 129.888C108.74 129.888 109.672 132.341 108.086 131.933C106.503 131.533 100.962 125.086 100.962 125.086C100.962 125.086 91.525 126.681 81.5296 118.81C71.828 111.176 65.6178 103.782 62.833 97.1343C60.4214 91.368 68.4866 89.217 70.2556 93.2099Z" fill="#FABD99"/>
<path d="M72.3667 19.0144C71.2956 13.0913 59.1978 5.08134 48.118 5.52523C33.5483 6.10826 25.3305 16.6204 27.2527 31.0967C29.1751 45.5775 26.7189 50.1688 20.7124 48.6295C26.3128 54.9302 45.9509 56.2707 50.0387 46.1539C54.125 36.0348 72.3667 19.0144 72.3667 19.0144Z" fill="#F2541B"/>
<path d="M84.3059 13.5049C85.3792 7.58408 97.4748 -0.428139 108.557 0.0179634C123.126 0.60099 131.343 11.1109 129.422 25.5895C127.499 40.068 129.954 44.6593 135.964 43.1201C130.361 49.4229 110.723 50.7635 106.635 40.6444C102.55 30.5275 84.3059 13.5049 84.3059 13.5049Z" fill="#F2541B"/>
<path d="M54.2491 61.2642C44.9595 51.3549 42.1727 29.0585 61.6827 13.5752C81.1899 -1.9082 124.853 8.00105 122.066 47.3289C93.2678 48.5678 54.2491 61.2642 54.2491 61.2642Z" fill="#F46D1A"/>
<path d="M56.0111 57.1147C56.0133 76.9068 74.1424 90.0779 93.2012 90.0757C112.258 90.0713 125.018 76.8957 125.012 57.1015C125.009 37.3117 109.561 21.9829 90.5047 21.9873C71.4459 21.9895 56.0067 37.3271 56.0111 57.1147Z" fill="#FABD99"/>
<path d="M55.5409 53.2812C76.806 47.4996 85.9599 35.733 93.3935 21.8993C102.062 32.2216 116.584 44.0588 121.743 41.168C114.517 19.4899 102.062 11.1619 90.7081 11.9901C70.8874 13.4344 48.9353 28.2309 55.5409 53.2812Z" fill="#F46D1A"/>
<path d="M90.9134 19.421C90.9134 19.421 79.7652 36.3509 60.978 39.0342C71.9208 34.286 90.9134 19.421 90.9134 19.421Z" fill="#F2541B"/>
<path d="M86.7835 15.499C86.7835 15.499 72.1261 26.0288 59.739 26.0288C72.3337 20.8677 86.7835 15.499 86.7835 15.499Z" fill="#F2541B"/>
<path d="M96.9004 20.2466C96.9004 20.2466 106.604 31.8078 116.927 32.8413C109.082 29.3299 96.9004 20.2466 96.9004 20.2466Z" fill="#F2541B"/>
<path d="M92.9784 13.4337C92.9784 13.4337 102.682 19.2154 108.669 17.5635C99.999 16.943 92.9784 13.4337 92.9784 13.4337Z" fill="#F2541B"/>
<path d="M57.9572 57.4342C57.9572 57.4342 57.4934 53.4148 52.6421 52.717C47.5265 51.9838 45.3052 58.6621 47.9503 62.7521C50.5964 66.8377 56.3075 67.0608 58.167 63.9623L57.9572 57.4342Z" fill="#FABD99"/>
<path d="M51.5924 54.4449C54.9492 53.9745 57.4315 59.9417 52.7993 62.8281C54.8609 58.7513 53.1672 57.2651 50.6991 59.1577C50.7755 57.8061 51.639 56.9824 53.6441 57.2054C53.5537 55.41 51.5924 54.4449 51.5924 54.4449Z" fill="#D37658"/>
<path d="M95.891 54.0128C96.2002 56.0202 101.379 58.3766 99.4333 60.7949C98.2275 62.2922 95.4979 61.8858 95.5244 58.847C95.5398 57.0869 95.891 54.0128 95.891 54.0128Z" fill="#F36457"/>
<path d="M83.8375 66.8119C83.8176 68.7796 80.8252 70.3498 77.1459 70.3189C73.4689 70.2858 70.5007 68.6626 70.5184 66.6948C70.5361 64.7249 73.5307 63.1547 77.21 63.1856C80.887 63.2188 83.8529 64.842 83.8375 66.8119Z" fill="#F36457"/>
<path d="M121.66 67.1429C121.644 69.1128 118.65 70.683 114.97 70.6499C111.291 70.619 108.325 68.9958 108.343 67.0258C108.36 65.0559 111.355 63.4857 115.032 63.5188C118.711 63.552 121.677 65.173 121.66 67.1429Z" fill="#F36457"/>
<path d="M113.53 43.331C110.147 41.8757 108.908 45.641 111.238 45.9569C113.735 46.2903 115.708 47.4763 116.05 47.2775C116.81 46.8358 115.434 44.1459 113.53 43.331Z" fill="#C33C16"/>
<path d="M80.4102 44.1711C83.9901 43.3164 84.5687 47.2364 82.2211 47.1525C79.7013 47.0531 77.5569 47.8857 77.2521 47.6295C76.5785 47.0664 78.3939 44.6503 80.4102 44.1711Z" fill="#C33C16"/>
<path d="M106.002 69.1533C103.323 67.3601 102.311 70.178 96.3065 70.1604C90.1781 70.1383 89.3257 67.19 86.3752 69.4757C83.9658 71.3397 86.0218 81.9137 96.068 81.8187C106.187 81.7171 108.552 70.8582 106.002 69.1533Z" fill="#4E1F22"/>
<path d="M89.1512 79.5987C90.8164 80.9392 93.0911 81.8469 96.0681 81.8182C98.8551 81.7917 101.053 80.9459 102.724 79.7003C101.022 79.1239 98.7381 78.7264 95.7876 78.7198C92.9741 78.7131 90.7877 79.0665 89.1512 79.5987Z" fill="#EE5B63"/>
<path d="M105.023 68.6717C102.974 68.049 101.525 70.1757 96.3063 70.1602C91.0237 70.1426 89.6611 67.9518 87.4968 68.8087C87.5322 71.6774 91.9822 73.7931 96.2268 73.7534C100.436 73.7114 105.058 71.5118 105.023 68.6717Z" fill="white"/>
<path d="M83.7315 53.5784C84.9991 56.9087 83.4775 60.5835 80.3349 61.7827C77.1879 62.9797 73.608 61.2505 72.3382 57.9179C71.0683 54.581 72.5921 50.9106 75.7347 49.7114C78.884 48.5144 82.4639 50.2458 83.7315 53.5784Z" fill="white"/>
<path d="M82.0687 56.3745C82.8527 58.4284 81.9141 60.6942 79.9751 61.4341C78.0339 62.1717 75.8255 61.1072 75.0437 59.0512C74.2619 56.9929 75.1983 54.7292 77.1395 53.9894C79.0807 53.2518 81.2869 54.3185 82.0687 56.3745Z" fill="#231F20"/>
<path d="M77.9718 56.6327C77.9585 57.2775 77.455 57.7855 76.8499 57.7722C76.2448 57.759 75.7655 57.2311 75.7766 56.5885C75.7898 55.948 76.2911 55.4379 76.894 55.4445C77.5014 55.4622 77.985 55.9922 77.9718 56.6327Z" fill="white"/>
<path d="M81.19 59.3697C81.1856 59.7694 80.872 60.083 80.4943 60.0786C80.1211 60.0719 79.8208 59.7407 79.8274 59.341C79.8406 58.9456 80.1476 58.6276 80.5252 58.6365C80.9007 58.6431 81.1988 58.9721 81.19 59.3697Z" fill="white"/>
<path d="M71.4991 52.9961C71.4991 52.9961 76.3864 47.3447 83.0714 51.3972C76.53 44.2816 71.4991 52.9961 71.4991 52.9961Z" fill="#6D3A2C"/>
<path d="M108.44 53.5784C107.172 56.9087 108.694 60.5835 111.838 61.7827C114.983 62.9797 118.565 61.2505 119.833 57.9179C121.103 54.581 119.579 50.9106 116.436 49.7114C113.287 48.5144 109.709 50.2458 108.44 53.5784Z" fill="white"/>
<path d="M111.145 56.3745C110.363 58.4284 111.302 60.6942 113.241 61.4341C115.18 62.1717 117.388 61.1072 118.172 59.0512C118.954 56.9929 118.015 54.7292 116.076 53.9894C114.135 53.2518 111.929 54.3185 111.145 56.3745Z" fill="#231F20"/>
<path d="M115.244 56.6327C115.257 57.2775 115.761 57.7855 116.366 57.7722C116.971 57.759 117.448 57.2311 117.439 56.5885C117.426 55.948 116.925 55.4379 116.322 55.4445C115.714 55.4622 115.231 55.9922 115.244 56.6327Z" fill="white"/>
<path d="M112.024 59.3697C112.03 59.7694 112.342 60.083 112.721 60.0786C113.095 60.0719 113.395 59.7407 113.386 59.341C113.375 58.9456 113.068 58.6276 112.691 58.6365C112.315 58.6431 112.015 58.9721 112.024 59.3697Z" fill="white"/>
<path d="M120.674 52.9961C120.674 52.9961 115.785 47.3447 109.1 51.3972C115.641 44.2816 120.674 52.9961 120.674 52.9961Z" fill="#6D3A2C"/>
<path d="M118.305 73.6263C118.305 73.6263 119.067 70.5786 121.025 71.557C122.991 72.5397 122.116 75.3731 119.937 75.6978C117.761 76.0224 118.305 73.6263 118.305 73.6263Z" fill="#EAA376"/>
<path d="M106.628 101.286C106.123 96.4251 106.82 88.7949 109.917 82.015C107.958 81.4718 109.263 79.292 110.352 78.9674C108.285 77.9869 110.246 75.9131 112.205 75.9131C111.661 74.1729 113.402 73.5214 115.581 74.2833C115.581 72.5408 117.542 72.1036 119.828 74.1729C122.116 76.24 119.285 82.015 115.581 84.0866C114.817 85.7186 113.413 89.7843 115.559 99.8703C116.473 104.168 117.412 109.78 114.033 110.329C114.033 110.329 107.755 112.052 106.628 101.286Z" fill="#FABD99"/>
<path d="M117.543 77.7656C117.651 77.7656 117.748 77.6817 117.757 77.5669C117.987 74.9278 115.677 74.0864 115.654 74.0797C115.542 74.0378 115.42 74.0974 115.378 74.2122C115.336 74.3227 115.398 74.4441 115.511 74.4839C115.593 74.517 117.529 75.2281 117.324 77.5315C117.315 77.6486 117.404 77.7546 117.523 77.7656H117.543Z" fill="#CE6748"/>
<path d="M114.382 77.6582C114.405 77.6582 114.422 77.656 114.442 77.6494C114.557 77.6185 114.623 77.4992 114.59 77.3844C114.115 75.717 112.223 75.7015 112.205 75.7015C112.088 75.7015 111.989 75.7943 111.989 75.9135C111.989 76.035 112.088 76.1322 112.205 76.1322C112.267 76.1322 113.793 76.1543 114.177 77.5014C114.204 77.5964 114.29 77.6582 114.382 77.6582Z" fill="#CE6748"/>
<path d="M110.352 79.1797C110.403 79.1797 110.45 79.1664 110.492 79.1355C110.533 79.0936 111.576 78.2654 112.517 78.9257C112.614 78.992 112.749 78.9721 112.819 78.8705C112.885 78.7733 112.863 78.6408 112.766 78.5702C111.797 77.8966 110.675 78.4244 110.218 78.802C110.125 78.8749 110.112 79.0118 110.187 79.1024C110.229 79.1554 110.293 79.1797 110.352 79.1797Z" fill="#CE6748"/>
<path d="M111.072 82.728C111.109 82.728 111.149 82.728 111.189 82.7214C111.712 82.6816 112.185 82.3791 112.598 81.8159C112.668 81.7188 112.646 81.5863 112.551 81.5156C112.454 81.4449 112.319 81.4626 112.249 81.562C111.913 82.0147 111.549 82.2598 111.156 82.293C110.557 82.3393 110.078 81.8689 110.073 81.8601C109.987 81.7806 109.85 81.7806 109.767 81.8601C109.683 81.9462 109.678 82.0832 109.767 82.1693C109.789 82.1936 110.332 82.728 111.072 82.728Z" fill="#CE6748"/>
</svg>
