<svg width="62" height="56" viewBox="0 0 62 56" fill="none" xmlns="http://www.w3.org/2000/svg">
<path fill-rule="evenodd" clip-rule="evenodd" d="M59.6988 20.648C60.2427 20.9642 60.682 21.4295 60.9575 22.0097C61.3239 22.772 61.3729 23.6331 61.0902 24.4284C60.7376 25.4368 59.9044 26.1757 58.9051 26.4374C58.9661 27.5392 58.4007 28.901 57.6704 30.1052L58.1718 29.883C58.6906 29.6543 59.2924 29.8878 59.5213 30.407C59.7502 30.9244 59.5165 31.5298 58.9984 31.7591L54.4532 33.7712C54.4298 33.7825 54.4041 33.7873 54.3808 33.7945C54.74 37.8318 54.6259 41.0995 54.6187 41.2445C54.605 41.6307 54.3737 41.9768 54.021 42.1379C53.886 42.199 53.7407 42.2295 53.5961 42.2295C53.4096 42.2295 53.2274 42.166 53.0642 42.063C53.3045 45.338 53.2226 47.9344 53.2202 48.0584C53.2064 48.4561 52.9638 48.8092 52.5992 48.9662C52.2352 49.1201 51.8103 49.0525 51.5163 48.7884C51.5067 48.7812 51.126 48.4537 50.5026 48.0914L50.0221 53.946H51.4039C51.9687 53.946 52.4289 54.4066 52.4289 54.9731C52.4289 55.539 51.9687 55.9977 51.4039 55.9977H43.5715C43.0062 55.9977 42.549 55.539 42.549 54.9731C42.549 54.4066 43.0086 53.946 43.5715 53.946H44.9533L44.4728 48.0914C43.8512 48.4537 43.4711 48.7788 43.4616 48.7884C43.2703 48.9589 43.0277 49.0476 42.7802 49.0476C42.6446 49.0476 42.5089 49.0195 42.3786 48.9639C42.0117 48.8092 41.7714 48.4537 41.7576 48.056C41.7529 47.9321 41.671 45.3356 41.9136 42.0678C41.6244 42.2457 41.267 42.2786 40.9544 42.1355C40.6042 41.9744 40.3729 41.6283 40.3567 41.2421C40.3239 40.3181 40.2073 35.9976 40.8355 31.3543L38.5195 35.4856C38.4191 35.6892 38.253 35.8623 38.0312 35.9653C37.8938 36.0257 37.7491 36.0563 37.6062 36.0563C37.366 36.0563 37.1349 35.9605 36.9507 35.8036C36.9411 35.7964 36.9339 35.7922 36.9273 35.785C36.8825 35.7449 36.8407 35.703 36.8036 35.6515C36.7845 35.6281 36.7706 35.6 36.7541 35.5766C36.7284 35.5371 36.6959 35.5018 36.6775 35.4575L34.2187 30.0794C35.0524 36.6904 34.9193 43.2493 34.8822 44.5565C34.8703 44.9685 34.6114 45.3356 34.2259 45.4829C33.8386 45.6302 33.4018 45.532 33.1172 45.2326C33.1125 45.2278 33.0259 45.1392 32.8693 44.9967L31.7235 53.946H33.9647C34.532 53.946 34.9891 54.4047 34.9891 54.9706C34.9891 55.539 34.5294 55.9977 33.9647 55.9977H22.3915C21.8268 55.9977 21.369 55.539 21.369 54.9706C21.369 54.4047 21.8291 53.946 22.3915 53.946H24.6377L23.4447 44.6595C23.0504 44.9871 22.8214 45.2236 22.8141 45.2326C22.6182 45.441 22.3474 45.5506 22.072 45.5506C21.9505 45.5506 21.8245 45.5296 21.708 45.4853C21.32 45.3356 21.0613 44.9709 21.0494 44.5565C21.0122 43.2607 20.8813 36.7838 21.6961 30.2202L19.2307 35.4688C19.0556 35.8413 18.6891 36.0587 18.3036 36.0587C18.2151 36.0587 18.1267 36.0425 18.0401 36.0185C17.9749 36.0305 17.914 36.0443 17.8488 36.0443C17.7109 36.0443 17.5708 36.0185 17.4378 35.9605L13.058 34.0281C14.989 39.0294 14.8181 46.9919 14.7835 48.1543C14.769 48.5589 14.5193 48.9189 14.1433 49.071C14.0196 49.1225 13.8893 49.1458 13.7584 49.1458C13.499 49.1458 13.2427 49.0476 13.0484 48.8583C13.0442 48.856 12.7519 48.5919 12.2899 48.2902L11.7294 53.9483H13.1913C13.7584 53.9483 14.2162 54.4066 14.2162 54.9731C14.2162 55.5413 13.756 56 13.1913 56H5.59917C5.03372 56 4.57657 55.5413 4.57657 54.9731C4.57657 54.4066 5.03629 53.9483 5.59917 53.9483H7.06039L6.49984 48.2878C6.04012 48.5896 5.74858 48.8537 5.74386 48.8583C5.4516 49.1412 5.02248 49.2256 4.64638 49.071C4.27284 48.9189 4.02302 48.5589 4.00879 48.1543C3.98309 47.3075 3.88741 42.8493 4.58314 38.5569L1.84693 42.2876C1.64618 42.5589 1.33611 42.7038 1.02282 42.7038C0.810589 42.7038 0.597941 42.6409 0.416312 42.505C-0.0391656 42.1708 -0.13491 41.5301 0.198704 41.0738L6.31821 32.7274C6.32473 32.7184 6.33429 32.7113 6.34152 32.7017C6.88527 31.6939 7.55531 30.8962 8.37476 30.4262V29.2447C6.51897 28.7836 5.13664 27.1069 5.13664 25.1068C5.13664 23.5463 5.97689 22.1828 7.22845 21.4391C6.35766 20.7091 5.76956 19.736 6.04741 18.5198C6.17346 17.9677 6.72163 17.6192 7.27262 17.7479C7.82354 17.8743 8.16672 18.424 8.043 18.9761C7.8637 19.7594 9.59579 20.6013 10.5621 20.8774C10.7444 20.9313 10.901 21.0343 11.0225 21.163C12.568 21.8037 13.658 23.3313 13.658 25.1092C13.658 27.1069 12.2756 28.786 10.4199 29.2471V30.428C10.6697 30.5711 10.9076 30.7393 11.1275 30.9382C11.1275 30.9382 11.1275 30.9382 11.1294 30.9382L17.7317 33.8502L23.6408 21.2726C24.4698 18.9522 25.5598 17.0551 26.9888 15.9676C27.033 15.8856 27.0934 15.8131 27.1593 15.7479V14.143C24.481 13.6568 22.4406 11.3082 22.4406 8.48716C22.4406 5.63318 24.5301 3.26365 27.2548 2.81693C29.2511 2.38638 31.6648 1.39473 31.9453 0.660572C32.146 0.131813 32.739 -0.135262 33.2666 0.0683365C33.7914 0.271938 34.058 0.863571 33.857 1.39233C33.4861 2.36062 32.4306 3.10256 31.2729 3.64749C32.8651 4.67207 33.9224 6.45655 33.9224 8.48716C33.9224 11.3082 31.882 13.6568 29.2044 14.143V16.1898C30.4296 17.2377 31.3989 18.8917 32.1575 20.8983C32.2763 20.9947 32.3767 21.1163 32.4467 21.266L37.7001 32.7699L42.6816 23.8906C42.7008 23.8529 42.7288 23.8224 42.7522 23.79C43.6343 21.7241 44.8368 20.0306 46.466 19.1186V19.0108C46.2258 19.0318 45.9831 19.0462 45.7333 19.0462C41.9979 19.0462 37.6135 16.7886 37.3942 16.6742C36.892 16.412 36.6959 15.7946 36.9572 15.2916C37.0552 15.0999 37.2096 14.955 37.387 14.8586C37.546 14.688 37.7556 14.564 38.0055 14.5317C40.5223 14.1921 41.5867 11.6962 41.6339 11.5909C41.6805 11.4765 41.7481 11.3783 41.8276 11.2938C42.2615 8.55003 44.6312 6.44518 47.491 6.44518C50.3466 6.44518 52.7158 8.54764 53.1503 11.2896C53.2321 11.3759 53.2997 11.4741 53.3463 11.5909C53.3905 11.6962 54.4579 14.1921 56.9747 14.5317C57.2221 14.564 57.4343 14.688 57.5909 14.8586C57.7708 14.9526 57.922 15.0999 58.0224 15.2916C58.2818 15.7946 58.0881 16.412 57.5861 16.6742C57.3668 16.7886 52.9799 19.0462 49.2445 19.0462C48.9971 19.0462 48.7545 19.0318 48.5136 19.0108V19.1276C50.2014 20.0749 51.5629 21.9277 52.5663 24.6715C53.3863 24.22 54.2195 23.8811 54.9809 23.7313C54.9295 23.2661 54.9713 22.7912 55.1303 22.3373C55.4453 21.4295 56.1523 20.742 57.0189 20.4217C56.7595 19.5935 56.7667 18.8168 56.7715 18.6599C56.79 18.094 57.2592 17.6306 57.824 17.6683C58.387 17.6845 58.8328 18.1545 58.8167 18.721C58.8071 19.245 58.9751 20.3019 59.4376 20.4869C59.5357 20.5265 59.6193 20.5827 59.6988 20.648ZM28.1818 4.78645C26.1438 4.78645 24.4882 6.44757 24.4882 8.48716C24.4882 10.5291 26.1438 12.1897 28.1818 12.1897C30.2197 12.1897 31.8771 10.5291 31.8771 8.48716C31.8771 6.44757 30.2197 4.78645 28.1818 4.78645ZM51.1846 12.1969C51.1846 10.1549 49.5272 8.49674 47.491 8.49674C45.453 8.49674 43.7957 10.1549 43.7957 12.1969C43.7957 14.2364 45.453 15.8976 47.491 15.8976C49.5272 15.8976 51.1846 14.2364 51.1846 12.1969ZM50.8528 16.8473C52.0996 16.6341 53.3953 16.2275 54.4878 15.8065C53.7921 15.4083 53.2274 14.9125 52.7863 14.4167C52.3751 15.3946 51.7003 16.2317 50.8528 16.8473ZM44.1268 16.8497C43.2817 16.2317 42.6051 15.3946 42.1939 14.4167C41.7505 14.9125 41.1875 15.4083 40.4942 15.8083C41.5867 16.2275 42.8801 16.6365 44.1268 16.8497ZM25.4989 22.1289L25.4641 22.2061C23.5404 27.9183 23.0665 36.9659 23.0688 42.393C24.1243 41.6774 25.5951 40.9121 27.3111 40.6618C27.4299 40.6127 27.5608 40.587 27.6983 40.587H27.8106C27.8596 40.5893 27.9064 40.5917 27.9528 40.5941C27.9946 40.5917 28.0371 40.5894 28.0765 40.5894L28.2374 40.587C28.3826 40.587 28.5175 40.6175 28.6413 40.669C30.3573 40.9289 31.8191 41.6888 32.8674 42.3954C32.8716 35.1227 32.02 21.3409 27.969 17.8036C26.9954 18.6527 26.2112 20.0941 25.5736 21.8882C25.5575 21.9702 25.5365 22.0517 25.4989 22.1289ZM50.8014 25.8344C49.9474 23.2918 48.831 21.6331 47.4797 20.8965C43.3008 23.2026 42.3924 33.7029 42.3762 39.3684C43.5739 38.7348 45.3412 38.033 47.3954 37.9581L47.5448 37.9557C49.6157 38.033 51.3925 38.7324 52.592 39.3636C52.5855 38.1917 52.543 36.5425 52.4008 34.7041C51.9011 34.8586 51.4015 34.9431 50.9138 34.9431C50.1757 34.9431 49.4591 34.7652 48.7891 34.4047C48.7329 34.3742 48.6815 34.3395 48.6325 34.2993L48.1753 33.9299C48.0935 33.8646 48.0259 33.7897 47.9673 33.7053C46.7158 31.846 47.1551 29.5136 49.1722 27.3081C49.6253 26.8117 50.1877 26.3093 50.8014 25.8344ZM57.7427 24.4356C58.326 24.641 58.9637 24.3158 59.1621 23.7523C59.2601 23.4691 59.2434 23.1679 59.1131 22.8984C58.9846 22.6295 58.7605 22.4283 58.4778 22.3301C58.3613 22.2882 58.2375 22.2672 58.1114 22.2672C57.6399 22.2672 57.2173 22.569 57.0607 23.0158C56.9627 23.296 56.9813 23.5978 57.1098 23.8667C57.2383 24.1361 57.4624 24.3374 57.7427 24.4356ZM9.3973 22.8918C8.17634 22.8918 7.18177 23.8858 7.18177 25.1092C7.18177 26.3326 8.17634 27.3267 9.3973 27.3243C10.6183 27.3243 11.6106 26.3326 11.6106 25.1092C11.6106 23.8858 10.6183 22.8918 9.3973 22.8918ZM53.7808 31.6022C55.9425 29.7639 57.0512 27.0482 56.8528 26.4656C56.7996 26.3859 56.7691 26.3021 56.7386 26.2176C56.4655 26.0847 56.2085 25.9254 55.9868 25.7242C55.9682 25.7146 55.9473 25.7104 55.9288 25.6985C55.2959 25.4835 52.0553 26.8518 50.2391 29.2213C49.284 30.4657 49.067 31.5466 49.59 32.44L49.8374 32.6388C51.2545 33.343 52.7582 32.4705 53.7808 31.6022ZM8.95629 45.3452H9.79421C10.9501 45.3967 11.9677 45.7733 12.7568 46.1871C12.7125 40.9217 11.8627 33.8131 9.51385 32.2807C9.47434 32.2855 9.43675 32.2927 9.3973 32.2927C9.35786 32.2927 9.32026 32.2855 9.28082 32.2807C8.82767 32.5753 8.43076 33.0783 8.08293 33.7382C8.07103 33.764 8.05723 33.7897 8.043 33.8179C6.62589 36.594 6.07305 41.9744 6.03546 46.1847C6.8178 45.7709 7.82354 45.3967 8.95629 45.3452ZM47.4073 45.0973L47.5334 45.0949C48.9852 45.1554 50.251 45.635 51.1869 46.126C51.1726 44.8236 51.1122 42.9637 50.9162 40.9756C50.9138 40.9313 50.9138 40.8888 50.9162 40.8468L50.9186 40.8331C49.9916 40.4235 48.8124 40.054 47.5077 40.0073H47.433C46.1558 40.054 44.9976 40.4187 44.0802 40.8235C43.8728 42.8703 43.8094 44.7883 43.7957 46.1236C44.7244 45.6326 45.9759 45.1554 47.4073 45.0973ZM26.7015 53.9483H29.6615L30.9829 43.6421C30.138 43.1673 29.0968 42.7439 27.9505 42.6505C26.993 42.7277 26.1085 43.0385 25.3519 43.42L26.7015 53.9483ZM47.0105 53.9483H47.9697L48.5184 47.2913C48.1915 47.2141 47.8484 47.1626 47.491 47.1458H47.4492C47.1061 47.1626 46.7768 47.2141 46.4618 47.2866L47.0105 53.9483ZM9.14264 53.9483H9.67515L10.3172 47.4668C10.1306 47.4315 9.94362 47.4033 9.74753 47.3943H9.00279C8.82301 47.4033 8.64789 47.4315 8.4775 47.4644L9.14264 53.9483Z" fill="#546223"/>
</svg>
