<svg width="198" height="56" viewBox="0 0 198 56" fill="none" xmlns="http://www.w3.org/2000/svg">
<path fill-rule="evenodd" clip-rule="evenodd" d="M59.6988 20.648C60.2427 20.9642 60.682 21.4295 60.9575 22.0097C61.3239 22.772 61.3729 23.6331 61.0902 24.4284C60.7376 25.4368 59.9044 26.1757 58.9051 26.4374C58.9661 27.5392 58.4007 28.901 57.6704 30.1052L58.1718 29.883C58.6906 29.6543 59.2924 29.8878 59.5213 30.407C59.7502 30.9244 59.5165 31.5298 58.9984 31.7591L54.4532 33.7712C54.4298 33.7825 54.4041 33.7873 54.3808 33.7945C54.74 37.8318 54.6259 41.0995 54.6187 41.2445C54.605 41.6307 54.3737 41.9768 54.021 42.1379C53.886 42.199 53.7407 42.2295 53.5961 42.2295C53.4096 42.2295 53.2274 42.166 53.0642 42.063C53.3045 45.338 53.2226 47.9344 53.2202 48.0584C53.2064 48.4561 52.9638 48.8092 52.5992 48.9662C52.2352 49.1201 51.8103 49.0525 51.5163 48.7884C51.5067 48.7812 51.126 48.4537 50.5026 48.0914L50.0221 53.946H51.4039C51.9687 53.946 52.4289 54.4066 52.4289 54.9731C52.4289 55.539 51.9687 55.9977 51.4039 55.9977H43.5715C43.0062 55.9977 42.549 55.539 42.549 54.9731C42.549 54.4066 43.0086 53.946 43.5715 53.946H44.9533L44.4728 48.0914C43.8512 48.4537 43.4711 48.7788 43.4616 48.7884C43.2703 48.9589 43.0277 49.0476 42.7802 49.0476C42.6446 49.0476 42.5089 49.0195 42.3786 48.9639C42.0117 48.8092 41.7714 48.4537 41.7576 48.056C41.7529 47.9321 41.671 45.3356 41.9136 42.0678C41.6244 42.2457 41.267 42.2786 40.9544 42.1355C40.6042 41.9744 40.3729 41.6283 40.3567 41.2421C40.3239 40.3181 40.2073 35.9976 40.8355 31.3543L38.5195 35.4856C38.4191 35.6892 38.253 35.8623 38.0312 35.9653C37.8938 36.0257 37.7491 36.0563 37.6062 36.0563C37.366 36.0563 37.1349 35.9605 36.9507 35.8036C36.9411 35.7964 36.9339 35.7922 36.9273 35.785C36.8825 35.7449 36.8407 35.703 36.8036 35.6515C36.7845 35.6281 36.7706 35.6 36.7541 35.5766C36.7284 35.5371 36.6959 35.5018 36.6775 35.4575L34.2187 30.0794C35.0524 36.6904 34.9193 43.2493 34.8822 44.5565C34.8703 44.9685 34.6114 45.3356 34.2259 45.4829C33.8386 45.6302 33.4018 45.532 33.1172 45.2326C33.1125 45.2278 33.0259 45.1392 32.8693 44.9967L31.7235 53.946H33.9647C34.532 53.946 34.9891 54.4047 34.9891 54.9706C34.9891 55.539 34.5294 55.9977 33.9647 55.9977H22.3915C21.8268 55.9977 21.369 55.539 21.369 54.9706C21.369 54.4047 21.8291 53.946 22.3915 53.946H24.6377L23.4447 44.6595C23.0504 44.9871 22.8214 45.2236 22.8141 45.2326C22.6182 45.441 22.3474 45.5506 22.072 45.5506C21.9505 45.5506 21.8245 45.5296 21.708 45.4853C21.32 45.3356 21.0613 44.9709 21.0494 44.5565C21.0122 43.2607 20.8813 36.7838 21.6961 30.2202L19.2307 35.4688C19.0556 35.8413 18.6891 36.0587 18.3036 36.0587C18.2151 36.0587 18.1267 36.0425 18.0401 36.0185C17.9749 36.0305 17.914 36.0443 17.8488 36.0443C17.7109 36.0443 17.5708 36.0185 17.4378 35.9605L13.058 34.0281C14.989 39.0294 14.8181 46.9919 14.7835 48.1543C14.769 48.5589 14.5193 48.9189 14.1433 49.071C14.0196 49.1225 13.8893 49.1458 13.7584 49.1458C13.499 49.1458 13.2426 49.0476 13.0484 48.8583C13.0442 48.856 12.7519 48.5919 12.2899 48.2902L11.7294 53.9483H13.1913C13.7584 53.9483 14.2162 54.4066 14.2162 54.9731C14.2162 55.5413 13.756 56 13.1913 56H5.59917C5.03372 56 4.57657 55.5413 4.57657 54.9731C4.57657 54.4066 5.03629 53.9483 5.59917 53.9483H7.06039L6.49984 48.2878C6.04012 48.5896 5.74858 48.8537 5.74386 48.8583C5.45161 49.1412 5.02248 49.2256 4.64638 49.071C4.27284 48.9189 4.02302 48.5589 4.00879 48.1543C3.98309 47.3075 3.88741 42.8493 4.58314 38.5569L1.84693 42.2876C1.64618 42.5589 1.33611 42.7038 1.02282 42.7038C0.810589 42.7038 0.597941 42.6409 0.416312 42.505C-0.0391656 42.1708 -0.13491 41.5301 0.198704 41.0738L6.31821 32.7274C6.32473 32.7184 6.33429 32.7113 6.34152 32.7017C6.88527 31.6939 7.55531 30.8962 8.37476 30.4262V29.2447C6.51897 28.7836 5.13664 27.1069 5.13664 25.1068C5.13664 23.5463 5.97689 22.1828 7.22845 21.4391C6.35766 20.7091 5.76956 19.736 6.04741 18.5198C6.17346 17.9677 6.72163 17.6192 7.27262 17.7479C7.82354 17.8743 8.16672 18.424 8.043 18.9761C7.8637 19.7594 9.59579 20.6013 10.5621 20.8774C10.7444 20.9313 10.901 21.0343 11.0225 21.163C12.568 21.8037 13.658 23.3313 13.658 25.1092C13.658 27.1069 12.2756 28.786 10.4199 29.2471V30.428C10.6697 30.5711 10.9076 30.7393 11.1275 30.9382C11.1275 30.9382 11.1275 30.9382 11.1294 30.9382L17.7317 33.8502L23.6408 21.2726C24.4698 18.9522 25.5598 17.0551 26.9889 15.9676C27.033 15.8856 27.0934 15.8131 27.1593 15.7479V14.143C24.481 13.6568 22.4406 11.3082 22.4406 8.48716C22.4406 5.63318 24.5301 3.26365 27.2548 2.81693C29.2511 2.38637 31.6648 1.39473 31.9453 0.660572C32.146 0.131813 32.739 -0.135262 33.2666 0.0683373C33.7914 0.271936 34.058 0.863571 33.857 1.39233C33.4861 2.36062 32.4306 3.10256 31.2729 3.64749C32.8651 4.67207 33.9224 6.45656 33.9224 8.48716C33.9224 11.3082 31.882 13.6568 29.2044 14.143V16.1898C30.4296 17.2377 31.3989 18.8917 32.1575 20.8983C32.2763 20.9947 32.3767 21.1163 32.4467 21.266L37.7001 32.7699L42.6816 23.8906C42.7008 23.8529 42.7288 23.8224 42.7522 23.79C43.6343 21.7241 44.8368 20.0306 46.466 19.1186V19.0108C46.2258 19.0318 45.9831 19.0462 45.7333 19.0462C41.9979 19.0462 37.6135 16.7886 37.3942 16.6742C36.892 16.412 36.6959 15.7946 36.9572 15.2916C37.0552 15.0999 37.2096 14.955 37.387 14.8586C37.546 14.6879 37.7556 14.564 38.0055 14.5317C40.5223 14.1921 41.5867 11.6962 41.6339 11.5909C41.6805 11.4765 41.7481 11.3783 41.8276 11.2938C42.2615 8.55003 44.6312 6.44518 47.491 6.44518C50.3466 6.44518 52.7158 8.54764 53.1503 11.2896C53.2321 11.3759 53.2997 11.4741 53.3463 11.5909C53.3905 11.6962 54.4579 14.1921 56.9747 14.5317C57.2221 14.564 57.4343 14.6879 57.5909 14.8586C57.7708 14.9526 57.922 15.0999 58.0224 15.2916C58.2818 15.7946 58.0881 16.412 57.5861 16.6742C57.3668 16.7886 52.9799 19.0462 49.2445 19.0462C48.9971 19.0462 48.7545 19.0318 48.5136 19.0108V19.1276C50.2014 20.0749 51.5629 21.9277 52.5663 24.6715C53.3863 24.22 54.2195 23.881 54.9809 23.7313C54.9295 23.2661 54.9713 22.7912 55.1303 22.3373C55.4453 21.4295 56.1523 20.742 57.0189 20.4217C56.7595 19.5935 56.7667 18.8168 56.7715 18.6599C56.79 18.094 57.2592 17.6306 57.824 17.6683C58.387 17.6845 58.8328 18.1545 58.8167 18.721C58.8071 19.245 58.9751 20.3019 59.4376 20.4869C59.5357 20.5265 59.6193 20.5827 59.6988 20.648ZM28.1818 4.78645C26.1438 4.78645 24.4882 6.44757 24.4882 8.48716C24.4882 10.5291 26.1438 12.1897 28.1818 12.1897C30.2197 12.1897 31.8771 10.5291 31.8771 8.48716C31.8771 6.44757 30.2197 4.78645 28.1818 4.78645ZM51.1846 12.1969C51.1846 10.1549 49.5272 8.49674 47.491 8.49674C45.453 8.49674 43.7957 10.1549 43.7957 12.1969C43.7957 14.2364 45.453 15.8976 47.491 15.8976C49.5272 15.8976 51.1846 14.2364 51.1846 12.1969ZM50.8528 16.8473C52.0996 16.6341 53.3953 16.2275 54.4878 15.8065C53.7921 15.4083 53.2274 14.9125 52.7863 14.4167C52.3751 15.3946 51.7003 16.2317 50.8528 16.8473V16.8473ZM44.1268 16.8497C43.2817 16.2317 42.6051 15.3946 42.1939 14.4167C41.7505 14.9125 41.1875 15.4083 40.4942 15.8083C41.5867 16.2275 42.8801 16.6365 44.1268 16.8497ZM25.4989 22.1289L25.4641 22.2061C23.5404 27.9183 23.0665 36.9659 23.0688 42.393C24.1243 41.6774 25.5951 40.9121 27.3111 40.6618C27.4299 40.6127 27.5608 40.587 27.6983 40.587H27.8106C27.8596 40.5893 27.9064 40.5917 27.9528 40.5941C27.9946 40.5917 28.0371 40.5894 28.0765 40.5894L28.2374 40.587C28.3826 40.587 28.5175 40.6175 28.6413 40.669C30.3573 40.9289 31.8191 41.6888 32.8674 42.3954C32.8716 35.1227 32.02 21.3409 27.969 17.8036C26.9954 18.6527 26.2112 20.0941 25.5736 21.8882C25.5575 21.9702 25.5365 22.0517 25.4989 22.1289V22.1289ZM50.8014 25.8344C49.9474 23.2918 48.831 21.6331 47.4797 20.8965C43.3008 23.2026 42.3924 33.7029 42.3762 39.3684C43.5739 38.7348 45.3412 38.033 47.3954 37.9581L47.5448 37.9557C49.6157 38.033 51.3925 38.7324 52.592 39.3636C52.5855 38.1917 52.543 36.5425 52.4008 34.7041C51.9011 34.8586 51.4015 34.9431 50.9138 34.9431C50.1757 34.9431 49.4591 34.7652 48.7891 34.4047C48.7329 34.3742 48.6816 34.3395 48.6325 34.2993L48.1753 33.9299C48.0935 33.8646 48.0259 33.7897 47.9673 33.7053C46.7158 31.846 47.1551 29.5136 49.1722 27.3081C49.6253 26.8117 50.1877 26.3093 50.8014 25.8344V25.8344ZM57.7427 24.4356C58.326 24.641 58.9637 24.3158 59.1621 23.7523C59.2601 23.4691 59.2434 23.1679 59.1131 22.8984C58.9846 22.6295 58.7605 22.4283 58.4778 22.3301C58.3613 22.2882 58.2375 22.2672 58.1114 22.2672C57.6399 22.2672 57.2173 22.569 57.0607 23.0157C56.9627 23.296 56.9813 23.5978 57.1098 23.8667C57.2383 24.1361 57.4624 24.3374 57.7427 24.4356V24.4356ZM9.3973 22.8918C8.17634 22.8918 7.18177 23.8858 7.18177 25.1092C7.18177 26.3326 8.17634 27.3267 9.3973 27.3243C10.6183 27.3243 11.6106 26.3326 11.6106 25.1092C11.6106 23.8858 10.6183 22.8918 9.3973 22.8918ZM53.7808 31.6022C55.9425 29.7639 57.0512 27.0482 56.8528 26.4656C56.7996 26.3859 56.7691 26.3021 56.7386 26.2176C56.4655 26.0847 56.2085 25.9254 55.9868 25.7242C55.9682 25.7146 55.9473 25.7104 55.9288 25.6985C55.2959 25.4835 52.0553 26.8518 50.2391 29.2213C49.284 30.4657 49.067 31.5466 49.59 32.44L49.8374 32.6388C51.2545 33.343 52.7582 32.4705 53.7808 31.6022V31.6022ZM8.95629 45.3452H9.79421C10.9501 45.3967 11.9677 45.7733 12.7568 46.1871C12.7125 40.9217 11.8627 33.8131 9.51385 32.2807C9.47434 32.2855 9.43675 32.2927 9.3973 32.2927C9.35786 32.2927 9.32026 32.2855 9.28082 32.2807C8.82767 32.5753 8.43076 33.0783 8.08293 33.7382C8.07103 33.764 8.05723 33.7897 8.043 33.8179C6.62589 36.594 6.07305 41.9744 6.03546 46.1847C6.8178 45.7709 7.82354 45.3967 8.95629 45.3452V45.3452ZM47.4073 45.0973L47.5334 45.0949C48.9852 45.1554 50.251 45.635 51.1869 46.126C51.1726 44.8236 51.1122 42.9637 50.9162 40.9756C50.9138 40.9313 50.9138 40.8888 50.9162 40.8468L50.9186 40.8331C49.9916 40.4235 48.8124 40.054 47.5077 40.0073H47.433C46.1558 40.054 44.9976 40.4187 44.0802 40.8235C43.8728 42.8703 43.8094 44.7883 43.7957 46.1236C44.7244 45.6326 45.9759 45.1554 47.4073 45.0973V45.0973ZM26.7015 53.9483H29.6615L30.9829 43.6421C30.138 43.1673 29.0968 42.7439 27.9505 42.6505C26.993 42.7277 26.1085 43.0385 25.3519 43.42L26.7015 53.9483ZM47.0105 53.9483H47.9697L48.5184 47.2913C48.1915 47.2141 47.8484 47.1626 47.491 47.1458H47.4492C47.1061 47.1626 46.7768 47.2141 46.4618 47.2866L47.0105 53.9483ZM9.14264 53.9483H9.67515L10.3172 47.4668C10.1306 47.4315 9.94362 47.4033 9.74753 47.3943H9.00279C8.82301 47.4033 8.64789 47.4315 8.4775 47.4644L9.14264 53.9483Z" fill="#546223"/>
<path d="M88.5771 15.4201C88.7129 15.4201 88.8386 15.4469 88.9555 15.4974C89.0701 15.5508 89.1748 15.6206 89.2628 15.7062C89.3509 15.7917 89.4227 15.8957 89.4731 16.0133C89.5264 16.1339 89.5531 16.2625 89.5531 16.3959C89.5531 16.6555 89.452 16.8881 89.2492 17.0961C87.8832 18.1897 86.3407 18.7353 84.6256 18.7353C82.5922 18.7353 80.8579 18.0186 79.4222 16.5801C77.99 15.1451 77.272 13.4074 77.272 11.3674C77.272 9.33541 77.99 7.60047 79.4222 6.16542C80.8633 4.72127 82.5976 4.00001 84.6256 4.00001C86.3647 4.00001 87.9362 4.57427 89.3399 5.72407C89.5134 5.88955 89.5987 6.11142 89.5987 6.3953C89.5987 6.53703 89.575 6.66508 89.5243 6.78265C89.476 6.89763 89.4069 7.00165 89.3188 7.09014C89.2279 7.18102 89.1241 7.24809 89.0067 7.2986C88.8863 7.34678 88.758 7.37052 88.6249 7.37052C88.385 7.37052 88.1603 7.27964 87.9528 7.09547C87.4882 6.72653 86.9733 6.44314 86.413 6.2483C85.8524 6.05045 85.2574 5.95395 84.6256 5.95395C83.1312 5.95395 81.8532 6.48297 80.791 7.54723C79.7453 8.59492 79.22 9.87058 79.22 11.3674C79.22 12.8722 79.7453 14.1506 80.791 15.2012C81.8449 16.2572 83.1229 16.7832 84.6256 16.7832C85.9063 16.7832 87.0347 16.3879 88.0088 15.5965C88.1657 15.4846 88.3578 15.4284 88.5771 15.4201V15.4201Z" fill="#546223"/>
<path d="M101.309 17.7593C101.309 17.9009 101.285 18.0295 101.234 18.1466C101.187 18.2643 101.117 18.3664 101.029 18.4546C100.938 18.5449 100.834 18.6121 100.714 18.6626C100.597 18.7112 100.469 18.7353 100.336 18.7353C100.194 18.7353 100.063 18.7112 99.9482 18.6626C99.8308 18.6121 99.7297 18.5449 99.639 18.4546C99.5509 18.3664 99.4818 18.2643 99.4332 18.1466C99.3855 18.0295 99.3588 17.9009 99.3588 17.7593V12.6108C98.441 13.3807 97.3473 13.7627 96.0768 13.7627C95.3617 13.7627 94.6869 13.6237 94.0569 13.3486C93.4246 13.0727 92.8726 12.6963 92.3979 12.2199C91.9224 11.7443 91.5462 11.1907 91.2717 10.5577C90.9942 9.92677 90.8584 9.24986 90.8584 8.53127V4.97791C90.8584 4.84185 90.8824 4.71326 90.9302 4.59617C90.9806 4.47558 91.0476 4.37108 91.1386 4.28074C91.2266 4.19253 91.3304 4.12245 91.4451 4.07461C91.5625 4.02677 91.6903 4.00001 91.8317 4.00001C91.9657 4.00001 92.0932 4.02677 92.2136 4.07461C92.3339 4.12245 92.4377 4.19253 92.5257 4.28074C92.6137 4.37108 92.6829 4.47558 92.7341 4.59617C92.7818 4.71326 92.8059 4.84185 92.8059 4.97791V8.53127C92.8059 8.98576 92.8913 9.41082 93.0647 9.80618C93.2354 10.2045 93.4702 10.5493 93.7661 10.8485C94.0625 11.1455 94.4094 11.381 94.8043 11.5521C95.1992 11.7259 95.6261 11.8114 96.0768 11.8114C96.5255 11.8114 96.9498 11.7259 97.3473 11.5521C97.7448 11.381 98.0939 11.1482 98.3959 10.8512C98.6942 10.5577 98.9319 10.2101 99.1026 9.81179C99.2734 9.41349 99.3588 8.98576 99.3588 8.53127V4.97791C99.3588 4.84185 99.3855 4.71326 99.4332 4.59617C99.4818 4.47558 99.5509 4.37108 99.639 4.28074C99.7297 4.19253 99.8308 4.12245 99.9482 4.07461C100.063 4.02677 100.194 4.00001 100.336 4.00001C100.469 4.00001 100.597 4.02677 100.714 4.07461C100.834 4.12245 100.938 4.19253 101.029 4.28074C101.117 4.37108 101.187 4.47558 101.234 4.59617C101.285 4.71326 101.309 4.84185 101.309 4.97791V17.7593Z" fill="#546223"/>
<path d="M110.17 11.8114L108.569 7.67582L106.971 11.8114H110.17ZM102.734 17.3179L107.641 4.66248C107.838 4.22189 108.148 4.00001 108.569 4.00001C109.004 4.00001 109.314 4.22189 109.498 4.66248L114.426 17.3636C114.474 17.4869 114.498 17.6176 114.498 17.7593C114.498 18.0295 114.404 18.2589 114.212 18.4519C114.023 18.6415 113.794 18.7353 113.524 18.7353C113.255 18.7353 113.028 18.6415 112.843 18.4519C112.745 18.3528 112.673 18.2485 112.622 18.1365L110.923 13.7627H106.216L104.508 18.1365C104.458 18.2485 104.385 18.3528 104.287 18.4519C104.097 18.6415 103.868 18.7353 103.596 18.7353C103.327 18.7353 103.099 18.6415 102.913 18.4519C102.726 18.2589 102.633 18.0295 102.633 17.7593C102.633 17.6123 102.665 17.4649 102.734 17.3179V17.3179Z" fill="#546223"/>
<path d="M126.55 15.4201C126.683 15.4201 126.808 15.4469 126.926 15.4974C127.043 15.5508 127.145 15.6206 127.233 15.7062C127.323 15.7917 127.393 15.8957 127.446 16.0133C127.497 16.1339 127.523 16.2625 127.523 16.3959C127.523 16.6555 127.422 16.8881 127.219 17.0961C125.853 18.1897 124.311 18.7353 122.595 18.7353C120.562 18.7353 118.828 18.0186 117.392 16.5801C115.96 15.1451 115.242 13.4074 115.242 11.3674C115.242 9.33541 115.96 7.60047 117.392 6.16542C118.834 4.72127 120.568 4.00001 122.595 4.00001C124.338 4.00001 125.909 4.57427 127.313 5.72407C127.484 5.88955 127.569 6.11142 127.569 6.3953C127.569 6.53703 127.545 6.66508 127.497 6.78265C127.446 6.89763 127.377 7.00165 127.289 7.09014C127.201 7.18102 127.096 7.24809 126.977 7.2986C126.857 7.34678 126.728 7.37052 126.595 7.37052C126.355 7.37052 126.134 7.27964 125.923 7.09547C125.458 6.72653 124.946 6.44314 124.383 6.2483C123.823 6.05045 123.228 5.95395 122.595 5.95395C121.101 5.95395 119.823 6.48297 118.764 7.54723C117.716 8.59492 117.192 9.87058 117.192 11.3674C117.192 12.8722 117.716 14.1506 118.764 15.2012C119.818 16.2572 121.096 16.7832 122.595 16.7832C123.876 16.7832 125.005 16.3879 125.979 15.5965C126.139 15.4846 126.328 15.4284 126.55 15.4201V15.4201Z" fill="#546223"/>
<path d="M139.023 5.95395H135.392V17.7593C135.392 18.0295 135.296 18.2589 135.106 18.4519C134.917 18.6415 134.688 18.7353 134.418 18.7353C134.149 18.7353 133.917 18.6415 133.727 18.4519C133.538 18.2589 133.441 18.0295 133.441 17.7593V5.95395H129.813C129.543 5.95395 129.311 5.85746 129.122 5.66789C128.932 5.47839 128.836 5.24844 128.836 4.97791C128.836 4.70847 128.932 4.47558 129.122 4.28608C129.311 4.09603 129.543 4.00001 129.813 4.00001H139.023C139.293 4.00001 139.522 4.09603 139.712 4.28608C139.901 4.47558 139.997 4.70847 139.997 4.97791C139.997 5.24844 139.901 5.47839 139.712 5.66789C139.522 5.85746 139.293 5.95395 139.023 5.95395V5.95395Z" fill="#546223"/>
<path d="M139.554 18.1365C139.364 18.5375 139.066 18.7353 138.655 18.7353C138.514 18.7353 138.386 18.7112 138.268 18.6626C138.151 18.6121 138.049 18.5449 137.962 18.4546C137.871 18.3664 137.804 18.2643 137.753 18.1466C137.705 18.0295 137.681 17.9009 137.681 17.7593C137.681 17.6312 137.708 17.5 137.764 17.3636L142.689 4.68171C142.886 4.22729 143.196 4.00001 143.618 4.00001C144.042 4.00001 144.351 4.22729 144.546 4.68171L149.474 17.3636C149.528 17.4917 149.557 17.6259 149.557 17.7593C149.557 17.9009 149.53 18.0295 149.482 18.1466C149.434 18.2643 149.365 18.3664 149.274 18.4546C149.186 18.5449 149.082 18.6121 148.962 18.6626C148.844 18.7112 148.717 18.7353 148.58 18.7353C148.153 18.7353 147.849 18.5375 147.67 18.1365L143.618 7.67582L139.554 18.1365Z" fill="#546223"/>
<path d="M162.727 17.7593V4.97791C162.727 4.84185 162.703 4.71326 162.655 4.59617C162.604 4.47558 162.537 4.37108 162.446 4.28074C162.358 4.19253 162.257 4.12245 162.14 4.07461C162.022 4.02677 161.895 4.00001 161.753 4.00001C161.468 4.00001 161.214 4.11978 161 4.36068L152.807 14.9226V4.97791C152.807 4.70847 152.71 4.47558 152.521 4.28608C152.332 4.09603 152.102 4.00001 151.833 4.00001C151.564 4.00001 151.334 4.09603 151.144 4.28608C150.952 4.47558 150.859 4.70847 150.859 4.97791V17.7593C150.859 17.9009 150.883 18.0295 150.931 18.1466C150.982 18.2643 151.051 18.3664 151.139 18.4546C151.227 18.5449 151.331 18.6121 151.452 18.6626C151.571 18.7112 151.697 18.7353 151.833 18.7353C152.121 18.7353 152.369 18.623 152.577 18.3958L160.779 7.83329V17.7593C160.779 18.0295 160.875 18.2589 161.065 18.4519C161.254 18.6415 161.483 18.7353 161.753 18.7353C162.022 18.7353 162.252 18.6415 162.444 18.4519C162.634 18.2589 162.727 18.0295 162.727 17.7593V17.7593Z" fill="#546223"/>
<path d="M166.073 5.95395V9.68293H167.94C168.196 9.68293 168.437 9.63509 168.661 9.53593C168.885 9.43724 169.08 9.30386 169.248 9.1301C169.418 8.959 169.552 8.76122 169.648 8.53607C169.747 8.31152 169.795 8.07145 169.795 7.81481C169.795 7.56084 169.747 7.32269 169.648 7.10109C169.552 6.87648 169.416 6.6787 169.245 6.50494C169.071 6.33384 168.874 6.19964 168.653 6.10095C168.429 6.00179 168.191 5.95395 167.94 5.95395H166.073ZM166.073 11.635V16.7832H168.647C169.002 16.7832 169.336 16.717 169.648 16.5801C169.96 16.4467 170.233 16.2625 170.462 16.0299C170.692 15.7944 170.875 15.5215 171.008 15.2086C171.145 14.8959 171.211 14.562 171.211 14.2041C171.211 13.8563 171.145 13.525 171.008 13.2096C170.875 12.8968 170.692 12.6239 170.457 12.391C170.224 12.1584 169.952 11.9743 169.64 11.8381C169.328 11.704 168.997 11.635 168.647 11.635H166.073ZM167.94 4.00001C168.461 4.00001 168.952 4.10137 169.413 4.29915C169.877 4.49967 170.28 4.77205 170.627 5.11964C170.974 5.46744 171.246 5.87108 171.446 6.33651C171.644 6.79846 171.745 7.29059 171.745 7.81481C171.745 8.74753 171.457 9.56049 170.881 10.2553C171.254 10.4743 171.582 10.7309 171.865 11.0169C172.145 11.3056 172.383 11.6211 172.577 11.9633C172.769 12.3028 172.913 12.6616 173.013 13.0406C173.111 13.4176 173.159 13.8057 173.159 14.2041C173.159 14.824 173.042 15.4092 172.801 15.9601C172.562 16.5082 172.239 16.9894 171.831 17.4014C171.425 17.8127 170.948 18.1365 170.398 18.3766C169.851 18.6174 169.267 18.7353 168.647 18.7353H165.099C164.963 18.7353 164.837 18.7112 164.722 18.6578C164.605 18.6065 164.504 18.5375 164.413 18.4519C164.325 18.3634 164.256 18.2616 164.203 18.1418C164.151 18.0213 164.125 17.8953 164.125 17.7593V4.97791C164.125 4.84185 164.151 4.71326 164.203 4.59617C164.256 4.47558 164.325 4.37108 164.413 4.28608C164.504 4.19999 164.605 4.13073 164.722 4.08022C164.837 4.02677 164.963 4.00001 165.099 4.00001H167.94Z" fill="#546223"/>
<path d="M181.986 11.8114L180.385 7.67582L178.786 11.8114H181.986ZM174.547 17.3179L179.456 4.66248C179.654 4.22189 179.963 4.00001 180.385 4.00001C180.82 4.00001 181.129 4.22189 181.313 4.66248L186.241 17.3636C186.289 17.4869 186.313 17.6176 186.313 17.7593C186.313 18.0295 186.217 18.2589 186.028 18.4519C185.838 18.6415 185.608 18.7353 185.339 18.7353C185.07 18.7353 184.843 18.6415 184.659 18.4519C184.56 18.3528 184.488 18.2485 184.438 18.1365L182.738 13.7627H178.031L176.321 18.1365C176.273 18.2485 176.198 18.3528 176.102 18.4519C175.91 18.6415 175.68 18.7353 175.411 18.7353C175.142 18.7353 174.915 18.6415 174.728 18.4519C174.541 18.2589 174.448 18.0295 174.448 17.7593C174.448 17.6123 174.48 17.4649 174.547 17.3179Z" fill="#546223"/>
<path d="M195.361 5.95395V11.1024H192.786C192.431 11.1024 192.097 11.0333 191.785 10.8999C191.473 10.763 191.204 10.5788 190.972 10.3409C190.742 10.1053 190.56 9.83294 190.427 9.52279C190.291 9.21297 190.224 8.88099 190.224 8.53127C190.224 8.17547 190.291 7.8413 190.427 7.52882C190.56 7.21599 190.745 6.94279 190.977 6.70812C191.209 6.47551 191.484 6.29052 191.796 6.15714C192.108 6.02102 192.439 5.95395 192.786 5.95395H195.361ZM197.305 17.7593V4.97791C197.305 4.84185 197.282 4.71326 197.234 4.59617C197.186 4.47558 197.116 4.37108 197.025 4.28074C196.937 4.19253 196.836 4.12245 196.719 4.07461C196.601 4.02677 196.474 4.00001 196.332 4.00001H192.786C192.17 4.00001 191.585 4.11978 191.039 4.36068C190.489 4.59884 190.011 4.92473 189.603 5.33665C189.197 5.74782 188.875 6.22907 188.634 6.77731C188.397 7.32802 188.277 7.91055 188.277 8.53127C188.277 8.9371 188.328 9.33062 188.429 9.7153C188.53 10.1005 188.679 10.4611 188.877 10.8033C189.078 11.1428 189.326 11.4583 189.621 11.7499C189.92 12.0413 190.265 12.298 190.657 12.5198L187.724 17.2249C187.621 17.3986 187.569 17.5746 187.569 17.7593C187.569 17.9009 187.594 18.0295 187.642 18.1466C187.692 18.2643 187.759 18.3664 187.85 18.4546C187.938 18.5449 188.042 18.6121 188.162 18.6626C188.282 18.7112 188.408 18.7353 188.543 18.7353C188.885 18.7353 189.165 18.577 189.379 18.2568L192.621 13.0543H195.361V17.7593C195.361 18.0295 195.454 18.2589 195.644 18.4519C195.833 18.6415 196.062 18.7353 196.332 18.7353C196.601 18.7353 196.834 18.6415 197.023 18.4519C197.213 18.2589 197.305 18.0295 197.305 17.7593V17.7593Z" fill="#546223"/>
<path d="M98.8382 45.0537C99.0943 45.0537 99.335 45.1045 99.5562 45.2037C99.7803 45.3024 99.9748 45.4358 100.143 45.5994C100.314 45.7622 100.448 45.96 100.549 46.1872C100.648 46.4171 100.695 46.658 100.695 46.9168C100.695 47.4087 100.504 47.853 100.119 48.2513C97.5124 50.3365 94.5721 51.3788 91.2984 51.3788C87.4186 51.3788 84.1106 50.0074 81.3756 47.2672C78.6407 44.5268 77.272 41.2124 77.272 37.3252C77.272 33.4492 78.6407 30.1393 81.3756 27.3992C84.1208 24.646 87.4295 23.2719 91.2984 23.2719C94.6177 23.2719 97.6165 24.3648 100.293 26.5569C100.621 26.8723 100.784 27.3 100.784 27.8379C100.784 28.1076 100.738 28.3533 100.645 28.5758C100.551 28.7974 100.418 28.9952 100.25 29.1636C100.079 29.3347 99.882 29.4654 99.6525 29.5593C99.4257 29.6528 99.1826 29.7006 98.9265 29.7006C98.4703 29.7006 98.0434 29.5242 97.6458 29.1746C96.7571 28.471 95.7784 27.9309 94.708 27.5567C93.6382 27.1829 92.5017 26.9955 91.2984 26.9955C88.4458 26.9955 86.0101 28.009 83.9877 30.0348C81.989 32.0371 80.9884 34.4675 80.9884 37.3252C80.9884 40.1934 81.989 42.629 83.9877 44.6343C85.9965 46.647 88.4357 47.6551 91.2984 47.6551C93.7421 47.6551 95.8931 46.8983 97.7496 45.3879C98.0543 45.177 98.4169 45.0668 98.8382 45.0537V45.0537Z" fill="#546223"/>
<path d="M121.264 47.6551C121.779 47.6551 122.217 47.8364 122.58 48.2C122.939 48.5611 123.121 49.0019 123.121 49.5152C123.121 50.0312 122.939 50.4699 122.58 50.8334C122.217 51.1967 121.779 51.3788 121.264 51.3788H105.045C104.775 51.3788 104.529 51.3309 104.308 51.2371C104.087 51.1433 103.892 51.0125 103.721 50.8444C103.553 50.6733 103.419 50.4781 103.327 50.2531C103.233 50.0312 103.187 49.7855 103.187 49.5152V25.132C103.187 24.8753 103.233 24.6324 103.327 24.4051C103.419 24.1752 103.553 23.9774 103.721 23.8063C103.892 23.6378 104.087 23.5045 104.308 23.4106C104.529 23.3171 104.775 23.2719 105.045 23.2719H121.264C121.779 23.2719 122.217 23.4531 122.58 23.8145C122.939 24.1779 123.121 24.6166 123.121 25.132C123.121 25.648 122.939 26.0866 122.58 26.4499C122.217 26.8135 121.779 26.9955 121.264 26.9955H106.904V35.4619H117.214C117.729 35.4619 118.166 35.6437 118.529 36.0073C118.89 36.3706 119.071 36.8092 119.071 37.3252C119.071 37.8414 118.89 38.2793 118.529 38.6434C118.166 39.0067 117.729 39.1861 117.214 39.1861H106.904V47.6551H121.264Z" fill="#546223"/>
<path d="M129.346 50.1167L134.343 32.0858L139.322 50.0982C139.415 50.4618 139.629 50.7642 139.962 51.0045C140.296 51.2427 140.68 51.363 141.112 51.363C141.486 51.363 141.838 51.2555 142.172 51.0392C142.505 50.823 142.737 50.515 142.865 50.1167L147.863 32.0858L152.876 50.1167C152.959 50.3733 153.105 50.6088 153.314 50.8203C153.676 51.1809 154.117 51.363 154.629 51.363C155.144 51.363 155.579 51.1809 155.936 50.8203C156.292 50.4562 156.47 50.0183 156.47 49.5021C156.46 49.2668 156.419 49.0238 156.348 48.7645L149.738 24.7823C149.573 24.3251 149.33 23.9589 149.002 23.683C148.674 23.4079 148.295 23.2719 147.863 23.2719C147.337 23.2719 146.902 23.4587 146.563 23.833C146.318 24.0896 146.131 24.3941 146.003 24.7446L141.112 42.4956L136.219 24.7823C136.056 24.3251 135.811 23.9589 135.483 23.683C135.157 23.4079 134.776 23.2719 134.343 23.2719C133.818 23.2719 133.38 23.4587 133.028 23.833C132.796 24.0655 132.614 24.3704 132.486 24.7446L125.84 48.783C125.771 49.0506 125.736 49.2906 125.736 49.5021C125.736 50.0183 125.915 50.4562 126.277 50.8203C126.64 51.1809 127.078 51.363 127.593 51.363C128.108 51.363 128.545 51.1809 128.908 50.8203C129.106 50.6088 129.253 50.3733 129.346 50.1167V50.1167Z" fill="#546223"/>
<path d="M168.552 47.6551C169.136 47.6551 169.685 47.5429 170.2 47.3204C170.713 47.0988 171.161 46.797 171.54 46.4171C171.921 46.0346 172.223 45.5884 172.444 45.0725C172.666 44.5562 172.778 44.0061 172.778 43.4204C172.778 42.8351 172.666 42.2842 172.444 41.7682C172.223 41.2549 171.921 40.8061 171.54 40.4262C171.161 40.0442 170.713 39.7445 170.2 39.52C169.685 39.2983 169.136 39.1861 168.552 39.1861H162.975V47.6551H168.552ZM162.975 35.4619H168.552C169.638 35.4619 170.664 35.6734 171.628 36.0955C172.594 36.5179 173.434 37.09 174.155 37.8174C174.872 38.5416 175.443 39.3866 175.862 40.346C176.284 41.3055 176.495 42.3321 176.495 43.4204C176.495 44.511 176.284 45.5349 175.862 46.4944C175.443 47.4546 174.872 48.2991 174.155 49.0239C173.434 49.7507 172.594 50.3255 171.628 50.7449C170.664 51.1673 169.638 51.3788 168.552 51.3788H161.118C160.859 51.3788 160.621 51.3283 160.397 51.2288C160.176 51.1304 159.981 50.9989 159.811 50.8334C159.643 50.6704 159.507 50.4755 159.408 50.2456C159.309 50.0183 159.258 49.7745 159.258 49.5152V25.132C159.258 24.8753 159.309 24.6324 159.408 24.4051C159.507 24.1752 159.643 23.98 159.811 23.8145C159.981 23.651 160.176 23.5203 160.397 23.421C160.621 23.3197 160.859 23.2719 161.118 23.2719C161.374 23.2719 161.617 23.3171 161.843 23.4106C162.073 23.5045 162.27 23.6378 162.441 23.8063C162.61 23.9774 162.743 24.1752 162.837 24.4051C162.929 24.6324 162.975 24.8753 162.975 25.132V35.4619Z" fill="#546223"/>
<path d="M193.592 26.9955V36.8148H188.685C188.007 36.8148 187.37 36.686 186.774 36.4294C186.179 36.1701 185.662 35.8177 185.225 35.366C184.787 34.9136 184.438 34.3955 184.182 33.8015C183.925 33.211 183.797 32.5828 183.797 31.9147C183.797 31.2351 183.925 30.5965 184.182 30.0006C184.438 29.4018 184.789 28.8802 185.233 28.4368C185.678 27.9897 186.196 27.6395 186.794 27.3808C187.388 27.1241 188.021 26.9955 188.685 26.9955H193.592ZM197.306 49.5152V25.132C197.306 24.8753 197.26 24.6324 197.167 24.4051C197.074 24.1752 196.943 23.9774 196.772 23.8063C196.604 23.6378 196.407 23.5045 196.185 23.4106C195.964 23.3171 195.718 23.2719 195.449 23.2719H188.685C187.506 23.2719 186.393 23.4991 185.348 23.9563C184.301 24.4134 183.389 25.0333 182.613 25.8191C181.836 26.6026 181.22 27.5198 180.764 28.5675C180.31 29.6151 180.081 30.7301 180.081 31.9147C180.081 32.6873 180.176 33.4382 180.371 34.1705C180.563 34.9035 180.849 35.5958 181.227 36.2455C181.609 36.8948 182.081 37.4963 182.647 38.0548C183.215 38.6113 183.871 39.1006 184.619 39.52L179.029 48.497C178.832 48.826 178.733 49.1656 178.733 49.5152C178.733 49.7855 178.778 50.0312 178.872 50.2531C178.965 50.4781 179.096 50.6733 179.266 50.8444C179.434 51.0125 179.635 51.1433 179.861 51.2371C180.091 51.3309 180.331 51.3788 180.59 51.3788C181.244 51.3788 181.775 51.0743 182.183 50.4645L188.37 40.5386H193.592V49.5152C193.592 50.0312 193.773 50.4699 194.136 50.8334C194.496 51.1967 194.937 51.3788 195.449 51.3788C195.964 51.3788 196.401 51.1967 196.764 50.8334C197.127 50.4699 197.306 50.0312 197.306 49.5152V49.5152Z" fill="#546223"/>
</svg>
