<svg width="22" height="23" viewBox="0 0 22 23" fill="none" xmlns="http://www.w3.org/2000/svg">
<path d="M21 16.84V19.84C21.0011 20.1185 20.9441 20.3942 20.8325 20.6494C20.7209 20.9045 20.5573 21.1336 20.3521 21.3219C20.1468 21.5102 19.9046 21.6535 19.6407 21.7427C19.3769 21.8319 19.0974 21.8651 18.82 21.84C15.7428 21.5057 12.787 20.4542 10.19 18.77C7.77382 17.2347 5.72533 15.1862 4.18999 12.77C2.49997 10.1612 1.44824 7.19101 1.11999 4.10002C1.095 3.82349 1.12787 3.54478 1.21649 3.28164C1.30512 3.01851 1.44756 2.77671 1.63476 2.57164C1.82196 2.36657 2.0498 2.20273 2.30379 2.09054C2.55777 1.97835 2.83233 1.92028 3.10999 1.92002H6.10999C6.5953 1.91524 7.06579 2.0871 7.43376 2.40355C7.80173 2.72001 8.04207 3.15947 8.10999 3.64002C8.23662 4.60009 8.47144 5.54275 8.80999 6.45002C8.94454 6.80794 8.97366 7.19693 8.8939 7.5709C8.81415 7.94486 8.62886 8.28813 8.35999 8.56002L7.08999 9.83002C8.51355 12.3336 10.5864 14.4065 13.09 15.83L14.36 14.56C14.6319 14.2912 14.9751 14.1059 15.3491 14.0261C15.7231 13.9464 16.1121 13.9755 16.47 14.11C17.3773 14.4486 18.3199 14.6834 19.28 14.81C19.7658 14.8785 20.2094 15.1232 20.5265 15.4975C20.8437 15.8718 21.0122 16.3496 21 16.84Z" stroke="black" stroke-width="2" stroke-linecap="round" stroke-linejoin="round"/>
</svg>
