<svg width="80" height="76" viewBox="0 0 80 76" fill="none" xmlns="http://www.w3.org/2000/svg">
<path d="M73.3333 67.1012C73.3333 71.9901 69.3333 75.9901 64.4444 75.9901H15.5555C10.6666 75.9901 6.66663 71.9901 6.66663 67.1012V29.3235C6.66663 24.4346 10.6666 20.4346 15.5555 20.4346H64.4444C69.3333 20.4346 73.3333 24.4346 73.3333 29.3235V67.1012Z" fill="#FDD888"/>
<path d="M80 22.6574C80 27.5463 76 31.5463 71.1111 31.5463H8.88889C4 31.5463 0 27.5463 0 22.6574C0 17.7686 4 13.7686 8.88889 13.7686H71.1111C76 13.7686 80 17.7686 80 22.6574Z" fill="#FDD888"/>
<path d="M6.66663 31.5459H73.3333V35.9903H6.66663V31.5459Z" fill="#FCAB40"/>
<path d="M42.2222 4.87988H37.7778C34.0955 4.87988 31.1111 7.86433 31.1111 11.5465V75.991H48.8889V11.5465C48.8889 7.86655 45.9044 4.87988 42.2222 4.87988Z" fill="#DA2F47"/>
<path d="M35.5555 13.7686C38 13.7686 38.3622 12.6219 36.3578 11.2197L21.42 0.761935C19.4155 -0.640287 16.7866 -0.0513983 15.5733 2.07082L11.0933 9.91082C9.87998 12.033 10.8889 13.7686 13.3333 13.7686H35.5555ZM44.4444 13.7686C42 13.7686 41.6378 12.6219 43.6422 11.2197L58.5822 0.761935C60.5844 -0.640287 63.2155 -0.0513983 64.4289 2.07082L68.9089 9.9086C70.12 12.033 69.1111 13.7686 66.6666 13.7686H44.4444Z" fill="#DA2F47"/>
</svg>
