<svg width="80" height="79" viewBox="0 0 80 79" fill="none" xmlns="http://www.w3.org/2000/svg">
<path d="M25.8347 15.3486C25.5858 15.5975 25.3969 15.8975 25.2392 16.2264L25.2214 16.2086L0.297736 72.3535L0.32218 72.3779C-0.140027 73.2734 0.633281 75.0956 2.21768 76.6822C3.80207 78.2666 5.62423 79.0399 6.51976 78.5777L6.54198 78.5999L62.6868 53.6741L62.6691 53.6541C62.9957 53.4985 63.2957 53.3096 63.5468 53.0563C67.0178 49.5853 61.3891 38.3301 50.9783 27.9171C40.5631 17.5041 29.3079 11.8776 25.8347 15.3486Z" fill="#DD2E44"/>
<path d="M28.8879 25.375L0.924383 70.9424L0.297736 72.3535L0.32218 72.3779C-0.140027 73.2735 0.633281 75.0956 2.21768 76.6822C2.73321 77.1978 3.26875 77.5889 3.79318 77.92L37.7765 36.4858L28.8879 25.375Z" fill="#EA596E"/>
<path d="M51.1362 27.7432C61.5136 38.1251 67.2756 49.1914 64.0002 52.4624C60.727 55.7379 49.6606 49.9781 39.2765 39.6006C28.8969 29.2187 23.1371 18.148 26.4103 14.8747C29.6857 11.6015 40.752 17.3613 51.1362 27.7432Z" fill="#A0041E"/>
<path d="M41.3098 28.9502C40.8676 29.3079 40.2898 29.4946 39.6787 29.4279C37.7499 29.2191 36.1277 28.548 34.9922 27.488C33.79 26.3658 33.1967 24.8592 33.3589 23.3504C33.6434 20.7016 36.3011 18.2705 40.832 18.7594C42.5942 18.9483 43.3808 18.3816 43.4075 18.1105C43.4386 17.8416 42.792 17.1194 41.0298 16.9283C39.101 16.7195 37.4788 16.0484 36.3411 14.9884C35.1389 13.8662 34.5434 12.3596 34.7078 10.8508C34.9967 8.20195 37.6521 5.77092 42.1787 6.26202C43.4631 6.39979 44.1408 6.13535 44.4275 5.96425C44.6564 5.82425 44.7475 5.69092 44.7564 5.61315C44.783 5.34427 44.1453 4.62207 42.3787 4.43096C41.1587 4.29763 40.2743 3.20434 40.4098 1.98215C40.5409 0.762192 41.632 -0.120002 42.8564 0.013327C47.3829 0.499978 49.4629 3.43988 49.1762 6.09091C48.8873 8.74416 46.2319 11.1707 41.7009 10.6841C40.4165 10.5441 39.7454 10.8108 39.4565 10.9819C39.2277 11.1196 39.1343 11.2552 39.1254 11.3307C39.0965 11.6018 39.7387 12.3218 41.5054 12.5129C46.0319 13.0018 48.1118 15.9395 47.8252 18.5905C47.5385 21.2393 44.883 23.6703 40.3543 23.1793C39.0699 23.0415 38.3943 23.3081 38.1055 23.477C37.8744 23.6192 37.7855 23.7526 37.7766 23.8281C37.7477 24.097 38.3899 24.8192 40.1543 25.0103C41.372 25.1436 42.2587 26.2392 42.1231 27.4591C42.0609 28.068 41.752 28.5946 41.3098 28.9502Z" fill="#AA8DD8"/>
<path d="M68.1333 49.5004C72.5176 48.2627 75.542 50.2181 76.262 52.7847C76.9819 55.3491 75.422 58.5957 71.0399 59.829C69.3288 60.3089 68.8155 61.1267 68.8844 61.3867C68.96 61.6489 69.8288 62.08 71.5354 61.5978C75.9175 60.3645 78.9419 62.32 79.6618 64.8843C80.3863 67.4509 78.8219 70.6931 74.4376 71.9286C72.7287 72.4086 72.2132 73.2285 72.2887 73.4885C72.3621 73.7485 73.2287 74.1796 74.9376 73.6996C76.1153 73.3685 77.3464 74.0552 77.6775 75.2351C78.0063 76.4173 77.3197 77.6439 76.1375 77.9773C71.7577 79.2106 68.7311 77.2595 68.0067 74.6907C67.2867 72.1263 68.8489 68.8842 73.2354 67.6487C74.9464 67.1665 75.4598 66.351 75.3842 66.0888C75.3131 65.8288 74.4465 65.3954 72.7398 65.8754C68.3533 67.1109 65.3312 65.1599 64.609 62.5889C63.8868 60.0245 65.449 56.7824 69.8333 55.5446C71.5399 55.0669 72.0532 54.2447 71.9821 53.9869C71.9065 53.7247 71.0421 53.2936 69.3333 53.7736C68.1511 54.1069 66.9267 53.418 66.5934 52.2381C66.2623 51.0603 66.9511 49.8337 68.1333 49.5004Z" fill="#77B255"/>
<path d="M51.1117 43.5071C50.4584 43.5071 49.814 43.2204 49.374 42.6737C48.6073 41.7138 48.7651 40.316 49.7206 39.5494C50.2051 39.1605 61.7602 30.0853 78.0908 32.4207C79.3064 32.5941 80.1508 33.7185 79.9774 34.934C79.8041 36.1473 78.6886 37.0006 77.462 36.8184C63.0335 34.7696 52.6028 42.9382 52.5005 43.0204C52.0872 43.3493 51.5984 43.5071 51.1117 43.5071Z" fill="#AA8DD8"/>
<path d="M12.7862 34.2637C12.5751 34.2637 12.3596 34.2326 12.1463 34.1703C10.9707 33.817 10.3041 32.5793 10.6574 31.4038C13.1751 23.0196 15.4573 9.64002 12.6529 6.15124C12.3396 5.7557 11.8663 5.36682 10.7819 5.44904C8.69748 5.60904 8.89525 10.0067 8.89748 10.0511C8.99081 11.2755 8.07084 12.3422 6.84865 12.4333C5.60647 12.5088 4.55762 11.6066 4.46651 10.3822C4.23763 7.31787 5.19093 1.41584 10.4485 1.01807C12.7951 0.840301 14.744 1.65583 16.1195 3.36689C21.3882 9.92445 16.0395 28.935 14.9151 32.6815C14.6262 33.6437 13.7418 34.2637 12.7862 34.2637Z" fill="#77B255"/>
<path d="M56.6649 23.1528C58.5058 23.1528 59.9981 21.6604 59.9981 19.8196C59.9981 17.9787 58.5058 16.4863 56.6649 16.4863C54.824 16.4863 53.3317 17.9787 53.3317 19.8196C53.3317 21.6604 54.824 23.1528 56.6649 23.1528Z" fill="#5C913B"/>
<path d="M4.4443 43.1523C6.89882 43.1523 8.8886 41.1625 8.8886 38.708C8.8886 36.2535 6.89882 34.2637 4.4443 34.2637C1.98978 34.2637 0 36.2535 0 38.708C0 41.1625 1.98978 43.1523 4.4443 43.1523Z" fill="#9266CC"/>
<path d="M72.2199 45.3745C74.0608 45.3745 75.5532 43.8821 75.5532 42.0412C75.5532 40.2003 74.0608 38.708 72.2199 38.708C70.3791 38.708 68.8867 40.2003 68.8867 42.0412C68.8867 43.8821 70.3791 45.3745 72.2199 45.3745Z" fill="#5C913B"/>
<path d="M52.2206 72.0395C54.0614 72.0395 55.5538 70.5472 55.5538 68.7063C55.5538 66.8654 54.0614 65.373 52.2206 65.373C50.3797 65.373 48.8873 66.8654 48.8873 68.7063C48.8873 70.5472 50.3797 72.0395 52.2206 72.0395Z" fill="#5C913B"/>
<path d="M62.2202 12.0419C64.6747 12.0419 66.6645 10.0521 66.6645 7.59762C66.6645 5.1431 64.6747 3.15332 62.2202 3.15332C59.7657 3.15332 57.7759 5.1431 57.7759 7.59762C57.7759 10.0521 59.7657 12.0419 62.2202 12.0419Z" fill="#FFCC4D"/>
<path d="M72.2199 20.9301C74.0608 20.9301 75.5532 19.4378 75.5532 17.5969C75.5532 15.756 74.0608 14.2637 72.2199 14.2637C70.3791 14.2637 68.8867 15.756 68.8867 17.5969C68.8867 19.4378 70.3791 20.9301 72.2199 20.9301Z" fill="#FFCC4D"/>
<path d="M65.5534 29.8188C67.3943 29.8188 68.8867 28.3265 68.8867 26.4856C68.8867 24.6447 67.3943 23.1523 65.5534 23.1523C63.7126 23.1523 62.2202 24.6447 62.2202 26.4856C62.2202 28.3265 63.7126 29.8188 65.5534 29.8188Z" fill="#FFCC4D"/>
<path d="M16.6661 54.2631C18.507 54.2631 19.9993 52.7708 19.9993 50.9299C19.9993 49.089 18.507 47.5967 16.6661 47.5967C14.8252 47.5967 13.3329 49.089 13.3329 50.9299C13.3329 52.7708 14.8252 54.2631 16.6661 54.2631Z" fill="#FFCC4D"/>
</svg>
