<svg width="59" height="80" viewBox="0 0 59 80" fill="none" xmlns="http://www.w3.org/2000/svg">
<path d="M44.271 47.2894H43.7272C44.0711 45.5741 44.271 43.7792 44.271 41.9156C44.271 30.637 37.5344 21.4951 29.2244 21.4951C20.9143 21.4951 14.1777 30.637 14.1777 41.9156C14.1777 43.7792 14.3776 45.5741 14.7215 47.2894H14.1777C9.87864 53.738 10.9491 64.606 14.4399 66.6351C29.2244 75.2332 20.6263 62.3361 29.2244 62.3361C37.8225 62.3361 29.2244 75.2332 44.0088 66.6351C47.4996 64.606 48.5701 53.738 44.271 47.2894Z" fill="#C1694F"/>
<path d="M41.406 43.9754C41.0255 40.6566 42.0874 36.3188 41.9541 32.6904C38.9727 35.0205 33.4097 36.5424 29.2246 36.5424C25.0395 36.5424 19.5302 35.0205 16.5489 32.6904C16.4156 36.3188 17.4237 40.6566 17.0432 43.9754C16.0588 52.5735 22.1011 59.4176 29.2246 59.4176C36.3481 59.4176 42.3904 52.5735 41.406 43.9754Z" fill="#C1694F"/>
<path d="M17.1293 30.0938C17.1293 30.0938 6.38163 32.2433 4.2321 45.1404C2.08258 58.0376 11.5813 59.2865 14.9797 55.8881C19.2788 51.589 14.9797 47.29 14.9797 47.29C14.9797 47.29 17.1293 36.5423 17.1293 30.0938ZM41.32 30.0938C41.32 30.0938 52.0676 32.2433 54.2172 45.1404C56.3667 58.0376 46.8679 59.2865 43.4695 55.8881C39.1705 51.589 43.4695 47.29 43.4695 47.29C43.4695 47.29 41.32 36.5423 41.32 30.0938Z" fill="#C1694F"/>
<path d="M18.4769 27.9434C14.1779 27.9434 16.3274 30.0929 16.3274 32.2424C16.3274 34.3919 18.4769 38.691 22.776 36.5415C22.776 36.5415 20.6265 40.8405 20.6265 47.2891C20.6265 47.2891 24.9255 47.2891 27.075 51.5881C27.075 51.5881 29.2246 36.5415 29.2246 32.2424C29.2246 27.9434 20.6265 27.9434 18.4769 27.9434ZM39.9722 27.9434C44.2712 27.9434 42.1217 30.0929 42.1217 32.2424C42.1217 34.3919 39.9722 38.691 35.6731 36.5415C35.6731 36.5415 37.8227 40.8405 37.8227 47.2891C37.8227 47.2891 33.5236 47.2891 31.3741 51.5881C31.3741 51.5881 29.2246 36.5415 29.2246 32.2424C29.2246 27.9434 37.8227 27.9434 39.9722 27.9434Z" fill="#A0041E"/>
<path d="M14.1778 17.1962C18.9264 17.1962 22.7759 13.3467 22.7759 8.5981C22.7759 3.8495 18.9264 0 14.1778 0C9.42921 0 5.57971 3.8495 5.57971 8.5981C5.57971 13.3467 9.42921 17.1962 14.1778 17.1962Z" fill="#C1694F"/>
<path d="M14.178 12.8969C16.5523 12.8969 18.477 10.9722 18.477 8.59788C18.477 6.22358 16.5523 4.29883 14.178 4.29883C11.8037 4.29883 9.87891 6.22358 9.87891 8.59788C9.87891 10.9722 11.8037 12.8969 14.178 12.8969Z" fill="#662113"/>
<path d="M44.2712 17.1962C49.0198 17.1962 52.8693 13.3467 52.8693 8.5981C52.8693 3.8495 49.0198 0 44.2712 0C39.5226 0 35.6731 3.8495 35.6731 8.5981C35.6731 13.3467 39.5226 17.1962 44.2712 17.1962Z" fill="#C1694F"/>
<path d="M44.2712 12.8969C46.6455 12.8969 48.5703 10.9722 48.5703 8.59788C48.5703 6.22358 46.6455 4.29883 44.2712 4.29883C41.8969 4.29883 39.9722 6.22358 39.9722 8.59788C39.9722 10.9722 41.8969 12.8969 44.2712 12.8969Z" fill="#662113"/>
<path d="M29.2245 34.3923C38.7217 34.3923 46.4207 27.1745 46.4207 18.2709C46.4207 9.36723 38.7217 2.14941 29.2245 2.14941C19.7273 2.14941 12.0283 9.36723 12.0283 18.2709C12.0283 27.1745 19.7273 34.3923 29.2245 34.3923Z" fill="#C1694F"/>
<path d="M22.776 19.3459C23.9631 19.3459 24.9255 18.3836 24.9255 17.1964C24.9255 16.0093 23.9631 15.0469 22.776 15.0469C21.5888 15.0469 20.6265 16.0093 20.6265 17.1964C20.6265 18.3836 21.5888 19.3459 22.776 19.3459Z" fill="#292F33"/>
<path d="M35.6732 19.3459C36.8604 19.3459 37.8227 18.3836 37.8227 17.1964C37.8227 16.0093 36.8604 15.0469 35.6732 15.0469C34.4861 15.0469 33.5237 16.0093 33.5237 17.1964C33.5237 18.3836 34.4861 19.3459 35.6732 19.3459Z" fill="#292F33"/>
<path d="M29.3491 20.5557C14.7151 20.5557 19.4355 32.5113 29.0331 32.5113C38.6286 32.5113 43.9831 20.5557 29.3491 20.5557Z" fill="#D99E82"/>
<path d="M26.5097 23.785L27.6404 25.7432C28.3454 26.962 30.1059 26.962 30.8088 25.7432L31.9394 23.785C32.6445 22.5662 31.7632 21.04 30.3552 21.04H28.0939C26.686 21.04 25.8068 22.5641 26.5097 23.785Z" fill="#292F33"/>
<path d="M14.7474 58.0418C14.3906 58.0418 14.0445 57.8655 13.8403 57.5453C13.5222 57.0444 13.6683 56.3802 14.1692 56.0621C14.2552 56.0084 16.3767 54.5832 16.3123 51.7158C16.2628 49.5856 14.3067 48.1884 14.2874 48.1776C14.0273 47.9949 13.8575 47.7026 13.8296 47.3866C13.3889 42.3137 15.2267 37.2645 15.3063 37.0495C15.5126 36.495 16.1252 36.2091 16.6863 36.4133C17.243 36.6196 17.5289 37.2366 17.3225 37.7933C17.3053 37.8384 15.6867 42.3051 15.9382 46.7461C16.7443 47.4382 18.4016 49.1621 18.4618 51.6663C18.5564 55.7719 15.4567 57.7946 15.3256 57.8784C15.1429 57.9881 14.943 58.0418 14.7474 58.0418ZM43.7037 58.0418C43.5059 58.0418 43.3038 57.9881 43.1254 57.8741C42.9922 57.7903 39.8925 55.7698 39.9871 51.662C40.0452 49.1578 41.7046 47.4339 42.5107 46.7418C42.7643 42.2879 41.1436 37.8363 41.1264 37.7911C40.92 37.2344 41.2038 36.6153 41.7626 36.409C42.3151 36.2048 42.9363 36.4885 43.1426 37.0452C43.2222 37.258 45.0622 42.3073 44.6215 47.3823C44.5936 47.7026 44.4237 47.9928 44.1594 48.1755C44.1422 48.1862 42.1861 49.5813 42.1388 51.7136C42.0722 54.6219 44.2582 56.0471 44.2819 56.0599C44.7806 56.3781 44.931 57.0423 44.6108 57.5431C44.4044 57.8656 44.0583 58.0418 43.7037 58.0418ZM43.551 47.2899H43.5725H43.551Z" fill="#934035"/>
<path d="M22.0393 73.1581C25.8168 69.3806 25.4764 62.9158 21.2791 58.7187C17.0818 54.5215 10.617 54.1814 6.83963 57.959C3.0622 61.7365 3.40257 68.2013 7.59985 72.3984C11.7971 76.5956 18.2619 76.9357 22.0393 73.1581Z" fill="#C1694F"/>
<path d="M19.227 71.4222C16.9614 73.6878 12.9805 73.3826 10.3344 70.7386C7.69052 68.0947 7.38314 64.1138 9.65089 61.8461C11.9165 59.5805 15.8974 59.8857 18.5435 62.5296C21.1874 65.1757 21.4926 69.1566 19.227 71.4222Z" fill="#D99E82"/>
<path d="M18.2384 70.4358C16.5596 72.1146 13.4965 71.775 11.3986 69.6749C9.30066 67.577 8.95888 64.5139 10.6377 62.8351C12.3164 61.1563 15.3795 61.496 17.4775 63.596C19.5754 65.6961 19.9172 68.7571 18.2384 70.4358Z" fill="#D99E82"/>
<path d="M50.8489 72.4007C55.046 68.2034 55.3862 61.7386 51.6086 57.9612C47.8311 54.1838 41.3663 54.5242 37.1692 58.7214C32.972 62.9187 32.6319 69.3835 36.4094 73.1609C40.187 76.9383 46.6518 76.598 50.8489 72.4007Z" fill="#C1694F"/>
<path d="M39.222 71.4222C41.4876 73.6878 45.4686 73.3826 48.1146 70.7386C50.7585 68.0947 51.0659 64.1138 48.7982 61.8461C46.5326 59.5805 42.5517 59.8857 39.9056 62.5296C37.2617 65.1757 36.9564 69.1566 39.222 71.4222Z" fill="#D99E82"/>
<path d="M47.0489 69.6753C49.1474 67.5766 49.4876 64.5143 47.8087 62.8355C46.1298 61.1566 43.0676 61.4969 40.969 63.5956C38.8704 65.6942 38.5302 68.7565 40.2091 70.4353C41.888 72.1142 44.9503 71.7739 47.0489 69.6753Z" fill="#D99E82"/>
<path d="M29.4115 30.3899C26.6601 30.3899 24.5772 28.3543 24.545 28.3242C24.3343 28.1135 24.3343 27.7761 24.545 27.5654C24.7556 27.3548 25.0931 27.3548 25.3037 27.5633C25.465 27.7223 29.2782 31.426 33.1431 27.5633C33.3537 27.3526 33.6933 27.3526 33.904 27.5633C34.1146 27.7739 34.1146 28.1135 33.904 28.3242C32.3542 29.874 30.7979 30.3899 29.4115 30.3899Z" fill="#292F33"/>
<path d="M24.8182 63.8984C24.4205 63.8984 24.04 63.677 23.853 63.2965C18.965 53.3335 9.247 56.5255 8.83644 56.6631C8.27327 56.8587 7.66495 56.5578 7.47149 55.9946C7.27804 55.4336 7.57467 54.8252 8.1357 54.6296C8.25392 54.5866 20.0505 50.6638 25.7833 62.3507C26.0455 62.8817 25.8263 63.5265 25.2911 63.7888C25.1384 63.8618 24.9751 63.8984 24.8182 63.8984ZM33.6334 63.8984C33.4936 63.8984 33.3496 63.8704 33.2142 63.8124C32.6661 63.5803 32.4124 62.9504 32.6446 62.4045C37.4918 51.0098 50.1439 54.5781 50.2664 54.6167C50.836 54.7823 51.1606 55.3777 50.9951 55.9473C50.8296 56.5212 50.2169 56.8372 49.6645 56.6803C49.2196 56.5492 38.7105 53.628 34.6221 63.2449C34.448 63.6512 34.0504 63.8984 33.6334 63.8984Z" fill="#934035"/>
</svg>
