<svg width="152" height="175" viewBox="0 0 152 175" fill="none" xmlns="http://www.w3.org/2000/svg">
<path d="M78.0672 128.611C78.7328 143.277 64.2274 163.146 49.7594 174.398C50.1096 131.727 50.3242 105.541 50.3242 105.541C50.3242 105.541 55.658 101.225 63.1075 104.401C70.5558 107.577 77.5397 116.979 78.0672 128.611Z" fill="#67B030"/>
<path d="M78.7397 106.32L73.4904 113.338C73.4904 113.338 75.2567 116.507 76.0653 119.215C70.0768 119.489 58.6485 108.815 65.2487 105.375C68.2442 107.175 69.3772 108.529 69.3772 108.529L75.0359 102.139L78.7397 106.32Z" fill="#FABD99"/>
<path d="M75.2869 116.57C75.2869 116.57 76.0524 118.609 76.6631 120.597C69.1577 119.859 63.8536 117.78 60.6071 112.955C57.3594 108.13 63.1076 104.401 63.1076 104.401C63.1076 104.401 65.1058 105.01 66.453 106.116C64.8852 106.418 62.8896 110.137 65.4079 112.578C69.7551 116.784 75.2869 116.57 75.2869 116.57Z" fill="#FAFBF4"/>
<path d="M75.6245 109.87L73.4288 112.82C73.4288 112.82 72.0422 109.971 69.2273 109.98C70.6092 107.891 71.8409 106.518 71.8409 106.518L75.6245 109.87Z" fill="#EAA376"/>
<path d="M3.56233 82.3462C3.56233 82.3462 -0.419848 75.4637 0.0362625 74.8354C0.640642 74.2575 7.77759 76.582 7.77759 76.582C7.77759 76.582 8.47244 80.7316 3.56233 82.3462Z" fill="#FDE097"/>
<path d="M3.56216 82.3462C3.56216 82.3462 3.39881 82.0635 3.13997 81.6049C5.88795 78.9317 5.83203 77.6657 5.83203 77.6657C5.83203 77.6657 2.24031 75.7496 0.109591 75.071C2.04744 74.8543 8.14463 77.5212 8.14463 77.5212C8.14463 77.5212 8.47227 80.7316 3.56216 82.3462Z" fill="#EDCD7F"/>
<path d="M38.8908 100.402C38.8908 100.402 13.6241 92.6624 3.56231 82.3465C4.75473 81.8816 5.92108 80.3801 5.64622 79.3906C7.03529 78.9288 8.14887 77.5718 7.77757 76.5823C11.5631 79.0262 31.4919 89.9452 40.9829 90.4038C42.796 95.2194 38.8908 100.402 38.8908 100.402Z" fill="#D5391A"/>
<path d="M40.9826 90.4037C41.7632 92.4738 41.4833 94.613 40.9129 96.3784C36.2283 95.3983 13.6348 86.1662 5.66945 79.5161C5.66317 79.4753 5.65752 79.4313 5.64589 79.3905C7.03496 78.9287 8.14854 77.5716 7.77724 76.5822C11.5628 79.0261 31.4916 89.9451 40.9826 90.4037Z" fill="#F1501B"/>
<path d="M39.5847 100.958C41.0457 101.297 43.0388 101.872 44.5843 100.521C45.2459 99.9434 47.2441 97.1854 45.8151 94.2672C45.0229 92.6494 42.012 91.9395 42.012 91.9395L39.5847 100.958Z" fill="#FABA74"/>
<path d="M33.0323 98.4357L34.793 99.0891C34.793 99.0891 39.4308 96.2902 38.3056 90.2841C37.6607 90.0579 36.554 89.7344 36.554 89.7344C36.554 89.7344 41.4494 88.3428 42.9066 92.2694C43.92 94.996 41.5338 99.3875 39.5106 100.795C38.0043 101.841 33.6961 100.631 33.0323 98.4357Z" fill="#D9DAD7"/>
<path d="M56.5949 127.605C56.5949 127.605 34.7314 124.188 24.3976 98.2158C25.6233 98.2252 27.7939 97.4085 28.1712 96.4535C26.3681 95.6934 25.4731 95.2536 25.4731 95.2536C25.4731 95.2536 28.7517 85.1041 26.0037 83.7754C24.3134 82.9587 23.3942 86.0779 23.1178 87.2371C22.832 86.1753 23.4153 83.5743 22.4362 83.122C20.5109 82.2267 19.5371 85.4874 19.2807 86.5805C17.7418 85.3617 15.8012 86.8695 16.1338 89.0559C13.3686 88.5847 14.4376 93.6327 15.2295 95.0525C16.6198 97.5498 17.9683 100.43 17.9683 100.43C17.9683 100.43 30.3506 129.65 54.9897 133.935C56.8587 129.584 56.5949 127.605 56.5949 127.605Z" fill="#FABD99"/>
<path d="M72.9511 131.212C66.395 126.952 60.5249 128.909 52.3498 124.141C50.5065 123.773 45.129 138.76 47.3181 140.051C55.0465 143.978 63.7485 146.566 72.0637 142.636C76.6864 140.453 74.8089 132.421 72.9511 131.212Z" fill="#67B030"/>
<path d="M69.0379 7.54021C93.5121 -9.03937 134.912 3.05133 146.572 30.8295C155.091 51.1252 142.913 57.568 142.913 57.568C142.913 57.568 157.164 59.7166 149.638 80.3861C147.573 86.0592 131.443 115.05 97.9548 107.37C97.9548 107.37 99.9843 82.4216 87.2889 73.758C73.3898 67.1959 50.4897 56.0727 50.4897 56.0727C47.5859 23.5355 60.2873 13.4709 69.0379 7.54021Z" fill="#EF3120"/>
<path d="M118.651 91.5692C106.78 112.298 79.8931 115.223 59.9341 103.792C39.9767 92.3608 34.5141 70.9091 46.3871 50.1799C58.2567 29.4539 83.628 22.6625 103.586 34.0935C123.545 45.5246 130.522 70.8463 118.651 91.5692Z" fill="#FABD99"/>
<path d="M78.1029 61.058C76.3293 62.8642 77.8503 69.797 73.9803 69.6588C71.5848 69.5771 69.9507 66.5489 73.0031 64.3029C74.7719 63.0024 78.1029 61.058 78.1029 61.058Z" fill="#F36457"/>
<path d="M83.3586 86.6276C82.1385 88.7606 84.3761 92.3353 88.3564 94.6127C92.3376 96.8933 96.5541 97.0127 97.7745 94.8797C98.9942 92.7468 96.7564 89.1721 92.7758 86.8946C88.7955 84.6141 84.5793 84.4947 83.3586 86.6276Z" fill="#F36457"/>
<path d="M42.4167 63.1876C41.1963 65.3206 43.4345 68.8953 47.4157 71.1759C51.3963 73.4533 55.6125 73.5726 56.8329 71.4429C58.0536 69.31 55.8155 65.7352 51.8349 63.4546C47.8539 61.1772 43.6374 61.0579 42.4167 63.1876Z" fill="#F36457"/>
<path d="M67.6257 45.1347C68.6161 40.9631 61.6965 37.5297 56.0146 42.4113C60.8343 40.8752 67.6257 45.1347 67.6257 45.1347Z" fill="#EF3120"/>
<path d="M100.58 64.0014C103.675 61.0361 110.14 65.2642 108.807 72.6336C107.691 67.7018 100.58 64.0014 100.58 64.0014Z" fill="#EF3120"/>
<path d="M116.42 90.7398C116.42 90.7398 119.317 86.807 124.816 88.9839C130.614 91.2833 128.937 99.6108 123.713 102.309C118.493 105.001 112.378 101.81 112.285 97.4496L116.42 90.7398Z" fill="#FABD99"/>
<path d="M124.881 91.4214C121.645 88.9178 115.467 93.6768 118.589 99.4788C118.874 93.9721 121.54 93.4318 122.989 96.8935C123.72 95.4328 123.309 94.0538 121.076 93.0831C122.248 91.2549 124.881 91.4214 124.881 91.4214Z" fill="#D37658"/>
<path d="M120.744 87.6391C120.744 87.6391 103.224 78.4603 120.331 58.2463C112.87 60.2033 93.4542 62.9362 80.7248 51.9575C76.617 48.4173 80.7343 41.5913 87.1497 39.2479C73.2797 42.7159 63.4473 39.1694 67.3145 33C60.8372 34.401 57.8499 36.5213 49.9628 44.3493C61.0552 10.4771 119.883 17.7617 130.432 61.0483C132.917 77.1567 120.744 87.6391 120.744 87.6391Z" fill="#EF3120"/>
<path d="M61.0327 69.5646C65.2658 68.1793 63.6255 73.199 69.4092 76.4345C75.3135 79.7391 78.8615 75.5298 79.5803 80.7569C80.1683 85.0227 68.3939 100.666 58.8379 95.0496C49.2156 89.3765 57.0018 70.8807 61.0327 69.5646Z" fill="#4E1F22"/>
<path d="M67.5356 95.2915C64.6934 96.5103 61.6678 96.7113 58.8378 95.0496C56.1869 93.4853 54.8585 90.9503 54.4083 88.0666C56.577 88.0792 59.1378 88.6917 61.9775 90.2874C64.685 91.8078 66.4557 93.5575 67.5356 95.2915Z" fill="#EE5B63"/>
<path d="M62.4171 69.3351C64.9624 69.4639 64.3807 73.6229 69.4092 76.4343C74.4971 79.2835 77.8347 76.5537 79.1207 79.0919C75.3895 81.853 70.9522 83.2792 66.9116 80.9012C62.9093 78.5453 61.9211 73.9685 62.4171 69.3351Z" fill="white"/>
<path d="M95.149 71.7667C99.5571 74.3363 98.4834 80.6062 98.6223 80.3675C100.682 76.8367 99.516 72.307 96.022 70.2683C92.5298 68.2297 88.0124 69.4453 85.9529 72.9761C85.8132 73.2148 90.4324 69.015 95.149 71.7667Z" fill="#69282E"/>
<path d="M61.5941 52.9191C66.0029 55.4918 64.9282 61.7586 65.0674 61.5199C67.1274 57.9891 65.9608 53.4594 62.4674 51.4207C58.9749 49.3852 54.4565 50.6009 52.398 54.1285C52.2595 54.3673 56.8781 50.1674 61.5941 52.9191Z" fill="#69282E"/>
<path d="M92.0582 89.8224C101.438 95.2159 113.453 91.9678 118.845 82.5912C124.234 73.2114 120.989 61.1961 111.611 55.8056C102.231 50.4152 90.2159 53.6602 84.8255 63.04C79.4338 72.4166 82.6794 84.432 92.0582 89.8224ZM45.7786 63.2253C55.1591 68.6157 67.1741 65.3708 72.5636 55.991C77.9546 46.6143 74.7097 34.5958 65.3299 29.2086C55.9522 23.815 43.936 27.0631 38.5456 36.4398C33.1536 45.8196 36.3998 57.8349 45.7786 63.2253ZM67.138 26.0641C78.2514 32.4472 82.0951 46.6866 75.7089 57.8003C75.4174 58.3092 75.1023 58.7961 74.7788 59.2736L80.875 62.7761C81.1241 62.2546 81.388 61.7395 81.6792 61.2337C88.0679 50.1168 102.306 46.275 113.418 52.6612C124.529 59.0474 128.376 73.2836 121.99 84.3974C115.603 95.5112 101.364 99.3561 90.2514 92.9699C80.7409 87.5041 76.5599 76.2898 79.5529 66.2032L72.4838 62.1384C65.2761 69.8031 53.4816 71.8355 43.9721 66.3697C32.8574 59.9835 29.0122 45.7473 35.4012 34.6335C41.7889 23.5197 56.0239 19.6748 67.138 26.0641Z" fill="#232122"/>
</svg>
