<svg width="60" height="80" viewBox="0 0 60 80" fill="none" xmlns="http://www.w3.org/2000/svg">
<path d="M41.5749 37.1094H32.0203C28.0196 37.1094 22.1668 40.4653 19.815 42.5784C17.6885 44.4884 10.3408 49.9462 10.3408 55.5245C10.3408 66.0474 22.3453 79.9999 22.3453 79.9999H44.5514C44.5514 79.9999 49.0141 60.545 49.0141 44.5464C49.0141 40.6728 45.5756 37.1094 41.5749 37.1094Z" fill="#9268CA"/>
<path d="M38.1944 38.7051C37.7972 41.1238 35.345 45.948 29.1843 52.1087C23.606 57.687 16.912 58.8026 16.912 58.8026C16.912 58.8026 9.19834 60.5096 10.8808 53.7821C11.8625 49.8506 16.7179 49.6921 20.1542 45.0309C23.6016 40.354 30.9582 38.1428 33.647 37.605C39.2253 36.4894 38.1944 38.7051 38.1944 38.7051Z" fill="#FFDC5D"/>
<path d="M20.114 53.4073C18.5253 54.6524 17.0437 54.5096 15.9659 53.6171C14.1898 52.1444 11.4944 52.0708 11.298 52.6665C11.3493 54.9559 13.7882 55.9756 14.2344 58.3698C14.25 58.4523 14.2746 58.5349 14.2947 58.6197C15.5576 59.0481 16.912 58.8027 16.912 58.8027C16.912 58.8027 18.1883 58.555 19.4535 58.1132C21.0578 52.8629 23.2668 52.8874 24.0612 51.0979C24.3267 50.4954 21.4661 52.3474 20.114 53.4073ZM21.9213 13.0694C23.5368 16.9519 21.7205 21.3923 17.867 22.9899C14.0113 24.592 9.57987 22.7467 7.96886 18.8642C6.35561 14.9839 8.17191 10.5413 12.0276 8.94145C15.8834 7.34159 20.3148 9.1869 21.9213 13.0694Z" fill="#FFAC33"/>
<path d="M28.3208 33.7245L29.7466 39.3876C30.3223 41.677 29.9006 43.5312 33.2743 43.6606C35.6306 43.7499 38.8147 39.5416 38.239 37.25L36.8155 31.5869L28.3208 33.7245Z" fill="#FFDC5D"/>
<path d="M28.3208 33.7251L29.9586 40.4057C36.9471 37.418 37.1792 32.1074 37.1792 32.1074L28.3208 33.7251Z" fill="#FFCC4D"/>
<path d="M16.0686 10.2891C16.0686 10.2891 19.0943 17.5699 12.5967 21.2806L16.053 29.599C18.8868 36.409 22.747 41.2889 29.5659 38.4529C36.3871 35.6191 43.5742 26.1516 40.7404 19.3416L37.8821 12.4557C22.4279 18.275 16.0686 10.2891 16.0686 10.2891Z" fill="#FFDC5D"/>
<path d="M18.4717 32.614L17.6082 32.9732C17.2288 33.1294 16.7937 32.9554 16.6353 32.5716C16.4813 32.1923 16.6576 31.7594 17.0347 31.6032L17.9005 31.244C18.282 31.0833 18.7171 31.2663 18.8733 31.6434C19.0318 32.0249 18.8488 32.4533 18.4717 32.614Z" fill="#BF6952"/>
<path d="M18.8956 26.8103C18.1392 27.1249 17.269 26.7634 16.9544 26.0092L16.3809 24.6347C16.0663 23.8828 16.4278 23.0081 17.1864 22.6957C17.9451 22.3788 18.8175 22.7425 19.1299 23.4945L19.7011 24.869C20.0135 25.6232 19.6565 26.4956 18.8956 26.8103Z" fill="#662113"/>
<path d="M19.6454 35.9808C20.3282 36.8064 21.0734 37.4981 21.8767 38.0358C24.8354 36.3289 25.0407 33.7383 25.0407 33.7383L19.786 35.9227L19.6454 35.9808Z" fill="#DF1F32"/>
<path d="M28.3186 26.4707L24.2285 19.8793C24.2285 19.8793 12.9291 22.6529 9.54642 16.1999C6.16373 9.74913 14.7856 3.74686 20.5826 1.70743C26.3795 -0.334236 35.6953 -2.77531 41.4053 8.98378C46.6935 19.8771 39.888 29.2799 37.9021 31.8058C37.9021 31.8058 35.0081 29.5455 34.1736 27.8987C33.339 26.2498 34.5574 22.0705 32.7232 20.7674C30.9805 19.5313 27.2163 20.7987 28.3186 26.4707Z" fill="#FFAC33"/>
<path d="M39.9081 11.3687C38.3864 8.18464 42.3961 2.92987 47.1242 3.41183C51.8546 3.89157 57.4151 8.58628 55.1034 14.7581C52.8967 20.66 54.5523 25.2052 59.1221 25.0512C59.1221 25.0512 56.507 28.6548 52.0532 26.033C47.4054 23.2996 50.0383 14.6555 46.6958 12.9217C45.0179 12.0493 42.7932 11.7949 41.8962 12.8459C41.0059 13.8946 39.9081 11.3687 39.9081 11.3687Z" fill="#FFAC33"/>
<path d="M24.7618 71.8931C27.2274 71.9088 33.5488 71.0921 37.7415 70.0545C34.4904 67.8366 26.7053 62.5974 23.3271 60.9619C19.0028 58.8689 10.9165 51.8982 9.31213 50.2247C7.70781 48.5512 3.87216 48.8301 1.8595 51.7576C0.429224 53.8395 -1.48525 61.455 1.85058 67.5867C5.7487 74.7537 12.4918 79.946 21.3613 79.946C23.7042 79.946 25.7749 79.647 27.6112 79.1695C22.5841 78.6831 21.7964 71.8753 24.7618 71.8931Z" fill="#77B255"/>
<path d="M28.0687 80.0003H22.3454C17.673 80.0003 11.6127 76.3052 12.5989 72.9582C13.5807 69.6224 16.2895 71.8738 20.2613 71.8738C22.4926 71.8738 24.7641 71.8961 24.7641 71.8961C24.7641 71.8961 26.5469 77.3762 28.0687 80.0003Z" fill="#FFDC5D"/>
</svg>
