<svg width="82" height="80" viewBox="0 0 82 80" fill="none" xmlns="http://www.w3.org/2000/svg">
<path d="M50.4979 72.9537L0 41.6796L13.7646 0L55.4465 13.7646L50.4979 72.9537Z" fill="#55ACEE"/>
<path d="M46.0921 66.5101C45.2466 66.5101 44.4311 66.0458 44.0244 65.2372L14.6401 6.87514C14.0649 5.73618 14.5246 4.3454 15.6636 3.77245C16.8049 3.1972 18.1933 3.65694 18.7663 4.7959L48.1529 63.1625C48.7258 64.3015 48.2684 65.69 47.1271 66.2652C46.7968 66.4316 46.441 66.5101 46.0921 66.5101Z" fill="#226699"/>
<path d="M5.8404 41.051C4.99484 41.051 4.18162 40.5867 3.77502 39.7804C3.19976 38.6414 3.6595 37.2506 4.79847 36.6777L48.5711 14.6377C49.7032 14.0602 51.0986 14.5222 51.6738 15.6612C52.2468 16.8001 51.7893 18.1909 50.6504 18.7639L6.87771 40.8038C6.54272 40.9725 6.18925 41.051 5.8404 41.051Z" fill="#226699"/>
<path d="M61.8574 80.0002C56.2204 80.0002 51.4127 77.0707 47.5361 71.2581C46.8268 70.1977 47.1133 68.763 48.176 68.0538C49.2341 67.3445 50.6688 67.631 51.3803 68.6937C54.9936 74.1067 59.1405 76.1513 64.4195 75.1186C66.6027 74.6935 68.5618 72.8545 69.6638 70.1931C71.2833 66.2818 70.7496 61.719 68.2314 57.9902C63.597 51.1264 61.8158 42.3104 63.4654 34.4024C64.8862 27.5732 68.6404 22.0563 74.319 18.45C75.3956 17.7684 76.8233 18.0849 77.5072 19.1615C78.1933 20.2381 77.8722 21.6659 76.7956 22.3497C70.983 26.0415 68.7975 31.4545 67.9866 35.345C66.5912 42.0563 68.1136 49.5554 72.0642 55.405C75.451 60.4229 76.151 66.6122 73.9378 71.9627C72.2421 76.0565 69.0146 78.9351 65.3066 79.6536C64.1215 79.8846 62.9756 80.0002 61.8574 80.0002Z" fill="#3B88C3"/>
<path d="M71.4798 69.9571C69.6754 64.2161 64.9948 59.6025 61.876 65.1633C58.7756 70.6894 64.2786 73.1476 70.4632 71.4934C72.2676 77.2344 76.9482 81.848 80.067 76.2872C83.1674 70.7611 77.6667 68.3029 71.4798 69.9571ZM68.1876 53.6951C73.6791 56.1578 80.2357 55.7189 78.1472 49.696C76.0726 43.7078 70.5811 46.1913 67.7117 51.9162C62.2202 49.4534 55.6637 49.8924 57.7521 55.9153C59.8268 61.9035 65.3183 59.4199 68.1876 53.6951ZM65.2744 38.4543C68.4048 43.5946 74.058 46.9468 75.7491 40.7992C77.4287 34.6885 71.4982 33.6258 65.8912 36.7192C62.7608 31.5812 57.1076 28.2267 55.4165 34.3743C53.7346 40.485 59.6673 41.5477 65.2744 38.4543ZM71.9672 23.3058C71.6623 29.3171 74.4484 35.2684 79.3069 31.1376C84.1331 27.0323 79.8291 22.816 73.4527 22.2177C73.7577 16.2064 70.9715 10.2551 66.113 14.3859C61.2868 18.4912 65.5932 22.7075 71.9672 23.3058Z" fill="#9266CC"/>
</svg>
