<svg width="165" height="309" viewBox="0 0 165 309" fill="none" xmlns="http://www.w3.org/2000/svg">
<path opacity="0.4" d="M33.7262 299.123C21.6816 299.476 -4.18143 306.207 16.7188 307.626C37.6261 309.043 97.152 307.626 110.26 307.626C123.367 307.626 120.178 299.123 95.3781 298.766C70.571 298.413 33.7262 299.123 33.7262 299.123Z" fill="#E9E9E9"/>
<path d="M28.4561 272.21C25.9519 272.21 23.9264 270.181 23.9264 267.683C23.9264 265.184 25.9519 263.156 28.4561 263.156H102.097C104.601 263.156 106.627 265.184 106.627 267.683C106.627 270.181 104.601 272.21 102.097 272.21H28.4561Z" fill="#EF3726"/>
<path d="M28.4561 196.979C25.9519 196.979 23.9264 194.953 23.9264 192.455C23.9264 189.952 25.9519 187.927 28.4561 187.927H102.097C104.601 187.927 106.627 189.952 106.627 192.455C106.627 194.953 104.601 196.979 102.097 196.979H28.4561Z" fill="#EF3726"/>
<path d="M28.4561 234.594C25.9519 234.594 23.9264 232.565 23.9264 230.067C23.9264 227.568 25.9519 225.54 28.4561 225.54H102.097C104.601 225.54 106.627 227.568 106.627 230.067C106.627 232.565 104.601 234.594 102.097 234.594H28.4561Z" fill="#EF3726"/>
<path d="M31.7686 300.276C31.7686 302.778 29.7412 304.803 27.2473 304.803C24.7405 304.803 22.7195 302.778 22.7195 300.276V161.942C22.7195 159.443 24.7405 157.415 27.2473 157.415C29.7412 157.415 31.7686 159.443 31.7686 161.942V300.276Z" fill="#EF3726"/>
<path d="M107.599 300.276C107.599 302.778 105.572 304.803 103.073 304.803C100.573 304.803 98.5459 302.778 98.5459 300.276V161.942C98.5459 159.443 100.573 157.414 103.073 157.414C105.572 157.414 107.599 159.443 107.599 161.942V300.276Z" fill="#EF3726"/>
<path d="M1.32681 64.7011C1.32681 64.7011 -0.573194 55.4228 0.174137 54.8851C1.0798 54.4569 8.2618 59.7756 8.2618 59.7756C8.2618 59.7756 7.4828 64.727 1.32681 64.7011" fill="#FDE097"/>
<path d="M1.32548 64.701C1.32548 64.701 1.2495 64.3185 1.12916 63.7029C5.23973 61.7191 5.65776 60.2674 5.65776 60.2674C5.65776 60.2674 2.31986 56.7478 0.172729 55.1796C2.4402 55.6654 8.32422 60.9806 8.32422 60.9806C8.32422 60.9806 7.48184 64.727 1.32548 64.701Z" fill="#EDCD7F"/>
<path d="M0.177223 54.8848C0.485915 54.7355 1.5443 55.2772 2.80427 56.0452C1.96639 56.4925 1.04033 57.1017 0.170948 57.9087C-0.0243471 56.3432 -0.0873701 55.0725 0.177223 54.8848" fill="#1D1D20"/>
<path d="M34.4274 98.425C34.4274 98.425 8.79894 80.15 1.32532 64.701C2.84748 64.6232 4.73543 63.3696 4.80076 62.144C6.53851 62.1473 8.30892 61.036 8.26319 59.7752C11.6146 63.9686 30.0112 83.8221 40.5553 87.9215C40.7905 94.0434 34.4274 98.425 34.4274 98.425" fill="#1B67A8"/>
<path d="M40.5555 87.9225C40.6535 90.5575 39.53 92.8679 38.217 94.6472C33.2984 91.7692 11.2593 72.8171 4.77295 62.3012C4.77948 62.2489 4.79253 62.1973 4.79253 62.1451C6.53659 62.1483 8.30675 61.0372 8.26102 59.7765C11.612 63.9701 30.0062 83.823 40.5555 87.9225" fill="#1180CE"/>
<path d="M34.9932 99.3195C36.5215 100.253 38.5548 101.653 40.8112 100.71C41.7754 100.308 45.0746 97.9421 44.5564 94.1115C44.2744 91.9857 41.1457 90.0442 41.1457 90.0442L34.9932 99.3195" fill="#F046A4"/>
<path d="M28.5435 93.9958L30.29 95.3989C30.29 95.3989 36.5827 93.9893 37.5769 86.775C36.9359 86.2759 35.8042 85.4949 35.8042 85.4949C35.8042 85.4949 41.8614 85.7703 42.0249 90.7547C42.1427 94.2156 37.7863 98.2797 34.9735 99.1032C32.8804 99.7187 28.465 96.7274 28.5435 93.9958" fill="#D9DAD7"/>
<path d="M55.0503 110.961C55.0503 110.961 35.642 111.991 22.043 91.5485C23.1558 91.6909 24.4872 91.5452 24.6396 90.6569C23.3876 89.5229 22.4338 88.8062 22.4338 88.8062C22.4338 88.8062 23.4009 79.4862 20.8043 78.8443C19.2013 78.4489 18.976 81.2972 18.9496 82.3411C18.5124 81.482 18.5389 79.1424 17.6182 78.9285C15.7966 78.5105 15.5515 81.4886 15.5316 82.4736C13.9882 81.7092 12.5906 83.3553 13.2728 85.1736C10.8153 85.2742 12.6501 89.4156 13.5841 90.492C15.2335 92.3844 16.916 94.6174 16.916 94.6174C16.916 94.6174 32.8666 117.485 54.8251 116.694C55.6399 112.613 55.0503 110.961 55.0503 110.961" fill="#FABD99"/>
<path d="M55.0853 218.024L53.6023 224.937L48.9083 223.916L50.4973 217.02L55.0853 218.024Z" fill="#FABD99"/>
<path d="M54.5838 218.89L54.0081 220.97C54.0081 220.97 52.0625 218.458 49.9185 220.61C50.6993 217.736 50.8449 216.948 50.8449 216.948L54.5838 218.89Z" fill="#EAA376"/>
<path d="M54.2945 221.907C53.9766 222.763 50.7123 223.012 49.4277 221.726C49.6263 220.848 49.825 219.852 49.825 219.852C49.825 219.852 47.6134 221.736 46.5341 220.757C43.3757 217.882 38.3036 217.403 37.6282 222.575C37.3435 224.876 40.2172 227.737 45.1502 229.328C50.3679 231.001 53.6985 230.463 54.2945 228.803C55.2281 226.179 54.2945 221.907 54.2945 221.907Z" fill="#6E2C28"/>
<path d="M45.1381 229.386C40.1214 227.773 37.1961 224.859 37.4873 222.519C37.5535 222.017 37.6726 221.579 37.8116 221.178C43.1394 228.055 51.7234 228.042 54.7215 227.802C54.6487 228.161 54.556 228.518 54.4369 228.852C53.8346 230.543 50.4461 231.091 45.1381 229.386" fill="white"/>
<path d="M86.553 216.729L86.1918 223.787L81.395 223.525L81.8652 216.466L86.553 216.729Z" fill="#FABD99"/>
<path d="M86.199 217.662L85.9606 219.804C85.9606 219.804 83.6447 217.636 81.8601 220.105C82.1802 217.14 82.2007 216.34 82.2007 216.34L86.199 217.662" fill="#EAA376"/>
<path d="M86.3926 220.685C86.2152 221.58 83.0291 222.344 81.5623 221.282C81.6168 220.381 81.6509 219.37 81.6509 219.37C81.6509 219.37 79.7679 221.58 78.5535 220.786C74.9717 218.453 69.889 218.79 70.0459 224.001C70.1278 226.318 73.423 228.686 78.5467 229.468C83.9706 230.291 87.1703 229.225 87.491 227.495C87.9958 224.753 86.3926 220.685 86.3926 220.685" fill="#6E2C28"/>
<path d="M78.5473 229.546C73.3086 228.745 69.9457 226.327 69.8639 223.962C69.8434 223.453 69.8912 222.999 69.9662 222.578C76.3509 228.544 84.8501 227.16 87.79 226.438C87.7764 226.807 87.7355 227.177 87.6741 227.527C87.3467 229.296 84.0793 230.385 78.5473 229.546Z" fill="white"/>
<path d="M49.8414 158.549C49.8414 158.549 50.0801 183.691 47.9797 216.828C48.839 217.687 53.8172 220.465 57.6019 218.459C60.6161 212.233 64.7351 200.644 69.6247 178.995C72.1138 195.371 75.0802 209.374 77.2897 216.955C85.5821 217.049 87.4984 216.005 87.4984 216.005C87.4984 216.005 86.796 162.986 85.5071 158.533C79.3287 157.525 49.8414 158.549 49.8414 158.549" fill="#77AFC3"/>
<path d="M75.8491 175.168C76.0515 174.886 72.11 178.996 63.1066 178.613C68.0875 180.143 72.9739 179.096 75.8491 175.168Z" fill="#5692AD"/>
<path d="M59.5388 215.584C59.5388 215.584 53.436 216.589 47.6856 213.711C47.3266 216.158 47.4728 217.81 47.4728 217.81C47.4728 217.81 51.3752 220.228 58.176 219.46C59.1798 217.376 59.5388 215.584 59.5388 215.584Z" fill="#396278"/>
<path d="M88.1426 213.967C88.1426 213.967 82.4719 216.446 76.1938 215.079C76.4532 217.535 76.9991 219.103 76.9991 219.103C76.9991 219.103 81.3733 220.484 87.7742 218.06C88.2382 215.791 88.1426 213.967 88.1426 213.967" fill="#396278"/>
<path d="M67.896 111.486C68.4788 109.668 69.6445 106.194 70.8643 103.617C74.7001 104.388 76.1369 104.962 76.1369 104.962C76.1369 104.962 74.9712 109.616 73.9004 113.897C78.5156 115.929 80.5894 117.319 80.5894 117.319L70.5322 117.89C70.5322 117.89 64.4465 117.076 61.4307 109.464C64.0466 110.274 65.8426 110.728 67.896 111.486Z" fill="#FABD99"/>
<path d="M70.1419 105.27C70.2297 105.299 70.3039 105.322 70.3849 105.357C70.5401 104.881 70.7359 104.294 70.9519 103.64C74.7182 104.395 76.1357 104.962 76.1357 104.962C76.1357 104.962 75.292 108.329 74.3807 111.972C73.942 111.913 73.4966 111.846 73.0241 111.762C71.8699 111.56 70.1352 110.783 68.4747 109.72C68.9337 108.378 69.5142 106.774 70.1419 105.27" fill="#EAA376"/>
<path d="M85.042 119.041C87.4872 120.48 98.6872 131.972 96.8206 142.174C94.9539 152.373 82.3074 151.365 82.3074 151.365L83.1684 146.193C83.1684 146.193 89.347 147.058 91.0759 140.589C92.7979 134.127 84.5598 127.084 84.5598 127.084L85.042 119.041" fill="#FABD99"/>
<path d="M85.4693 119.329C85.4693 119.329 84.035 117.89 79.0012 116.024C79.1514 117.602 69.5209 116.957 62.4379 109.558C57.0967 108.262 54.3919 108.411 54.3919 108.411C54.3919 108.411 47.4935 143.658 42.323 156.109C55.3482 162.046 75.2719 168.557 89.2533 159.745C87.5321 148.83 85.4693 119.329 85.4693 119.329Z" fill="#C5259A"/>
<path d="M61.05 44.4818C56.7028 39.17 49.5131 45.6614 56.3833 51.4558C58.1009 50.1663 61.05 44.4818 61.05 44.4818Z" fill="#EAA376"/>
<path d="M56.8057 47.0547C41.2531 58.855 35.1247 84.6417 66.0996 106.66C96.9006 128.548 124.826 112.208 139.263 90.4977C156.684 64.2994 120.74 30.0344 101.754 19.3808C72.1265 2.74522 74.5387 33.6122 56.8057 47.0547Z" fill="#FABD99"/>
<path d="M46.4957 60.0435C48.4059 55.6688 51.3112 51.8091 54.8243 48.7041C56.5608 49.3973 58.304 50.5902 60.6216 53.9089C64.5888 59.606 61.5099 65.7025 56.0599 67.4911C51.4114 69.0172 48.3992 64.6292 46.4957 60.0435Z" fill="#F8A191"/>
<path d="M59.137 61.3448C58.7047 61.4904 58.2791 61.2377 58.1927 60.7809C58.1062 60.3141 58.3856 59.8246 58.8178 59.669C59.2434 59.53 59.6756 59.7694 59.762 60.2329C59.8551 60.6931 59.5759 61.1892 59.137 61.3448Z" fill="#FBCCC0"/>
<path d="M69.0388 36.5461C60.4538 33.5418 61.4767 21.593 68.2863 21.9561C61.6813 17.7528 65.4441 10.9769 75.3661 14.557C75.388 3.97228 83.6515 -3.30848 93.4347 6.05679C94.0192 -0.863045 100.215 1.29741 101.121 4.16588C106.36 -3.06593 113.98 0.127666 114.521 6.08233C122.733 0.43161 135.117 6.2979 130.821 15.52C139.187 11.4956 144.703 22.922 142.804 24.9502C150.366 22.8467 153.486 28.3535 151.937 34.1643C160.514 31.4317 159.835 39.5571 156.372 42.2692C166.162 41.9353 165.629 54.0887 156.993 56.2791C166.863 58.859 166.432 68.724 155.707 64.4366C159.564 68.5165 160.134 81.9302 153.646 85.4599C161.975 90.5926 155.21 99.5341 149.504 93.0687C152.981 101.479 146.625 102.266 144.762 97.4211C143.527 104.175 133.824 117.598 125.225 112.922C123.208 124.456 110.948 120.402 110.115 117.21C100.354 127.937 87.9111 119.465 86.6252 114.961C78.5809 116.675 71.5011 105.41 77.938 101.119C71.9322 98.5456 75.5999 86.3958 80.8385 85.6732C78.2667 81.8104 81.9053 77.6268 86.6252 75.0564C77.6165 74.732 85.3393 64.8641 89.292 61.5908C80.5974 66.0923 76.7616 56.3894 81.9053 51.5607C69.996 54.782 69.0388 36.5461 69.0388 36.5461" fill="#201E1D"/>
<path d="M80.6878 65.3884C80.6878 65.3884 83.7003 59.7528 90.1723 61.2405C97.0019 62.8093 96.1077 72.8136 90.3373 77.4183C84.5669 82.0271 76.9257 80.3028 76.4786 74.8192L80.6878 65.3884" fill="#FABD99"/>
<path d="M90.4359 64.3041C86.5317 61.883 79.8242 69.3207 83.8583 75.9353C83.7557 68.9091 86.7642 67.6093 88.6992 71.6537C89.4239 69.638 88.8428 67.9888 86.2035 67.2784C87.4069 64.6959 90.4359 64.3041 90.4359 64.3041" fill="#D48A5B"/>
</svg>
