<svg width="145" height="190" viewBox="0 0 145 190" fill="none" xmlns="http://www.w3.org/2000/svg">
<path d="M28.8935 186.534C28.8935 186.534 23.6754 190.297 23.135 189.979C22.6197 189.54 23.9129 183.608 23.9129 183.608C23.9129 183.608 27.1963 182.712 28.8935 186.534Z" fill="#FDE097"/>
<path d="M28.8953 186.534C28.8953 186.534 28.6832 186.687 28.3346 186.933C25.9605 184.938 24.9451 185.087 24.9451 185.087C24.9451 185.087 23.6924 188.132 23.3186 189.902C22.9902 188.36 24.642 183.236 24.642 183.236C24.642 183.236 27.198 182.713 28.8953 186.534Z" fill="#EDCD7F"/>
<path d="M23.1316 189.981C22.9505 189.83 22.9908 189.022 23.1165 188.03C23.6295 188.423 24.2683 188.83 25.0077 189.143C24.0923 189.7 23.3227 190.093 23.1316 189.981Z" fill="#1D1D20"/>
<path d="M40.5627 156.636C40.5627 156.636 36.3823 177.6 28.8926 186.535C28.4213 185.613 27.1201 184.795 26.3414 185.096C25.8598 184.016 24.6764 183.231 23.9131 183.61C25.5729 180.364 32.7501 163.439 32.3454 155.763C36.0749 153.913 40.5627 156.636 40.5627 156.636Z" fill="#528B30"/>
<path d="M32.3449 155.763C33.9469 154.967 35.6918 155.02 37.1612 155.336C36.748 159.186 31.151 178.119 26.4418 185.067C26.4112 185.077 26.3754 185.085 26.3448 185.097C25.8601 184.017 24.6764 183.231 23.9111 183.61C25.5744 180.364 32.7479 163.439 32.3449 155.763Z" fill="#67B030"/>
<path d="M40.9563 156.032C41.1102 154.829 41.4128 153.179 40.2025 152.044C39.6846 151.559 37.2999 150.173 35.0692 151.559C33.8282 152.328 33.5 154.809 33.5 154.809L40.9563 156.032Z" fill="#F799D1"/>
<path d="M39.4544 161.511L39.8392 160.041C39.8392 160.041 37.2123 156.534 32.4666 157.927C32.3384 158.465 32.1691 159.382 32.1691 159.382C32.1691 159.382 30.6504 155.554 33.6928 154.063C35.8066 153.026 39.5313 154.592 40.8293 156.106C41.7939 157.234 41.1731 160.798 39.4544 161.511Z" fill="#D9DAD7"/>
<path d="M61.0272 140.181C61.0272 140.181 60.0451 158.056 39.9789 168.478C39.8891 167.491 39.0548 165.81 38.2574 165.583C37.7874 167.096 37.5076 167.852 37.5076 167.852C37.5076 167.852 29.0745 166.036 28.2243 168.355C27.7068 169.781 30.2943 170.268 31.2501 170.398C30.4158 170.714 28.2771 170.455 27.9867 171.28C27.427 172.902 30.1306 173.421 31.0283 173.539C30.1729 174.876 31.5458 176.316 33.2778 175.872C33.1247 178.135 37.0957 176.865 38.1782 176.113C40.0739 174.792 42.2865 173.474 42.2865 173.474C42.2865 173.474 64.7976 161.14 66.255 140.96C62.6008 139.809 61.0272 140.181 61.0272 140.181Z" fill="#FABD99"/>
<path d="M62.6026 126.726C59.7038 132.348 61.7538 136.914 58.5774 143.881C58.4333 145.395 70.9254 148.508 71.7956 146.641C74.3261 140.103 75.7035 132.889 71.8704 126.515C69.735 122.972 63.4248 125.133 62.6026 126.726Z" fill="#2057AF"/>
<mask id="mask0_116_2889" style="mask-type:alpha" maskUnits="userSpaceOnUse" x="0" y="0" width="145" height="141">
<path d="M144.136 0H0V140.987H144.136V0Z" fill="#DBF3F6"/>
</mask>
<g mask="url(#mask0_116_2889)">
<path d="M37.7405 120.576C37.7405 120.576 27.508 120.894 15.8764 113.126C14.8501 110.766 14.891 109.645 14.4723 107.713C14.0485 105.781 12.4911 106.192 12.2869 107.869C10.2802 105.344 7.68124 102.874 6.76216 103.725C5.83286 104.578 9.34071 107.301 9.34071 107.301C9.34071 107.301 4.79125 104.281 4.08662 105.434C3.49432 106.387 7.81912 108.596 7.81912 108.596C7.81912 108.596 3.51984 107.456 3.41261 108.708C3.3207 109.959 7.54342 111.096 7.54342 111.096C7.54342 111.096 3.78024 110.912 4.1683 112.203C4.55125 113.496 8.66161 113.609 8.66161 113.609C8.66161 113.609 10.3262 115.87 13.2111 115.957C20.7323 121.849 25.9864 124.049 38.2358 125.613C38.1695 123.284 37.7405 120.576 37.7405 120.576Z" fill="#FABD99"/>
<path d="M51.6771 118.004C51.6771 118.004 44.5378 119.483 38.5969 118.65C37.0093 120.99 37.5955 127.028 38.0106 128.98C42.6958 131.13 50.1465 129.083 50.1465 129.083L51.6771 118.004Z" fill="#2057AF"/>
<path d="M70.2805 122.996C76.9492 132.822 75.3676 152.661 70.1576 166.541C52.3315 136.985 33.752 151.044 33.752 151.044C33.752 151.044 35.3283 115.421 49.7131 112.646C56.1468 111.404 64.985 115.201 70.2805 122.996Z" fill="#2057AF"/>
<path d="M61.2989 107.349L60.6559 114.409C60.6559 114.409 63.2118 115.844 64.9192 117.367C60.9089 120.093 48.5092 117.577 51.6025 112.41C54.4271 112.382 55.7814 112.836 55.7814 112.836L56.9777 106.034L61.2989 107.349Z" fill="#FABD99"/>
<path d="M63.261 115.875C63.261 115.875 64.6538 116.958 65.9147 118.069C60.4278 120.738 55.8959 121.552 51.6119 119.601C47.3279 117.65 49.7126 112.646 49.7126 112.646C49.7126 112.646 51.3481 112.22 52.7462 112.413C51.7913 113.283 51.9917 116.692 54.7615 117.307C59.5415 118.367 63.261 115.875 63.261 115.875Z" fill="#FAFBF4"/>
<path d="M60.5869 109.702L60.3248 112.666C60.3248 112.666 58.1593 111.289 56.2246 112.488C56.2928 110.463 56.5602 108.995 56.5602 108.995L60.5869 109.702Z" fill="#EAA376"/>
<path d="M7.11133 93.6259C7.11133 93.6259 10.0177 87.7344 10.6614 87.7612C11.3298 87.9117 13.0033 93.8809 13.0033 93.8809C13.0033 93.8809 10.4732 96.2605 7.11133 93.6259Z" fill="#FDE097"/>
<path d="M7.11328 93.6255C7.11328 93.6255 7.23206 93.383 7.42999 92.996C10.5227 93.6596 11.3688 93.0405 11.3688 93.0405C11.3688 93.0405 11.0373 89.6945 10.5276 87.9185C11.5668 89.1512 12.5268 94.5646 12.5268 94.5646C12.5268 94.5646 10.4732 96.2604 7.11328 93.6255Z" fill="#EDCD7F"/>
<path d="M10.6592 87.7615C10.8915 87.8124 11.2424 88.5588 11.6032 89.5142C10.9557 89.404 10.1847 89.3412 9.36914 89.4138C9.92766 88.4733 10.4318 87.7526 10.6592 87.7615Z" fill="#1D1D20"/>
<path d="M10.8924 126.177C10.8924 126.177 4.63457 105.266 7.11278 93.6248C7.97541 94.2311 9.54109 94.3448 10.0996 93.7015C11.052 94.445 12.493 94.5896 13.0066 93.8801C13.0615 97.6039 14.687 116.301 18.721 123.033C16.2427 126.488 10.8924 126.177 10.8924 126.177Z" fill="#1476C6"/>
<path d="M18.7221 123.033C17.6551 124.518 16.0545 125.307 14.5785 125.723C13.1125 122.055 9.10347 102.298 10.0259 93.777C10.0509 93.7536 10.0758 93.7291 10.1007 93.7017C11.0531 94.4451 12.4942 94.5897 13.0078 93.8802C13.0627 97.604 14.6882 116.301 18.7221 123.033Z" fill="#079BE2"/>
<path d="M10.8271 126.91C11.2611 128.069 11.7799 129.703 13.421 130.146C14.1144 130.336 16.9278 130.446 18.2796 128.128C19.0278 126.842 18.1349 124.446 18.1349 124.446L10.8271 126.91Z" fill="#F25EAE"/>
<path d="M9.55781 121.251L9.91756 122.761C9.91756 122.761 13.9646 124.666 17.5719 121.14C17.437 120.593 17.1522 119.685 17.1522 119.685C17.1522 119.685 20.3499 122.412 18.3163 125.213C16.9124 127.158 12.8004 127.529 10.9068 126.784C9.49785 126.228 8.3537 122.715 9.55781 121.251Z" fill="#D9DAD7"/>
<path d="M127.196 79.3026C132.385 84.8322 130.202 93.2264 122.955 90.0663C127.656 101.614 117.977 101.217 112.242 95.2742C111.469 106.31 103.671 103.138 100.886 96.2501C98.5044 105.445 90.8314 105.289 86.0401 98.1598C86.222 107.205 73.6725 103.737 73.4167 98.5071C72.8938 106.132 66.0791 108.606 61.4583 102.083C61.3617 106.702 51.1709 104.285 52.3588 99.8888C48.4427 103.829 39.5308 101.438 40.5482 96.2348C38.1326 97.9938 34.5234 95.7113 35.8534 93.327C29.9879 94.0119 22.8037 87.437 25.4523 83.2709C20.6894 83.5761 15.0228 74.6209 23.8552 71.7859C15.3184 69.0015 19.0866 63.452 24.003 64.5557C17.1201 61.2018 21.525 51.2452 29.8629 54.8298C24.9522 44.6839 30.7552 37.9704 40.5595 41.5841C45.7146 30.6379 78.4524 21.2548 94.5656 38.0562C110.537 44.0047 127.196 79.3026 127.196 79.3026Z" fill="#F08811"/>
<path d="M109.155 81.3582C106.933 103.253 85.3967 115.79 64.3106 113.647C43.2302 111.504 30.593 95.4941 32.8205 73.5965C35.0424 51.7033 53.8565 36.4798 74.937 38.6229C96.0231 40.7653 111.382 59.4651 109.155 81.3582Z" fill="#FABD99"/>
<path d="M106.962 81.4939C106.962 81.4939 107.933 77.098 113.378 76.8696C119.12 76.6327 120.826 84.2706 117.441 88.5003C114.057 92.7217 107.715 92.3265 105.997 88.6911L106.962 81.4939Z" fill="#FABD99"/>
<path d="M114.344 78.899C110.68 78.0035 107.262 84.3257 112.069 88.0384C110.245 83.2969 112.281 81.8432 114.801 84.2148C114.868 82.7098 114.004 81.7033 111.762 81.7222C112.063 79.7466 114.344 78.899 114.344 78.899Z" fill="#D37658"/>
<path d="M66.4133 72.5551C65.8062 74.7305 59.7724 76.6425 61.5989 79.5707C62.7338 81.3845 65.8009 81.299 66.1757 77.9411C66.3921 75.9953 66.4133 72.5551 66.4133 72.5551Z" fill="#F36457"/>
<path d="M77.1858 90.0356C76.9466 92.2115 80.0402 94.3432 84.1069 94.7983C88.1736 95.2522 91.6641 93.855 91.9033 91.6792C92.1479 89.5023 89.0489 87.3694 84.9877 86.916C80.9209 86.462 77.4305 87.8587 77.1858 90.0356Z" fill="#F36457"/>
<path d="M35.383 85.3659C35.1447 87.5432 38.2374 89.675 42.304 90.1293C46.3706 90.5836 49.8622 89.1865 50.1056 87.0097C50.3491 84.8339 47.2513 82.7017 43.1847 82.2474C39.1233 81.7941 35.6265 83.1902 35.383 85.3659Z" fill="#F36457"/>
<path d="M46.1723 58.5796C50.1019 57.4251 50.9677 61.7471 48.3548 61.7849C45.5502 61.8192 43.2174 62.8674 42.8648 62.6014C42.0872 62.0136 43.9587 59.2266 46.1723 58.5796Z" fill="#F08811"/>
<path d="M85.9134 63.4624C82.0745 62.0407 80.9142 66.2927 83.5168 66.5107C86.3146 66.7362 88.5702 67.9427 88.939 67.7008C89.7577 67.1678 88.0768 64.2594 85.9134 63.4624Z" fill="#F08811"/>
<path d="M52.1987 87.7687C55.3969 86.1461 56.139 89.3929 62.7703 90.1703C69.535 90.9637 70.8698 87.8221 73.8224 90.7368C76.2357 93.1154 72.557 104.518 61.4782 103.076C50.3193 101.614 49.1554 89.3123 52.1987 87.7687Z" fill="#4E1F22"/>
<path d="M69.4087 101.545C67.3905 102.804 64.7577 103.504 61.4787 103.077C58.4062 102.674 56.0914 101.449 54.4121 99.852C56.3668 99.4404 58.9413 99.3063 62.1991 99.6909C65.3034 100.058 67.6712 100.74 69.4087 101.545Z" fill="#EE5B63"/>
<path d="M53.3395 87.3684C55.6845 86.9552 57.0031 89.4959 62.7671 90.1712C68.6002 90.855 70.3975 88.619 72.6733 89.8543C72.2532 93.0149 67.0529 94.7589 62.3736 94.1506C57.7316 93.5429 52.9248 90.5003 53.3395 87.3684Z" fill="white"/>
<path d="M78.6111 74.5282C76.7674 78.0389 77.953 82.2957 81.2652 84.0394C84.5828 85.7803 88.7651 84.3482 90.6088 80.837C92.4525 77.3226 91.2614 73.0685 87.9493 71.3243C84.6372 69.5851 80.4548 71.0186 78.6111 74.5282Z" fill="white"/>
<path d="M79.081 75.5195C77.9451 77.6836 78.6808 80.3097 80.72 81.3845C82.7646 82.4587 85.3447 81.5754 86.486 79.4102C87.6219 77.2428 86.8862 74.6189 84.8416 73.543C82.797 72.4704 80.2223 73.3548 79.081 75.5195Z" fill="#231F20"/>
<path d="M83.5741 76.3501C83.4985 77.0623 83.9898 77.6919 84.6594 77.7583C85.3289 77.8237 85.9283 77.3058 86.0039 76.5942C86.0741 75.8852 85.5881 75.2545 84.9185 75.1822C84.249 75.1206 83.6443 75.6412 83.5741 76.3501Z" fill="white"/>
<path d="M79.6525 78.942C79.6095 79.3848 79.9105 79.7723 80.3297 79.8169C80.7435 79.8588 81.1197 79.5347 81.1627 79.0919C81.2003 78.6528 80.9047 78.261 80.4855 78.2197C80.0717 78.1772 79.6955 78.5018 79.6525 78.942Z" fill="white"/>
<path d="M92.187 75.5168C92.187 75.5168 87.5438 68.6259 79.6221 72.2105C87.7885 65.2245 92.187 75.5168 92.187 75.5168Z" fill="#6D3A2C"/>
<path d="M51.3236 71.242C52.279 75.0894 50.1087 78.9415 46.4793 79.8486C42.8448 80.751 39.122 78.3657 38.1718 74.5167C37.2112 70.6646 39.3816 66.8151 43.0109 65.9086C46.6455 65.0077 50.3683 67.3946 51.3236 71.242Z" fill="white"/>
<path d="M46.9821 71.649C47.5707 74.021 46.2334 76.3977 43.9926 76.9564C41.7517 77.513 39.4592 76.042 38.8654 73.6684C38.2768 71.2928 39.6141 68.9191 41.8498 68.36C44.0958 67.8039 46.3883 69.2759 46.9821 71.649Z" fill="#231F20"/>
<path d="M42.4245 71.388C42.3219 72.0968 41.7009 72.5921 41.0337 72.4971C40.3665 72.4017 39.9097 71.756 40.0021 71.0467C40.1047 70.3416 40.7258 69.8442 41.3878 69.9325C42.0602 70.0331 42.522 70.6823 42.4245 71.388Z" fill="white"/>
<path d="M45.6136 74.8368C45.5517 75.2776 45.165 75.5829 44.7474 75.5262C44.3349 75.4689 44.0462 75.0647 44.1132 74.6239C44.1802 74.1887 44.5618 73.8783 44.9743 73.9371C45.3868 73.9953 45.6755 74.399 45.6136 74.8368Z" fill="white"/>
<path d="M37.8955 68.9686C37.8955 68.9686 44.0485 63.3796 50.8858 68.7441C44.6135 60.0169 37.8955 68.9686 37.8955 68.9686Z" fill="#6D3A2C"/>
<path d="M82.4181 17.6594C87.465 9.53587 94.7524 8.93297 93.8458 19.0424C100.013 14.6792 102.034 18.1889 100.25 22.3113C106.729 16.9249 119.329 19.6516 115.298 29.53C119.427 28.0956 126.298 33.1494 122.1 36.8006C129.157 35.2051 136.179 43.0665 132.743 50.4983C141.069 52.0522 147.19 66.8043 135.884 67.6277C139.909 74.2465 136.716 82.6708 129.821 77.2156C132.119 85.7399 122.043 88.9107 118.024 79.0727C115.379 84.2478 105.447 80.167 104.748 77.3895C99.9898 84.089 97.4318 70.9521 100.729 67.5509C93.892 69.7383 90.7795 63.0699 92.6505 60.5523C86.414 66.9313 81.9792 56.3115 86.2408 53.8637C81.3902 55.5394 81.4364 49.702 84.7106 49.3203C80.5125 49.5519 78.7686 42.9274 83.4171 40.8613C79.9062 40.2503 71.0944 33.9347 71.181 42.179C71.2676 50.4226 65.0311 44.3687 63.2988 39.435C62.808 53.9462 53.6034 49.6252 50.3004 46.1859C53.7882 56.2543 46.1081 56.4755 43.4577 51.592C41.3846 57.1384 31.1869 54.8829 33.4678 49.7274C28.0802 51.6341 22.3115 43.3004 27.8435 40.5818C23.7263 38.9979 20.8217 29.5011 28.9175 30.2628C23.0391 26.5625 28.6519 25.448 31.4352 26.1C28.5595 20.4242 35.0904 12.6212 40.6108 16.5415C36.4359 7.11461 44.0986 6.69248 47.1822 9.54046C46.8415 3.32249 59.6147 -0.800461 61.6819 10.1508C66.3651 5.46658 69.1772 9.93893 68.8192 13.3794C74.253 5.63636 83.1226 7.15968 82.4181 17.6594Z" fill="#F9A71F"/>
</g>
</svg>
