<svg width="126" height="220" viewBox="0 0 126 220" fill="none" xmlns="http://www.w3.org/2000/svg">
<path d="M0.372084 105.487C0.441283 105.505 0.501816 105.497 0.549391 105.45C0.63589 105.387 0.653207 105.265 0.588332 105.182C-0.505887 103.77 0.553749 102.299 1.3409 101.649C1.42307 101.589 1.44036 101.464 1.37549 101.374C1.29764 101.3 1.18085 101.284 1.09867 101.352C0.203401 102.089 -0.990284 103.77 0.285584 105.42C0.307209 105.452 0.341809 105.467 0.372084 105.487Z" fill="#CE6748"/>
<path d="M52.5952 110.08C52.5952 110.08 52.9399 116.229 53.0089 117.923C46.5399 119.512 42.8938 119.757 42.8938 119.757L44.6946 129.409L66.5023 129.029L68.1611 117.948C68.1611 117.948 63.8215 118.345 58.0136 117.648C57.8839 114.207 57.7581 109.592 57.7581 109.592L52.5952 110.08" fill="#FABD99"/>
<path d="M57.8486 116.791C57.7248 113.786 57.617 109.76 57.617 109.76L53.1129 110.175C53.1129 110.175 53.4124 115.552 53.4723 117.026C54.5104 115.414 56.459 115.579 57.8486 116.791" fill="#EAA376"/>
<path d="M47.0039 119.29C45.3023 119.542 41.7426 119.457 37.2518 118.188C36.3784 120.359 35.0435 123.447 34.0259 127.176C34.751 127.898 37.6762 128.867 40.5561 130.903C40.4984 141.83 37.8987 160.842 32.4232 168.713C47.8855 168.713 69.6184 168.713 79.3952 168.713C79.8937 153.786 77.6401 144.241 73.8785 127.683C74.8138 127.343 76.2681 126.863 79.3087 124.55C77.4423 119.377 75.8355 117.253 74.9868 116.324C70.4878 116.831 64.4726 117.678 63.3643 117.596C65.6962 128.512 49.8796 130.903 47.0039 119.29" fill="#FBC327"/>
<path d="M59.3838 129.719C59.3838 130.379 58.848 130.903 58.193 130.903C57.5342 130.903 57.0062 130.379 57.0062 129.719C57.0062 129.064 57.5342 128.532 58.193 128.532C58.848 128.532 59.3838 129.064 59.3838 129.719Z" fill="#1E5BB2"/>
<path d="M60.0576 134.384C60.0576 135.041 59.5263 135.57 58.8721 135.57C58.2139 135.57 57.6826 135.041 57.6826 134.384C57.6826 133.724 58.2139 133.197 58.8721 133.197C59.5263 133.197 60.0576 133.724 60.0576 134.384Z" fill="#1E5BB2"/>
<path d="M49.208 118.523C49.8797 122.141 51.122 123.984 57.3418 127.01C55.0554 128.952 52.4251 130.903 52.4251 130.903C52.4251 130.903 44.8214 124.857 44.3722 119.202C45.9787 118.955 49.208 118.523 49.208 118.523" fill="#1E5BB2"/>
<path d="M60.9101 117.678C61.6718 119.377 61.8146 123.897 57.3437 127.01C59.9937 128.097 63.9608 129.462 63.9608 129.462C63.9608 129.462 67.7772 124.377 65.9126 117.253C63.5363 117.173 60.9101 117.678 60.9101 117.678" fill="#1E5BB2"/>
<path d="M55.8956 111.426L56.3633 114.972C56.1954 114.997 56.0355 115.014 55.8676 115.029C54.5926 115.117 53.4775 114.824 52.4983 114.32L52.4863 111.566L55.8956 111.426" fill="#EAA376"/>
<path d="M-8.449 99.1049C-13.4446 106.006 -9.37768 114.409 -1.56522 109.584C-4.89266 122.73 6.24724 120.319 11.793 112.87C14.7111 124.349 23.1574 119.399 25.1204 111.563C29.5658 120.768 38.4258 119.024 42.6687 110.519C44.1124 120.096 58.0075 113.854 57.3473 108.288C59.35 116.221 67.695 117.425 71.8499 109.597C72.805 114.449 84.1606 109.802 81.9819 105.412C87.2459 108.758 97.1271 104.402 94.9924 99.1252C98.1086 100.484 101.872 97.3338 99.8955 95.0922C106.81 94.6076 113.923 86.1948 110.094 82.3466C115.666 81.6873 120.586 71.0778 109.838 69.9061C119.213 65.2112 113.83 60.1337 108.342 62.3102C115.697 57.3578 108.764 47.7632 99.7679 53.2601C103.597 41.5489 95.6482 35.6646 84.9616 41.4916C76.9819 31.0097 37.3518 27.8539 21.7709 48.8899C4.36782 58.4524 -8.449 99.1049 -8.449 99.1049" fill="#3C2624"/>
<path d="M17.0292 87.2522C21.0009 107.426 42.123 117.213 61.5495 113.385C80.9761 109.56 91.3358 93.5689 87.364 73.3921C83.388 53.2208 64.5676 40.695 45.1411 44.5231C25.7145 48.3486 13.0531 67.0783 17.0292 87.2522" fill="#FABD99"/>
<path d="M19.0761 87.1869C19.0761 87.1869 17.7923 83.1817 12.7082 83.444C7.35029 83.7213 6.42163 90.9746 9.93938 94.6152C13.4571 98.2485 19.32 97.3289 20.5996 93.7983L19.0761 87.1869" fill="#FABD99"/>
<path d="M11.984 85.4156C15.3131 84.2636 19.0414 89.8454 14.897 93.7185C16.1836 89.1486 14.1581 87.9741 12.0222 90.4004C11.8269 89.0059 12.5403 87.9915 14.6295 87.8165C14.1794 86.005 11.984 85.4156 11.984 85.4156" fill="#D37658"/>
<path d="M55.8991 73.8219C56.6148 75.8055 62.368 77.1672 60.8691 80.0232C59.9427 81.7925 57.08 81.9249 56.4955 78.824C56.1576 77.0249 55.8991 73.8219 55.8991 73.8219Z" fill="#F36457"/>
<path d="M46.7413 89.1731C47.1202 91.1822 44.3818 93.3836 40.6263 94.0907C36.8708 94.7953 33.5188 93.7357 33.1441 91.727C32.7652 89.7154 35.5036 87.514 39.2591 86.8069C43.0146 86.1024 46.3666 87.1619 46.7413 89.1731Z" fill="#F36457"/>
<path d="M85.3658 81.9222C85.7422 83.9337 83.0061 86.1349 79.2494 86.8397C75.4926 87.5468 72.1434 86.4846 71.7669 84.4735C71.3866 82.4647 74.1265 80.2631 77.8794 79.5587C81.6362 78.8539 84.9854 79.9111 85.3658 81.9222" fill="#F36457"/>
<path d="M72.6046 60.1843C68.8649 59.3822 68.358 63.4701 70.7952 63.3227C73.4118 63.1605 75.6579 63.9747 75.966 63.7025C76.6523 63.1004 74.7103 60.6343 72.6046 60.1843" fill="#3C2624"/>
<path d="M39.0145 67.6884C42.4913 66.0993 43.8689 69.9795 41.4581 70.362C38.867 70.7667 36.8498 72.0458 36.489 71.8486C35.6895 71.4087 37.0548 68.5802 39.0145 67.6884Z" fill="#3C2624"/>
<path d="M68.6961 84.7311C65.6253 82.4372 65.5811 86.9823 59.9701 88.0289C54.2466 89.096 52.5143 84.686 50.4885 88.7536C48.8326 92.0695 54.13 108.068 63.4709 106.119C72.8802 104.143 71.6221 86.9148 68.6961 84.7311" fill="#4E1F22"/>
<path d="M56.3107 103.923C58.2934 105.7 60.7053 106.697 63.4709 106.119C66.0655 105.575 67.8456 103.873 69.0059 101.645C67.2337 101.057 64.9768 100.852 62.2232 101.372C59.5967 101.867 57.6696 102.806 56.3107 103.923Z" fill="#EE5B63"/>
<path d="M67.6289 84.1611C65.5188 83.5665 64.8461 87.1197 59.9692 88.029C55.0402 88.9511 53.0662 85.8052 51.3204 87.5193C53.6027 90.8002 56.83 93.1838 60.782 92.359C64.6939 91.537 66.76 88.0791 67.6289 84.1611" fill="white"/>
<path d="M40.2643 77.1327C35.959 78.0143 35.1128 83.4214 35.0635 83.1893C34.3569 79.7434 36.5547 76.3702 39.9645 75.6706C43.3742 74.971 46.7223 77.205 47.433 80.6505C47.4782 80.883 44.8695 76.1853 40.2643 77.1327" fill="#69282E"/>
<path d="M72.8236 71.0014C68.5205 71.8835 67.6723 77.2931 67.6215 77.0582C66.9141 73.6126 69.1146 70.2369 72.5227 69.5397C75.9347 68.8377 79.2841 71.0741 79.9916 74.5197C80.0385 74.7519 77.4277 70.0544 72.8236 71.0014Z" fill="#69282E"/>
<path d="M25.3778 23.0752C17.4276 16.0941 8.94669 17.5431 12.7109 27.7579C4.49762 24.9918 3.13706 29.2069 6.28906 32.9675C-2.5592 29.2318 -16.1967 35.641 -8.93123 44.7283C-14.0334 44.4185 -20.5052 51.6096 -14.7363 54.1983C-23.2127 54.5529 -29.1085 64.6974 -23.1809 71.4186C-32.2559 75.3992 -35.2628 92.4245 -22.1378 90.0607C-24.9497 98.064 -19.0266 105.885 -12.6365 98.2713C-12.9585 107.759 4.51124 107.716 6.44779 96.3801C10.8606 100.987 15.9673 94.3937 16.0171 91.3179C23.2508 96.9048 22.625 82.5649 17.9491 79.9789C26.3393 80.2986 28.0945 72.503 25.2735 70.429C34.1173 75.264 36.3032 62.998 30.7839 61.6742C36.7704 62.0311 35.1422 55.9947 31.3009 56.5317C36.1536 55.5775 37.6049 52.674 31.7453 51.8545C35.5867 50.2227 42.766 42.1073 46.2309 49.3732C50.0269 57.3412 53.9136 51.3048 54.5621 45.7002C59.0293 60.5998 64.9841 52.7688 67.8232 48.2662C66.5624 59.69 80.6307 54.5502 82.3314 48.7361C86.1954 53.8931 93.869 47.0671 89.878 42.3722C96.5357 42.8144 100.871 32.5398 93.8328 31.2958C98.1004 28.4821 98.8487 17.818 89.8146 20.9087C95.5244 15.4043 88.8168 15.8465 85.819 17.3132C87.5696 10.6147 78.0184 4.38552 72.7711 10.0201C74.9979 -0.936586 66.136 0.807205 63.3831 4.63767C62.0951 -1.90351 46.4123 -2.5407 47.0064 9.39287C40.3986 5.87443 38.3985 11.3067 39.7364 14.7698C31.4506 8.29353 21.7406 12.3961 25.3778 23.0752" fill="#503433"/>
<path d="M33.1965 125.986C25.2653 124.17 12.5639 119.852 1.24356 109.75C-0.847765 110.795 -3.18897 109.585 -5.94232 107.367C-8.38877 106.397 -9.88382 105.325 -9.31825 104.463C-8.73513 103.568 -6.10895 104.86 -5.42061 105.095C-5.49514 105.005 -8.53345 103.074 -9.17794 102.606C-10.6642 101.5 -9.80052 99.9404 -8.3537 100.658C-7.13924 101.255 -4.45165 102.817 -4.2982 102.889C-4.41219 102.777 -7.25324 100.328 -7.79251 99.8882C-9.35333 98.5712 -8.12133 96.6548 -6.29307 98.1165C-5.05669 99.1061 -2.93468 100.933 -2.7067 101.037C-2.72424 100.908 -3.95186 99.1859 -4.60951 98.1091C-5.69244 96.3426 -4.3289 95.1733 -2.77246 96.9547C-1.54047 98.3717 1.55924 101.6 1.55924 101.6C1.55924 101.6 2.1073 98.5738 3.77773 98.9035C5.44815 99.2284 4.32136 104.488 4.32136 104.488C4.32136 104.488 15.5759 115.62 34.9722 119.542C36.8706 119.927 33.4552 124.764 33.1965 125.986" fill="#FABD99"/>
<path d="M37.6768 118.163C36.7481 119.597 35.0146 125.491 34.5358 128.332C32.7487 127.575 31.2174 126.733 31.2174 126.733C31.2174 126.733 33.603 119.059 34.7876 117.568C36.3147 117.993 37.6768 118.163 37.6768 118.163" fill="#1E5BB2"/>
<path d="M78.0306 123.325C84.714 120.769 93.9263 115.02 104.042 102.234C106.258 102.964 108.401 101.447 110.818 98.8536C113.1 97.5494 114.424 96.2776 113.749 95.503C113.042 94.7007 110.625 96.3498 109.969 96.6749C110.038 96.5772 112.772 94.2335 113.343 93.6764C114.652 92.3795 113.579 90.9606 112.243 91.8749C111.131 92.6343 108.687 94.5683 108.556 94.666C108.644 94.5308 111.116 91.705 111.579 91.1853C112.938 89.6687 111.455 87.942 109.845 89.6436C108.756 90.8081 106.926 92.9192 106.71 93.0467C106.718 92.9169 107.691 91.0405 108.185 89.8783C109 87.9795 107.482 87.015 106.197 88.9965C105.181 90.5733 102.575 94.2162 102.575 94.2162C102.575 94.2162 101.598 91.2976 99.992 91.8625C98.3858 92.422 100.239 97.4667 100.239 97.4667C100.239 97.4667 92.1078 112.503 74.6367 117.183C75.1116 118.518 77.7487 121.711 78.0306 123.325Z" fill="#FABD99"/>
<path d="M72.9473 116.472C74.0855 117.738 76.6135 123.992 77.531 126.731C79.5674 125.544 80.4346 125.377 80.4346 125.377C80.4346 125.377 77.2561 116.894 75.8547 115.602C73.8261 115.894 72.9473 116.472 72.9473 116.472Z" fill="#1E5BB2"/>
<path d="M1.11671 132.108C-2.06589 135.426 -2.78135 139.319 -1.38083 144.656C21.5044 149.826 57.5537 146.855 57.5537 146.855C57.5537 146.855 53.105 142.83 30.2804 143.801C17.0471 144.366 2.47387 142.539 1.11671 132.108Z" fill="#C3B28C"/>
<path d="M72.6087 148.206C72.6087 148.206 69.3264 142.197 84.2894 138.774C100.358 135.098 106.421 133.132 105.747 125.558C110.182 130.016 107.32 138.893 107.32 138.893L72.6087 148.206" fill="#C3B28C"/>
<path d="M-12.6102 154.258C-13.3164 154.723 -24.6209 211.731 -23.6196 211.774C-11.8726 213.778 10.7498 217.936 34.6685 216.894C48.3376 198.714 62.999 164.275 62.999 164.275C62.999 164.275 39.5184 163.475 -12.6102 154.258" fill="#EF3320"/>
<path d="M77.8969 161.959C77.8969 161.959 125.048 139.484 125.576 139.698C126.1 139.916 91.4188 197.407 90.1855 198.459C88.9522 199.511 62.8234 208.686 47.0324 215.572C65.0602 185.591 77.8969 161.959 77.8969 161.959" fill="#EF3320"/>
<path d="M-10.7321 152.434C30.4012 158.893 70.3988 163.798 70.3988 163.798C70.3988 163.798 76.3138 146.312 57.4989 143.799C41.8059 141.702 8.61773 149.111 -9.55704 137.582C-7.98292 143.259 -6.69379 148.566 -10.7321 152.434Z" fill="#E8D8B4"/>
<path d="M70.3981 162.993C67.8066 155.895 69.7775 142.067 78.4069 139.856C92.8593 136.156 109.767 137.755 115.676 128.05C116.308 134.882 122.49 139.521 122.49 139.521L72.896 162.651C72.896 162.651 70.8665 164.28 70.3981 162.993Z" fill="#E8D8B4"/>
<path d="M58.8508 160.689C60.3944 153.233 75.1018 146.882 83.1758 157.491C78.5768 162.511 75.3274 163.305 70.008 164C62.215 165.019 58.8508 160.689 58.8508 160.689" fill="#F14E36"/>
<path d="M61.4771 160.972C62.7345 154.903 74.477 150.03 81.0479 158.668C77.5712 163.848 72.4549 163.695 70.3263 163.965C63.7791 164.802 61.4771 160.972 61.4771 160.972Z" fill="#601215"/>
<path d="M58.8782 162.031C63.0398 163.543 80.5525 162.388 82.2725 158.988C74.0606 173.977 59.5381 203.201 53.2194 212.713C47.6224 220.484 33.3557 219.967 31.6853 216.986C41.5016 200.925 58.8782 162.031 58.8782 162.031" fill="#ED2023"/>
<path d="M-12.5264 154.4C-13.4727 154.353 -13.3275 150.31 -9.68301 150.857C29.6625 156.779 59.1838 159.557 59.1838 159.557C59.1838 159.557 75.4608 163.818 81.0596 154.977C96.2054 148.063 107.68 143.249 121.171 137.377C124.27 136.028 127.095 138.481 125.577 139.698C111.576 146.702 82.5913 160.509 82.5913 160.509C82.5913 160.509 76.5568 169.977 58.5016 164.472C40.3408 163.058 8.85638 159.555 -12.5264 154.4Z" fill="#F14E36"/>
<path d="M65.8345 172.448C62.4285 172.426 59.308 171.584 57.8172 170.124C57.6824 169.99 57.6784 169.77 57.8092 169.635C57.944 169.497 58.1621 169.497 58.3009 169.63C60.9852 172.258 69.8115 172.681 74.8233 169.5C74.9819 169.397 75.2 169.447 75.2991 169.607C75.4022 169.77 75.3546 169.982 75.192 170.084C72.587 171.739 69.0779 172.466 65.8345 172.448" fill="#601215"/>
<path d="M61.2986 181.093C57.8883 181.153 54.7536 180.379 53.2282 178.954C53.0885 178.825 53.0805 178.607 53.2122 178.467C53.344 178.327 53.5636 178.32 53.6994 178.452C56.4428 181.016 65.2799 181.238 70.2155 177.945C70.3753 177.837 70.5869 177.882 70.6947 178.04C70.8025 178.197 70.7586 178.412 70.5989 178.517C68.0312 180.231 64.5411 181.041 61.2986 181.093" fill="#601215"/>
<path d="M56.7584 189.739C53.3482 189.866 50.1995 189.152 48.6472 187.757C48.5065 187.63 48.4944 187.41 48.6231 187.27C48.7478 187.125 48.9649 187.115 49.1097 187.243C51.9005 189.756 60.7396 189.803 65.6135 186.415C65.7703 186.306 65.9835 186.348 66.0961 186.5C66.2006 186.658 66.1604 186.875 66.0076 186.983C63.4741 188.747 59.9996 189.621 56.7584 189.739" fill="#601215"/>
<path d="M52.1892 198.374C48.7836 198.509 45.6331 197.807 44.0741 196.415C43.9324 196.288 43.9202 196.07 44.0457 195.928C44.1753 195.785 44.394 195.773 44.5357 195.903C47.3339 198.406 56.1738 198.427 61.0332 195.023C61.1911 194.911 61.4098 194.951 61.5191 195.108C61.6244 195.263 61.588 195.478 61.4341 195.588C58.9032 197.359 55.4328 198.246 52.1892 198.374Z" fill="#601215"/>
<path d="M47.6316 207.009C44.2269 207.169 41.0668 206.489 39.501 205.113C39.3583 204.985 39.342 204.768 39.4684 204.625C39.5948 204.481 39.815 204.468 39.9577 204.595C42.7753 207.077 51.6113 207.034 56.4513 203.593C56.6063 203.483 56.8224 203.521 56.9284 203.676C57.0426 203.831 57.0059 204.046 56.851 204.158C54.3351 205.945 50.8692 206.857 47.6316 207.009" fill="#601215"/>
<path d="M43.5484 215.202C40.1751 215.707 36.9619 215.354 35.2629 214.143C35.1111 214.033 35.0742 213.815 35.185 213.66C35.2958 213.505 35.5133 213.468 35.6651 213.58C38.7224 215.762 47.5085 214.82 51.9692 210.904C52.117 210.774 52.3303 210.792 52.4576 210.934C52.5848 211.077 52.5684 211.297 52.4289 211.424C50.1103 213.458 46.7534 214.72 43.5484 215.202Z" fill="#601215"/>
<path d="M30.6084 158.633C34.5186 159.2 33.9812 160.424 30.6302 159.84C27.2792 159.257 -1.26788 156.002 -4.71502 155.117C-8.16654 154.233 -6.77719 153.946 -3.88491 154.195C-0.988263 154.448 30.6084 158.633 30.6084 158.633" fill="#F5765C"/>
<path d="M121.588 138.999C125.177 137.362 125.39 138.679 122.257 140.006C119.12 141.328 91.0081 154.593 87.6281 155.715C84.2481 156.839 85.2594 155.847 87.8296 154.491C90.4036 153.136 121.588 138.999 121.588 138.999Z" fill="#F5765C"/>
<path d="M59.123 152.749C56.123 148.041 48.7089 145.218 36.1501 146.98C23.587 148.736 14.054 149.116 3.40352 147.647C8.09266 149.766 21.7947 149.783 29.5484 148.746C53.9826 145.483 59.123 152.749 59.123 152.749Z" fill="#C3B28C"/>
<path d="M54.791 155.22C52.0933 151.659 48.6323 150.535 30.1431 151.804C16.4189 152.746 4.90342 150.445 4.90342 150.445C4.90342 150.445 12.782 153.708 29.5213 152.801C51.5658 151.607 54.791 155.22 54.791 155.22Z" fill="#C3B28C"/>
<path d="M73.3639 150.507C74.4185 145.98 79.2636 142.077 89.1446 140.872C99.0294 139.668 100.551 140.628 108.175 137.159C105.194 139.906 94.9042 142.816 88.8216 143.604C69.6395 146.077 73.3639 150.507 73.3639 150.507" fill="#C3B28C"/>
<path d="M79.2357 151.367C80.5395 147.724 77.3726 148.564 92.9834 144.816C104.571 142.032 113.493 137.142 113.493 137.142C113.493 137.142 107.827 141.885 93.7588 145.478C75.2279 150.213 79.2357 151.367 79.2357 151.367Z" fill="#C3B28C"/>
</svg>
