<svg width="120" height="37" viewBox="0 0 120 37" fill="none" xmlns="http://www.w3.org/2000/svg">
<path fill-rule="evenodd" clip-rule="evenodd" d="M39.6571 13.6424C40.0184 13.8513 40.3102 14.1588 40.4932 14.5421C40.7366 15.0458 40.7691 15.6147 40.5813 16.1402C40.3471 16.8064 39.7937 17.2947 39.1298 17.4676C39.1703 18.1956 38.7948 19.0953 38.3096 19.8909L38.6427 19.7441C38.9873 19.593 39.3871 19.7473 39.5392 20.0903C39.6912 20.4322 39.536 20.8322 39.1918 20.9837L36.1725 22.3131C36.157 22.3206 36.1399 22.3238 36.1244 22.3285C36.363 24.996 36.2872 27.1551 36.2824 27.2508C36.2733 27.506 36.1196 27.7347 35.8854 27.8411C35.7957 27.8815 35.6992 27.9016 35.6031 27.9016C35.4793 27.9016 35.3582 27.8597 35.2498 27.7917C35.4094 29.9555 35.355 31.671 35.3534 31.7529C35.3443 32.0156 35.1831 32.249 34.9409 32.3527C34.6991 32.4544 34.4168 32.4097 34.2215 32.2352C34.2152 32.2304 33.9623 32.0141 33.5482 31.7747L33.229 35.6429H34.1469C34.5221 35.6429 34.8278 35.9472 34.8278 36.3215C34.8278 36.6954 34.5221 36.9985 34.1469 36.9985H28.944C28.5684 36.9985 28.2647 36.6954 28.2647 36.3215C28.2647 35.9472 28.57 35.6429 28.944 35.6429H29.8619L29.5427 31.7747C29.1298 32.0141 28.8773 32.2289 28.8709 32.2352C28.7439 32.3479 28.5827 32.4065 28.4183 32.4065C28.3282 32.4065 28.2381 32.3879 28.1515 32.3511C27.9077 32.249 27.7481 32.0141 27.739 31.7513C27.7358 31.6694 27.6814 29.9539 27.8426 27.7948C27.6505 27.9123 27.4131 27.9341 27.2054 27.8395C26.9728 27.7331 26.8191 27.5044 26.8084 27.2492C26.7866 26.6387 26.7091 23.7841 27.1264 20.7163L25.588 23.4458C25.5213 23.5804 25.4109 23.6947 25.2636 23.7628C25.1723 23.8027 25.0762 23.8229 24.9813 23.8229C24.8217 23.8229 24.6682 23.7596 24.5458 23.6559C24.5394 23.6512 24.5346 23.6484 24.5303 23.6437C24.5005 23.6172 24.4727 23.5895 24.4481 23.5554C24.4354 23.54 24.4262 23.5214 24.4152 23.506C24.3981 23.4799 24.3766 23.4565 24.3644 23.4272L22.731 19.8739C23.2848 24.2419 23.1964 28.5754 23.1717 29.4391C23.1638 29.7113 22.9918 29.9539 22.7358 30.0512C22.4785 30.1485 22.1883 30.0837 21.9993 29.8858C21.9962 29.8827 21.9387 29.8241 21.8346 29.7299L21.0734 35.6429H22.5623C22.9391 35.6429 23.2428 35.946 23.2428 36.3198C23.2428 36.6954 22.9374 36.9985 22.5623 36.9985H14.8744C14.4992 36.9985 14.1951 36.6954 14.1951 36.3198C14.1951 35.946 14.5008 35.6429 14.8744 35.6429H16.3664L15.574 29.5072C15.312 29.7236 15.1599 29.8799 15.1551 29.8858C15.025 30.0235 14.8451 30.0959 14.6621 30.0959C14.5814 30.0959 14.4977 30.0821 14.4203 30.0528C14.1626 29.9539 13.9907 29.7129 13.9828 29.4391C13.9581 28.583 13.8711 24.3036 14.4124 19.9669L12.7747 23.4348C12.6584 23.6809 12.4149 23.8245 12.1588 23.8245C12.1001 23.8245 12.0413 23.8138 11.9838 23.798C11.9405 23.8059 11.9 23.815 11.8567 23.815C11.7651 23.815 11.672 23.798 11.5836 23.7596L8.67422 22.4828C9.95695 25.7873 9.84344 31.0482 9.82045 31.8162C9.81085 32.0836 9.64493 32.3214 9.39521 32.4219C9.31303 32.4559 9.22648 32.4714 9.13949 32.4714C8.96718 32.4714 8.7969 32.4065 8.66787 32.2814C8.66509 32.2799 8.47091 32.1054 8.16402 31.906L7.79166 35.6444H8.7628C9.13949 35.6444 9.4436 35.9472 9.4436 36.3215C9.4436 36.6969 9.13794 37 8.7628 37H3.71945C3.34383 37 3.04015 36.6969 3.04015 36.3215C3.04015 35.9472 3.34553 35.6444 3.71945 35.6444H4.69011L4.31775 31.9045C4.01237 32.1038 3.8187 32.2783 3.81556 32.2814C3.62142 32.4683 3.33636 32.5241 3.08652 32.4219C2.83839 32.3214 2.67243 32.0836 2.66298 31.8162C2.64591 31.2568 2.58235 28.3111 3.04452 25.4751L1.22689 27.94C1.09353 28.1193 0.88756 28.215 0.679444 28.215C0.538463 28.215 0.397204 28.1735 0.27655 28.0836C-0.0260172 27.8629 -0.089619 27.4395 0.131996 27.138L4.1971 21.6235C4.20143 21.6175 4.20778 21.6128 4.21258 21.6065C4.57379 20.9406 5.01888 20.4136 5.56324 20.103V19.3224C4.33046 19.0177 3.41219 17.9099 3.41219 16.5884C3.41219 15.5574 3.97036 14.6565 4.80176 14.1651C4.2233 13.6828 3.83264 13.0399 4.01721 12.2363C4.10094 11.8715 4.46508 11.6412 4.83109 11.7263C5.19707 11.8098 5.42503 12.173 5.34285 12.5378C5.22375 13.0553 6.37434 13.6116 7.01624 13.794C7.13733 13.8296 7.24139 13.8976 7.32206 13.9827C8.34871 14.406 9.07279 15.4153 9.07279 16.59C9.07279 17.9099 8.15453 19.0193 6.92179 19.324V20.1042C7.0877 20.1987 7.24576 20.3099 7.39186 20.4413C7.39186 20.4413 7.39186 20.4413 7.39309 20.4413L11.7789 22.3653L15.7043 14.0551C16.255 12.522 16.979 11.2685 17.9283 10.55C17.9576 10.4958 17.9978 10.448 18.0415 10.4048V9.3445C16.2624 9.02323 14.907 7.47149 14.907 5.60758C14.907 3.72192 16.295 2.15633 18.1049 1.86118C19.4311 1.57671 21.0345 0.921513 21.2208 0.436447C21.3541 0.0870895 21.7481 -0.0893707 22.0985 0.0451508C22.4472 0.179668 22.6243 0.570572 22.4908 0.91993C22.2443 1.5597 21.5432 2.04991 20.7741 2.40995C21.8318 3.0869 22.5342 4.26594 22.5342 5.60758C22.5342 7.47149 21.1787 9.02323 19.4001 9.3445V10.6968C20.2139 11.3892 20.8579 12.482 21.3618 13.8078C21.4407 13.8715 21.5074 13.9518 21.5539 14.0507L25.0436 21.6516L28.3528 15.7849C28.3655 15.76 28.3842 15.7398 28.3996 15.7184C28.9856 14.3534 29.7844 13.2345 30.8667 12.6319V12.5607C30.7071 12.5746 30.5459 12.5841 30.38 12.5841C27.8986 12.5841 24.9861 11.0925 24.8405 11.0169C24.5068 10.8436 24.3766 10.4357 24.5501 10.1033C24.6153 9.97674 24.7178 9.88099 24.8357 9.8173C24.9413 9.70454 25.0805 9.62264 25.2465 9.60127C26.9184 9.37694 27.6255 7.72787 27.6568 7.65824C27.6878 7.58267 27.7327 7.51778 27.7855 7.46199C28.0737 5.64913 29.6479 4.25842 31.5476 4.25842C33.4445 4.25842 35.0183 5.64755 35.307 7.45923C35.3613 7.5162 35.4062 7.58109 35.4372 7.65824C35.4666 7.72787 36.1756 9.37694 37.8475 9.60127C38.0118 9.62264 38.1528 9.70454 38.2568 9.8173C38.3763 9.87941 38.4767 9.97674 38.5434 10.1033C38.7157 10.4357 38.5871 10.8436 38.2536 11.0169C38.1079 11.0925 35.1938 12.5841 32.7124 12.5841C32.5481 12.5841 32.3869 12.5746 32.2269 12.5607V12.6379C33.3481 13.2638 34.2525 14.4879 34.9191 16.3008C35.4638 16.0025 36.0172 15.7785 36.523 15.6796C36.4889 15.3722 36.5167 15.0585 36.6223 14.7586C36.8315 14.1588 37.3012 13.7046 37.8768 13.4929C37.7045 12.9457 37.7093 12.4325 37.7125 12.3289C37.7248 11.955 38.0364 11.6488 38.4116 11.6737C38.7856 11.6844 39.0818 11.995 39.0711 12.3692C39.0647 12.7154 39.1763 13.4137 39.4836 13.536C39.5487 13.5621 39.6043 13.5993 39.6571 13.6424ZM18.7208 3.16247C17.3669 3.16247 16.2672 4.26 16.2672 5.60758C16.2672 6.95675 17.3669 8.05389 18.7208 8.05389C20.0745 8.05389 21.1755 6.95675 21.1755 5.60758C21.1755 4.26 20.0745 3.16247 18.7208 3.16247ZM34.0012 8.05864C34.0012 6.70947 32.9002 5.61392 31.5476 5.61392C30.1938 5.61392 29.0928 6.70947 29.0928 8.05864C29.0928 9.40622 30.1938 10.5037 31.5476 10.5037C32.9002 10.5037 34.0012 9.40622 34.0012 8.05864ZM33.7808 11.1312C34.609 10.9904 35.4697 10.7217 36.1955 10.4436C35.7334 10.1805 35.3582 9.85291 35.0652 9.52531C34.792 10.1714 34.3438 10.7245 33.7808 11.1312ZM29.3128 11.1328C28.7514 10.7245 28.302 10.1714 28.0288 9.52531C27.7342 9.85291 27.3603 10.1805 26.8997 10.4448C27.6255 10.7218 28.4846 10.992 29.3128 11.1328ZM16.9385 14.6209L16.9154 14.6719C15.6376 18.446 15.3227 24.4239 15.3243 28.0097C16.0254 27.5369 17.0025 27.0312 18.1423 26.8658C18.2213 26.8334 18.3083 26.8164 18.3996 26.8164H18.4742C18.5068 26.818 18.5378 26.8195 18.5687 26.8211C18.5964 26.8195 18.6246 26.818 18.6508 26.818L18.7577 26.8164C18.8542 26.8164 18.9438 26.8366 19.026 26.8706C20.1659 27.0423 21.137 27.5444 21.8334 28.0112C21.8361 23.2061 21.2704 14.1002 18.5794 11.7631C17.9327 12.3241 17.4117 13.2765 16.9882 14.4618C16.9775 14.516 16.9635 14.5698 16.9385 14.6209ZM33.7467 17.0692C33.1793 15.3892 32.4377 14.2933 31.5401 13.8066C28.7641 15.3303 28.1606 22.268 28.1499 26.0112C28.9455 25.5926 30.1195 25.1289 31.4841 25.0795L31.5833 25.0779C32.959 25.1289 34.1393 25.5911 34.9361 26.0081C34.9318 25.2338 34.9036 24.1442 34.8091 22.9295C34.4772 23.0316 34.1453 23.0874 33.8213 23.0874C33.331 23.0874 32.855 22.9699 32.4099 22.7317C32.3726 22.7115 32.3385 22.6886 32.3059 22.6621L32.0022 22.4179C31.9478 22.3748 31.9029 22.3254 31.864 22.2696C31.0327 21.0411 31.3245 19.5 32.6644 18.0429C32.9653 17.7149 33.3389 17.3829 33.7467 17.0692ZM38.3576 16.1449C38.7451 16.2806 39.1687 16.0658 39.3006 15.6935C39.3657 15.5063 39.3545 15.3073 39.268 15.1293C39.1826 14.9516 39.0338 14.8187 38.846 14.7538C38.7686 14.7261 38.6864 14.7123 38.6026 14.7123C38.2894 14.7123 38.0087 14.9117 37.9046 15.2068C37.8395 15.392 37.8518 15.5914 37.9372 15.7691C38.0226 15.9471 38.1714 16.08 38.3576 16.1449ZM6.24249 15.1249C5.43143 15.1249 4.77075 15.7817 4.77075 16.59C4.77075 17.3983 5.43143 18.0551 6.24249 18.0535C7.0536 18.0535 7.71273 17.3983 7.71273 16.59C7.71273 15.7817 7.0536 15.1249 6.24249 15.1249ZM35.7258 20.8801C37.1618 19.6654 37.8983 17.8711 37.7665 17.4862C37.7311 17.4335 37.7109 17.3782 37.6907 17.3224C37.5092 17.2345 37.3385 17.1293 37.1912 16.9964C37.1789 16.99 37.165 16.9873 37.1527 16.9793C36.7322 16.8373 34.5796 17.7414 33.3731 19.3069C32.7387 20.1291 32.5945 20.8433 32.9419 21.4336L33.1063 21.5649C34.0476 22.0302 35.0465 21.4537 35.7258 20.8801ZM5.94953 29.9602H6.50615C7.27398 29.9942 7.94999 30.2431 8.47417 30.5165C8.44471 27.0375 7.88019 22.3408 6.31991 21.3283C6.29367 21.3315 6.2687 21.3362 6.24249 21.3362C6.21629 21.3362 6.19132 21.3315 6.16511 21.3283C5.86409 21.523 5.60044 21.8553 5.36937 22.2913C5.36147 22.3083 5.3523 22.3254 5.34285 22.344C4.40148 24.1782 4.03424 27.7331 4.00927 30.5149C4.52897 30.2415 5.19707 29.9942 5.94953 29.9602ZM31.492 29.7964L31.5758 29.7948C32.5401 29.8348 33.381 30.1517 34.0028 30.4761C33.9932 29.6156 33.9531 28.3867 33.8229 27.0732C33.8213 27.0439 33.8213 27.0158 33.8229 26.9881L33.8245 26.979C33.2087 26.7084 32.4254 26.4642 31.5587 26.4334H31.5091C30.6607 26.4642 29.8912 26.7052 29.2818 26.9727C29.1441 28.325 29.102 29.5923 29.0928 30.4746C29.7098 30.1501 30.5412 29.8348 31.492 29.7964ZM17.7374 35.6444H19.7037L20.5815 28.835C20.0203 28.5212 19.3286 28.2415 18.5671 28.1798C17.9311 28.2308 17.3435 28.4362 16.8409 28.6882L17.7374 35.6444ZM31.2284 35.6444H31.8656L32.2301 31.2461C32.0129 31.195 31.785 31.161 31.5476 31.1499H31.5198C31.2919 31.161 31.0732 31.195 30.8639 31.2429L31.2284 35.6444ZM6.07332 35.6444H6.42707L6.85354 31.362C6.72963 31.3387 6.60541 31.3201 6.47514 31.3141H5.98042C5.861 31.3201 5.74467 31.3387 5.63148 31.3604L6.07332 35.6444Z" fill="white"/>
<path d="M56.8016 11.4071C56.8806 11.4071 56.9536 11.4226 57.0215 11.4518C57.0882 11.4827 57.149 11.5231 57.2002 11.5725C57.2514 11.622 57.2931 11.6821 57.3224 11.7501C57.3534 11.8198 57.3689 11.8941 57.3689 11.9712C57.3689 12.1213 57.3101 12.2558 57.1923 12.376C56.3983 13.0083 55.5017 13.3237 54.5048 13.3237C53.3229 13.3237 52.3149 12.9094 51.4803 12.0778C50.6478 11.2481 50.2305 10.2435 50.2305 9.06417C50.2305 7.88941 50.6478 6.8864 51.4803 6.05676C52.318 5.22186 53.326 4.80488 54.5048 4.80488C55.5157 4.80488 56.4291 5.13687 57.245 5.8016C57.3458 5.89727 57.3955 6.02554 57.3955 6.18966C57.3955 6.2716 57.3816 6.34562 57.3522 6.41359C57.3241 6.48006 57.2839 6.5402 57.2328 6.59136C57.1799 6.6439 57.1196 6.68268 57.0513 6.71187C56.9814 6.73973 56.9068 6.75346 56.8294 6.75346C56.69 6.75346 56.5594 6.70091 56.4387 6.59445C56.1687 6.38115 55.8694 6.21731 55.5437 6.10467C55.2179 5.99029 54.872 5.9345 54.5048 5.9345C53.6362 5.9345 52.8933 6.24034 52.2759 6.85561C51.6682 7.46131 51.3628 8.1988 51.3628 9.06417C51.3628 9.93412 51.6682 10.6732 52.2759 11.2806C52.8885 11.891 53.6314 12.1952 54.5048 12.1952C55.2492 12.1952 55.9051 11.9666 56.4713 11.5091C56.5625 11.4444 56.6741 11.4119 56.8016 11.4071Z" fill="white"/>
<path d="M64.202 12.7595C64.202 12.8414 64.188 12.9157 64.1587 12.9834C64.1309 13.0514 64.0905 13.1104 64.0392 13.1614C63.9864 13.2137 63.9261 13.2525 63.8561 13.2817C63.7879 13.3098 63.7136 13.3237 63.6362 13.3237C63.554 13.3237 63.4779 13.3098 63.411 13.2817C63.3428 13.2525 63.284 13.2137 63.2313 13.1614C63.1801 13.1104 63.1399 13.0514 63.1117 12.9834C63.084 12.9157 63.0684 12.8414 63.0684 12.7595V9.78299C62.535 10.2281 61.8993 10.4489 61.1608 10.4489C60.7451 10.4489 60.3529 10.3685 59.9868 10.2095C59.6192 10.05 59.2983 9.83244 59.0224 9.55703C58.7461 9.28205 58.5274 8.96201 58.3678 8.59604C58.2065 8.23129 58.1276 7.83995 58.1276 7.42452V5.37023C58.1276 5.29157 58.1416 5.21723 58.1693 5.14953C58.1986 5.07982 58.2376 5.01941 58.2905 4.96718C58.3416 4.91618 58.4019 4.87567 58.4686 4.84801C58.5369 4.82035 58.6112 4.80488 58.6933 4.80488C58.7712 4.80488 58.8453 4.82035 58.9153 4.84801C58.9852 4.87567 59.0455 4.91618 59.0967 4.96718C59.1479 5.01941 59.1881 5.07982 59.2178 5.14953C59.2456 5.21723 59.2596 5.29157 59.2596 5.37023V7.42452C59.2596 7.68727 59.3092 7.93301 59.41 8.16157C59.5093 8.39184 59.6457 8.59121 59.8177 8.76419C59.99 8.93586 60.1916 9.07204 60.4212 9.17096C60.6507 9.27141 60.8988 9.32087 61.1608 9.32087C61.4216 9.32087 61.6682 9.27141 61.8993 9.17096C62.1303 9.07204 62.3332 8.9374 62.5088 8.76573C62.6821 8.59604 62.8203 8.39508 62.9196 8.16482C63.0188 7.93455 63.0684 7.68727 63.0684 7.42452V5.37023C63.0684 5.29157 63.084 5.21723 63.1117 5.14953C63.1399 5.07982 63.1801 5.01941 63.2313 4.96718C63.284 4.91618 63.3428 4.87567 63.411 4.84801C63.4779 4.82035 63.554 4.80488 63.6362 4.80488C63.7136 4.80488 63.7879 4.82035 63.8561 4.84801C63.9261 4.87567 63.9864 4.91618 64.0392 4.96718C64.0905 5.01941 64.1309 5.07982 64.1587 5.14953C64.188 5.21723 64.202 5.29157 64.202 5.37023V12.7595Z" fill="white"/>
<path d="M69.3525 9.32087L68.4218 6.92996L67.4929 9.32087H69.3525ZM65.0302 12.5043L67.8823 5.18787C67.9971 4.93315 68.177 4.80488 68.4218 4.80488C68.6748 4.80488 68.8547 4.93315 68.9619 5.18787L71.8263 12.5307C71.854 12.602 71.868 12.6776 71.868 12.7595C71.868 12.9157 71.8136 13.0483 71.702 13.1599C71.5921 13.2695 71.4587 13.3237 71.3018 13.3237C71.1454 13.3237 71.0136 13.2695 70.9064 13.1599C70.8492 13.1026 70.8072 13.0423 70.7777 12.9775L69.79 10.4489H67.0542L66.0616 12.9775C66.0323 13.0423 65.9901 13.1026 65.9331 13.1599C65.8226 13.2695 65.6896 13.3237 65.5312 13.3237C65.3747 13.3237 65.2426 13.2695 65.1342 13.1599C65.0258 13.0483 64.9714 12.9157 64.9714 12.7595C64.9714 12.6745 64.9901 12.5893 65.0302 12.5043Z" fill="white"/>
<path d="M78.8733 11.4071C78.9507 11.4071 79.0234 11.4226 79.0917 11.4518C79.1601 11.4827 79.2192 11.5231 79.2703 11.5725C79.3228 11.622 79.3633 11.6821 79.3943 11.7501C79.4236 11.8198 79.4391 11.8941 79.4391 11.9712C79.4391 12.1213 79.3803 12.2558 79.2624 12.376C78.4684 13.0083 77.572 13.3237 76.5747 13.3237C75.3931 13.3237 74.385 12.9094 73.5505 12.0778C72.718 11.2481 72.3007 10.2435 72.3007 9.06417C72.3007 7.88941 72.718 6.8864 73.5505 6.05676C74.3883 5.22186 75.3963 4.80488 76.5747 4.80488C77.5874 4.80488 78.501 5.13687 79.3169 5.8016C79.4161 5.89727 79.4658 6.02554 79.4658 6.18966C79.4658 6.2716 79.4518 6.34562 79.4236 6.41359C79.3943 6.48006 79.3538 6.5402 79.3029 6.59136C79.2517 6.6439 79.1909 6.68268 79.1215 6.71187C79.0517 6.73973 78.977 6.75346 78.8995 6.75346C78.7598 6.75346 78.6313 6.70091 78.5089 6.59445C78.2389 6.38115 77.9411 6.21731 77.614 6.10467C77.2881 5.99029 76.9422 5.9345 76.5747 5.9345C75.7064 5.9345 74.9635 6.24034 74.3478 6.85561C73.7383 7.46131 73.4342 8.1988 73.4342 9.06417C73.4342 9.93412 73.7383 10.6732 74.3478 11.2806C74.9604 11.891 75.7033 12.1952 76.5747 12.1952C77.3191 12.1952 77.9752 11.9666 78.5415 11.5091C78.6344 11.4444 78.7443 11.4119 78.8733 11.4071Z" fill="white"/>
<path d="M86.1233 5.9345H84.0127V12.7595C84.0127 12.9157 83.9567 13.0483 83.8468 13.1599C83.7368 13.2695 83.6034 13.3237 83.4466 13.3237C83.2901 13.3237 83.1552 13.2695 83.0448 13.1599C82.9348 13.0483 82.8789 12.9157 82.8789 12.7595V5.9345H80.7699C80.6131 5.9345 80.4784 5.87872 80.3682 5.76912C80.2581 5.65957 80.2022 5.52663 80.2022 5.37023C80.2022 5.21446 80.2581 5.07982 80.3682 4.97027C80.4784 4.86039 80.6131 4.80488 80.7699 4.80488H86.1233C86.2802 4.80488 86.4136 4.86039 86.5235 4.97027C86.6335 5.07982 86.6894 5.21446 86.6894 5.37023C86.6894 5.52663 86.6335 5.65957 86.5235 5.76912C86.4136 5.87872 86.2802 5.9345 86.1233 5.9345Z" fill="white"/>
<path d="M86.4322 12.9775C86.3218 13.2093 86.1484 13.3237 85.9094 13.3237C85.8272 13.3237 85.7529 13.3098 85.6847 13.2817C85.6163 13.2525 85.5572 13.2137 85.5063 13.1614C85.4536 13.1104 85.4147 13.0514 85.3852 12.9834C85.3575 12.9157 85.3432 12.8414 85.3432 12.7595C85.3432 12.6854 85.3587 12.6095 85.3912 12.5307L88.2541 5.19899C88.3689 4.93628 88.5491 4.80488 88.794 4.80488C89.0406 4.80488 89.2204 4.93628 89.3337 5.19899L92.1981 12.5307C92.229 12.6048 92.2461 12.6823 92.2461 12.7595C92.2461 12.8414 92.2306 12.9157 92.2028 12.9834C92.1746 13.0514 92.1345 13.1104 92.0817 13.1614C92.0305 13.2137 91.9702 13.2525 91.9003 13.2817C91.832 13.3098 91.7578 13.3237 91.6784 13.3237C91.4302 13.3237 91.2536 13.2093 91.1495 12.9775L88.794 6.92996L86.4322 12.9775Z" fill="white"/>
<path d="M99.901 12.7595V5.37023C99.901 5.29157 99.8871 5.21723 99.8593 5.14953C99.8299 5.07982 99.791 5.01941 99.7382 4.96718C99.687 4.91618 99.6282 4.87567 99.5599 4.84801C99.4916 4.82035 99.4174 4.80488 99.3352 4.80488C99.1693 4.80488 99.022 4.87412 98.8977 5.01339L94.1351 11.1195V5.37023C94.1351 5.21446 94.0791 5.07982 93.9691 4.97027C93.8591 4.86039 93.7257 4.80488 93.5689 4.80488C93.4125 4.80488 93.2791 4.86039 93.1687 4.97027C93.0572 5.07982 93.0028 5.21446 93.0028 5.37023V12.7595C93.0028 12.8414 93.0171 12.9157 93.0449 12.9834C93.0742 13.0514 93.1147 13.1104 93.166 13.1614C93.2168 13.2137 93.2775 13.2525 93.3474 13.2817C93.4169 13.3098 93.4899 13.3237 93.5689 13.3237C93.7365 13.3237 93.8806 13.2588 94.0017 13.1274L98.7691 7.021V12.7595C98.7691 12.9157 98.8246 13.0483 98.935 13.1599C99.045 13.2695 99.1784 13.3237 99.3352 13.3237C99.4916 13.3237 99.625 13.2695 99.7366 13.1599C99.847 13.0483 99.901 12.9157 99.901 12.7595Z" fill="white"/>
<path d="M101.846 5.9345V8.09032H102.931C103.08 8.09032 103.22 8.06266 103.35 8.00533C103.48 7.94828 103.594 7.87117 103.691 7.77071C103.791 7.6718 103.868 7.55746 103.924 7.42729C103.982 7.29747 104.009 7.15868 104.009 7.01031C104.009 6.86349 103.982 6.7258 103.924 6.59769C103.868 6.46784 103.789 6.3535 103.69 6.25304C103.589 6.15413 103.474 6.07654 103.346 6.01949C103.215 5.96216 103.077 5.9345 102.931 5.9345H101.846ZM101.846 9.21887V12.1952H103.342C103.549 12.1952 103.743 12.1569 103.924 12.0778C104.105 12.0006 104.264 11.8941 104.397 11.7596C104.531 11.6235 104.637 11.4657 104.715 11.2849C104.794 11.1041 104.833 10.911 104.833 10.7041C104.833 10.503 104.794 10.3115 104.715 10.1292C104.637 9.94833 104.531 9.79054 104.394 9.65594C104.259 9.52146 104.101 9.41499 103.919 9.3363C103.738 9.25875 103.546 9.21887 103.342 9.21887H101.846ZM102.931 4.80488C103.234 4.80488 103.519 4.86348 103.787 4.97782C104.057 5.09375 104.292 5.25122 104.493 5.45217C104.695 5.65324 104.853 5.88659 104.969 6.15567C105.084 6.42274 105.143 6.70724 105.143 7.01031C105.143 7.54954 104.976 8.01954 104.641 8.42124C104.858 8.54781 105.048 8.69617 105.213 8.86152C105.375 9.02844 105.514 9.21084 105.627 9.40866C105.738 9.60494 105.822 9.81234 105.88 10.0315C105.937 10.2494 105.965 10.4738 105.965 10.7041C105.965 11.0625 105.897 11.4008 105.757 11.7193C105.618 12.0362 105.43 12.3143 105.193 12.5525C104.957 12.7904 104.679 12.9775 104.36 13.1163C104.042 13.2556 103.702 13.3237 103.342 13.3237H101.28C101.201 13.3237 101.128 13.3098 101.061 13.2789C100.993 13.2492 100.934 13.2093 100.881 13.1599C100.83 13.1087 100.79 13.0499 100.759 12.9806C100.729 12.9109 100.714 12.8381 100.714 12.7595V5.37023C100.714 5.29157 100.729 5.21723 100.759 5.14953C100.79 5.07982 100.83 5.01941 100.881 4.97027C100.934 4.92049 100.993 4.88045 101.061 4.85125C101.128 4.82035 101.201 4.80488 101.28 4.80488H102.931Z" fill="white"/>
<path d="M111.095 9.32087L110.165 6.92996L109.236 9.32087H111.095ZM106.771 12.5043L109.625 5.18787C109.74 4.93315 109.92 4.80488 110.165 4.80488C110.418 4.80488 110.597 4.93315 110.704 5.18787L113.569 12.5307C113.597 12.602 113.611 12.6776 113.611 12.7595C113.611 12.9157 113.555 13.0483 113.445 13.1599C113.334 13.2695 113.201 13.3237 113.045 13.3237C112.888 13.3237 112.756 13.2695 112.649 13.1599C112.592 13.1026 112.55 13.0423 112.521 12.9775L111.532 10.4489H108.797L107.803 12.9775C107.775 13.0423 107.731 13.1026 107.675 13.1599C107.564 13.2695 107.43 13.3237 107.274 13.3237C107.117 13.3237 106.985 13.2695 106.877 13.1599C106.768 13.0483 106.714 12.9157 106.714 12.7595C106.714 12.6745 106.732 12.5893 106.771 12.5043Z" fill="white"/>
<path d="M118.87 5.9345V8.91097H117.373C117.167 8.91097 116.973 8.87097 116.791 8.79386C116.61 8.71473 116.453 8.60822 116.318 8.47069C116.185 8.33451 116.079 8.17704 116.002 7.99774C115.923 7.81862 115.884 7.62669 115.884 7.42452C115.884 7.21882 115.923 7.02563 116.002 6.84497C116.079 6.66412 116.187 6.50618 116.322 6.37051C116.457 6.23603 116.616 6.12908 116.798 6.05197C116.979 5.97328 117.171 5.9345 117.373 5.9345H118.87ZM120 12.7595V5.37023C120 5.29157 119.986 5.21723 119.958 5.14953C119.931 5.07982 119.89 5.01941 119.837 4.96718C119.786 4.91618 119.727 4.87567 119.659 4.84801C119.591 4.82035 119.516 4.80488 119.434 4.80488H117.373C117.015 4.80488 116.675 4.87412 116.357 5.01339C116.038 5.15108 115.76 5.33948 115.523 5.57763C115.287 5.81533 115.1 6.09355 114.96 6.41051C114.822 6.72889 114.752 7.06566 114.752 7.42452C114.752 7.65914 114.782 7.88664 114.84 8.10903C114.9 8.33174 114.986 8.54021 115.101 8.73804C115.218 8.93432 115.362 9.11671 115.534 9.2853C115.707 9.45376 115.908 9.60213 116.135 9.7304L114.431 12.4505C114.371 12.5509 114.341 12.6527 114.341 12.7595C114.341 12.8414 114.355 12.9157 114.383 12.9834C114.412 13.0514 114.451 13.1104 114.504 13.1614C114.555 13.2137 114.616 13.2525 114.686 13.2817C114.755 13.3098 114.828 13.3237 114.907 13.3237C115.106 13.3237 115.268 13.2322 115.393 13.0471L117.277 10.0394H118.87V12.7595C118.87 12.9157 118.924 13.0483 119.034 13.1599C119.144 13.2695 119.277 13.3237 119.434 13.3237C119.591 13.3237 119.726 13.2695 119.836 13.1599C119.946 13.0483 120 12.9157 120 12.7595Z" fill="white"/>
<path d="M62.7659 28.5386C62.9148 28.5386 63.0547 28.568 63.1832 28.6253C63.3135 28.6824 63.4266 28.7595 63.5243 28.8541C63.6235 28.9482 63.7014 29.0626 63.7601 29.1939C63.8177 29.3269 63.8455 29.4661 63.8455 29.6157C63.8455 29.9001 63.7339 30.1569 63.5103 30.3872C61.9953 31.5927 60.2862 32.1953 58.3834 32.1953C56.1283 32.1953 54.2055 31.4025 52.6157 29.8183C51.0261 28.234 50.2305 26.3179 50.2305 24.0706C50.2305 21.8298 51.0261 19.9163 52.6157 18.3321C54.2114 16.7404 56.1346 15.946 58.3834 15.946C60.3128 15.946 62.0558 16.5778 63.6113 17.8451C63.8022 18.0275 63.8966 18.2748 63.8966 18.5858C63.8966 18.7417 63.8701 18.8837 63.8161 19.0123C63.7617 19.1404 63.6843 19.2548 63.5866 19.3522C63.4873 19.4511 63.3726 19.5267 63.2392 19.5809C63.1074 19.635 62.9661 19.6626 62.8172 19.6626C62.5521 19.6626 62.3039 19.5606 62.0728 19.3585C61.5563 18.9517 60.9874 18.6395 60.3652 18.4231C59.7434 18.2071 59.0828 18.0988 58.3834 18.0988C56.7253 18.0988 55.3096 18.6847 54.134 19.8558C52.9723 21.0134 52.3907 22.4185 52.3907 24.0706C52.3907 25.7288 52.9723 27.1369 54.134 28.2962C55.3016 29.4598 56.7194 30.0426 58.3834 30.0426C59.8038 30.0426 61.0541 29.605 62.1332 28.7318C62.3103 28.6099 62.521 28.5462 62.7659 28.5386Z" fill="white"/>
<path d="M75.8008 30.0426C76.1003 30.0426 76.3548 30.1474 76.5655 30.3576C76.7747 30.5663 76.8803 30.8212 76.8803 31.1179C76.8803 31.4162 76.7747 31.6698 76.5655 31.88C76.3548 32.0901 76.1003 32.1953 75.8008 32.1953H66.3733C66.2168 32.1953 66.0739 32.1676 65.9453 32.1134C65.8166 32.0592 65.7035 31.9836 65.6042 31.8864C65.5066 31.7875 65.4287 31.6746 65.3747 31.5445C65.3203 31.4162 65.2938 31.2742 65.2938 31.1179V17.0214C65.2938 16.873 65.3203 16.7325 65.3747 16.6011C65.4287 16.4682 65.5066 16.3539 65.6042 16.2549C65.7035 16.1576 65.8166 16.0805 65.9453 16.0262C66.0739 15.9721 66.2168 15.946 66.3733 15.946H75.8008C76.1003 15.946 76.3548 16.0508 76.5655 16.2597C76.7747 16.4698 76.8803 16.7234 76.8803 17.0214C76.8803 17.3197 76.7747 17.5733 76.5655 17.7833C76.3548 17.9935 76.1003 18.0988 75.8008 18.0988H67.4543V22.9934H73.4469C73.7459 22.9934 74.0004 23.0985 74.2112 23.3087C74.4209 23.5187 74.526 23.7723 74.526 24.0706C74.526 24.369 74.4209 24.6222 74.2112 24.8327C74.0004 25.0427 73.7459 25.1464 73.4469 25.1464H67.4543V30.0426H75.8008Z" fill="white"/>
<path d="M80.4983 31.466L83.4034 21.0419L86.2972 31.4553C86.3512 31.6655 86.4754 31.8403 86.6691 31.9793C86.8633 32.117 87.0865 32.1865 87.3377 32.1865C87.555 32.1865 87.7594 32.1244 87.9535 31.9994C88.1472 31.8743 88.2823 31.6963 88.3565 31.466L91.2615 21.0419L94.1756 31.466C94.2236 31.6144 94.3086 31.7505 94.4297 31.8728C94.6405 32.0813 94.8966 32.1865 95.1943 32.1865C95.4937 32.1865 95.7466 32.0813 95.9542 31.8728C96.1607 31.6623 96.2643 31.4091 96.2643 31.1107C96.2584 30.9747 96.2349 30.8342 96.1932 30.6843L92.3517 16.8196C92.2556 16.5553 92.1143 16.3436 91.9237 16.1841C91.7327 16.025 91.5124 15.9464 91.2615 15.9464C90.9558 15.9464 90.7029 16.0544 90.506 16.2708C90.3634 16.4191 90.2547 16.5951 90.1804 16.7978L87.3377 27.0601L84.4936 16.8196C84.3987 16.5553 84.2562 16.3436 84.0655 16.1841C83.8762 16.025 83.6546 15.9464 83.4034 15.9464C83.0977 15.9464 82.8435 16.0544 82.6386 16.2708C82.5037 16.4052 82.3981 16.5814 82.3238 16.7978L78.4605 30.695C78.4203 30.8497 78.4001 30.9884 78.4001 31.1107C78.4001 31.4091 78.504 31.6623 78.715 31.8728C78.9258 32.0813 79.1802 32.1865 79.4796 32.1865C79.779 32.1865 80.033 32.0813 80.2443 31.8728C80.359 31.7505 80.4444 31.6144 80.4983 31.466Z" fill="white"/>
<path d="M103.287 30.0426C103.626 30.0426 103.946 29.9777 104.245 29.8491C104.543 29.721 104.803 29.5465 105.024 29.3269C105.245 29.1057 105.421 28.8477 105.549 28.5495C105.678 28.251 105.743 27.933 105.743 27.5943C105.743 27.256 105.678 26.9375 105.549 26.6392C105.421 26.3425 105.245 26.083 105.024 25.8634C104.803 25.6425 104.543 25.4693 104.245 25.3395C103.946 25.2113 103.626 25.1464 103.287 25.1464H100.046V30.0426H103.287ZM100.046 22.9934H103.287C103.918 22.9934 104.515 23.1156 105.075 23.3597C105.636 23.6039 106.125 23.9346 106.543 24.3551C106.961 24.7738 107.293 25.2623 107.536 25.817C107.781 26.3717 107.904 26.9652 107.904 27.5943C107.904 28.2249 107.781 28.8168 107.536 29.3715C107.293 29.9267 106.961 30.4149 106.543 30.8339C106.125 31.2541 105.636 31.5864 105.075 31.8289C104.515 32.0731 103.918 32.1953 103.287 32.1953H98.966C98.8156 32.1953 98.6774 32.1661 98.5472 32.1086C98.4185 32.0517 98.3054 31.9757 98.2061 31.88C98.1085 31.7858 98.0295 31.6731 97.9719 31.5402C97.9143 31.4088 97.8849 31.2679 97.8849 31.1179V17.0214C97.8849 16.873 97.9143 16.7325 97.9719 16.6011C98.0295 16.4682 98.1085 16.3554 98.2061 16.2597C98.3054 16.1652 98.4185 16.0896 98.5472 16.0322C98.6774 15.9737 98.8156 15.946 98.966 15.946C99.1149 15.946 99.2558 15.9721 99.3877 16.0262C99.5211 16.0805 99.6358 16.1576 99.735 16.2549C99.8331 16.3539 99.9105 16.4682 99.9649 16.6011C100.019 16.7325 100.046 16.873 100.046 17.0214V22.9934Z" fill="white"/>
<path d="M117.841 18.0988V23.7755H114.989C114.595 23.7755 114.225 23.7011 113.879 23.5527C113.533 23.4028 113.232 23.1991 112.978 22.9379C112.723 22.6764 112.521 22.3769 112.372 22.0335C112.223 21.692 112.148 21.3289 112.148 20.9426C112.148 20.5498 112.223 20.1805 112.372 19.8361C112.521 19.4899 112.725 19.1883 112.983 18.932C113.242 18.6735 113.543 18.4711 113.89 18.3215C114.236 18.1731 114.603 18.0988 114.989 18.0988H117.841ZM120 31.1179V17.0214C120 16.873 119.974 16.7325 119.919 16.6011C119.865 16.4682 119.789 16.3539 119.69 16.2549C119.592 16.1576 119.478 16.0805 119.349 16.0262C119.22 15.9721 119.077 15.946 118.921 15.946H114.989C114.304 15.946 113.657 16.0774 113.049 16.3417C112.441 16.6059 111.911 16.9643 111.46 17.4186C111.008 17.8716 110.65 18.4018 110.385 19.0075C110.121 19.6132 109.988 20.2578 109.988 20.9426C109.988 21.3893 110.044 21.8234 110.157 22.2467C110.269 22.6705 110.435 23.0708 110.655 23.4464C110.877 23.8217 111.151 24.1695 111.48 24.4924C111.81 24.8141 112.191 25.097 112.626 25.3395L109.377 30.5293C109.262 30.7195 109.205 30.9158 109.205 31.1179C109.205 31.2742 109.231 31.4162 109.285 31.5445C109.34 31.6746 109.416 31.7875 109.515 31.8864C109.612 31.9836 109.729 32.0592 109.861 32.1134C109.994 32.1676 110.134 32.1953 110.284 32.1953C110.664 32.1953 110.973 32.0193 111.21 31.6667L114.806 25.9283H117.841V31.1179C117.841 31.4162 117.947 31.6698 118.158 31.88C118.367 32.0901 118.623 32.1953 118.921 32.1953C119.22 32.1953 119.474 32.0901 119.685 31.88C119.896 31.6698 120 31.4162 120 31.1179Z" fill="white"/>
</svg>
