<svg width="67" height="62" viewBox="0 0 67 62" fill="none" xmlns="http://www.w3.org/2000/svg">
<path d="M46.7129 52.7056L44.9209 38.3584C44.6669 36.3262 43.6793 34.4568 42.1437 33.1017C40.6082 31.7466 38.6305 30.9992 36.5825 31H30.4113C28.3643 31.0006 26.3879 31.7486 24.8535 33.1036C23.3191 34.4585 22.3323 36.3272 22.0785 38.3584L20.2837 52.7056C20.1852 53.4938 20.2555 54.294 20.49 55.0529C20.7245 55.8119 21.1177 56.5123 21.6437 57.1076C22.1696 57.703 22.8162 58.1796 23.5405 58.5058C24.2647 58.8321 25.0501 59.0005 25.8445 59H41.1549C41.949 59.0001 42.7341 58.8314 43.458 58.505C44.1819 58.1785 44.8282 57.7019 45.3538 57.1066C45.8794 56.5113 46.2725 55.811 46.5068 55.0523C46.7411 54.2935 46.8113 53.4936 46.7129 52.7056V52.7056Z" stroke="#A77EFF" stroke-width="5.59999" stroke-linecap="round" stroke-linejoin="round"/>
<path d="M33.5 19.8C38.1391 19.8 41.9 16.0392 41.9 11.4C41.9 6.7608 38.1391 3 33.5 3C28.8608 3 25.1 6.7608 25.1 11.4C25.1 16.0392 28.8608 19.8 33.5 19.8Z" stroke="#A77EFF" stroke-width="5.59999"/>
<path d="M11.0999 28.1999C14.1927 28.1999 16.6999 25.6927 16.6999 22.5999C16.6999 19.5071 14.1927 16.9999 11.0999 16.9999C8.00708 16.9999 5.49988 19.5071 5.49988 22.5999C5.49988 25.6927 8.00708 28.1999 11.0999 28.1999Z" stroke="#A77EFF" stroke-width="5.59999"/>
<path d="M55.8999 28.1999C58.9927 28.1999 61.4999 25.6927 61.4999 22.5999C61.4999 19.5071 58.9927 16.9999 55.8999 16.9999C52.8071 16.9999 50.2999 19.5071 50.2999 22.5999C50.2999 25.6927 52.8071 28.1999 55.8999 28.1999Z" stroke="#A77EFF" stroke-width="5.59999"/>
<path d="M11.0998 36.5999H10.243C8.91741 36.5998 7.63471 37.0699 6.62314 37.9266C5.61156 38.7834 4.93671 39.9712 4.71865 41.2787L3.78625 46.8787C3.65244 47.6811 3.69503 48.5029 3.91104 49.2871C4.12706 50.0713 4.51131 50.799 5.03708 51.4197C5.56286 52.0403 6.21752 52.539 6.95555 52.8809C7.69357 53.2229 8.49724 53.4 9.31064 53.3999H19.4998M55.8998 36.5999H56.7566C58.0822 36.5998 59.3649 37.0699 60.3765 37.9266C61.388 38.7834 62.0629 39.9712 62.281 41.2787L63.2134 46.8787C63.3472 47.6811 63.3046 48.5029 63.0886 49.2871C62.8726 50.0713 62.4883 50.799 61.9625 51.4197C61.4368 52.0403 60.7821 52.539 60.0441 52.8809C59.306 53.2229 58.5024 53.4 57.689 53.3999H47.4998" stroke="#A77EFF" stroke-width="5.59999" stroke-linecap="round" stroke-linejoin="round"/>
</svg>
