<svg width="76" height="48" viewBox="0 0 76 48" fill="none" xmlns="http://www.w3.org/2000/svg">
<path d="M6.75 29.1667C7.61806 29.1667 8.22569 28.8194 8.57292 28.125C8.92014 27.4306 8.92014 26.7361 8.57292 26.0417C8.22569 25.3472 7.61806 25 6.75 25C5.88194 25 5.27431 25.3472 4.92708 26.0417C4.57986 26.7361 4.57986 27.4306 4.92708 28.125C5.27431 28.8194 5.88194 29.1667 6.75 29.1667ZM54.6992 27.2786C54.4822 26.9965 54.0644 26.454 53.446 25.651C52.8275 24.8481 52.3772 24.2622 52.0951 23.8932C51.8129 23.5243 51.4006 22.9926 50.8581 22.2982C50.3155 21.6037 49.8544 21.0286 49.4746 20.5729C49.0948 20.1172 48.6554 19.6072 48.1562 19.043C47.6571 18.4787 47.1688 17.947 46.6914 17.4479L42.6224 22.0052C40.8212 24.0451 38.5588 25.0434 35.8353 25C33.1118 24.9566 30.8819 23.8932 29.1458 21.8099C27.9089 20.3125 27.2958 18.5981 27.3066 16.6667C27.3175 14.7352 27.9523 13.0317 29.2109 11.556L34.9727 4.85026C34.4952 4.61155 33.9418 4.43251 33.3125 4.31315C32.6832 4.19379 32.1678 4.12869 31.7663 4.11784C31.3648 4.10699 30.7517 4.11241 29.9271 4.13411C29.1024 4.15582 28.5707 4.16667 28.332 4.16667C26.3355 4.16667 24.6211 4.88281 23.1888 6.3151L18.0456 11.4583H13V29.1667C13.1085 29.1667 13.3364 29.1612 13.6836 29.1504C14.0308 29.1395 14.2695 29.1395 14.3997 29.1504C14.5299 29.1612 14.7415 29.1829 15.0345 29.2155C15.3275 29.248 15.5499 29.2969 15.7018 29.362C15.8537 29.4271 16.0436 29.5193 16.2715 29.6387C16.4993 29.758 16.7001 29.9045 16.8737 30.0781L26.5417 39.5833C29.0373 41.9922 31.5004 43.1966 33.931 43.1966C35.6237 43.1966 36.98 42.6866 38 41.6667C39.237 42.1007 40.4577 42.0139 41.6621 41.4062C42.8665 40.7986 43.6532 39.8763 44.0221 38.6393C45.628 38.7695 47.0061 38.2921 48.1562 37.207C48.5903 36.8164 48.9809 36.3227 49.3281 35.7259C49.6753 35.1291 49.8273 34.5812 49.7839 34.082C50.0009 34.299 50.4674 34.4076 51.1836 34.4076C52.1168 34.4076 52.9523 34.1797 53.6901 33.724C54.4279 33.2682 54.9651 32.6931 55.3014 31.9987C55.6378 31.3043 55.768 30.5284 55.6921 29.6712C55.6161 28.814 55.2852 28.0165 54.6992 27.2786ZM59.875 29.1667H63V12.5H59.9727L54.862 6.64062C53.4297 4.99132 51.5959 4.16667 49.3607 4.16667H43.9245C41.9931 4.16667 40.4089 4.89366 39.1719 6.34766L32.3685 14.2578C31.7608 14.974 31.457 15.7878 31.457 16.6992C31.457 17.6107 31.75 18.4245 32.3359 19.1406C33.2691 20.2474 34.4627 20.8116 35.9167 20.8333C37.3707 20.855 38.5751 20.3233 39.5299 19.2383L45.8125 12.1419C46.355 11.6428 46.9355 11.4095 47.554 11.4421C48.1725 11.4746 48.6825 11.7676 49.084 12.321C49.4855 12.8743 49.5777 13.4874 49.3607 14.1602C49.7079 14.5725 50.3155 15.2561 51.1836 16.2109C52.0516 17.1658 52.7027 17.9036 53.1367 18.4245C53.7661 19.2057 54.6612 20.3505 55.8223 21.8587C56.9833 23.367 57.6832 24.2839 57.9219 24.6094C59.0503 26.0417 59.7014 27.5608 59.875 29.1667ZM69.25 29.1667C70.118 29.1667 70.7257 28.8194 71.0729 28.125C71.4201 27.4306 71.4201 26.7361 71.0729 26.0417C70.7257 25.3472 70.118 25 69.25 25C68.3819 25 67.7743 25.3472 67.4271 26.0417C67.0799 26.7361 67.0799 27.4306 67.4271 28.125C67.7743 28.8194 68.3819 29.1667 69.25 29.1667ZM75.5 10.4167V31.25C75.5 31.8142 75.2938 32.3025 74.8815 32.7148C74.4692 33.1272 73.9809 33.3333 73.4167 33.3333H59.2891C58.7031 34.7439 57.8134 35.8995 56.6198 36.8001C55.4262 37.7007 54.0699 38.2595 52.5508 38.4766C51.8346 39.5182 50.9612 40.4026 49.9303 41.1296C48.8995 41.8566 47.7873 42.3503 46.5938 42.6107C45.6823 43.7608 44.5484 44.6452 43.1921 45.2637C41.8357 45.8822 40.4414 46.148 39.0091 46.0612C37.707 46.799 36.3398 47.2276 34.9076 47.347C33.4753 47.4664 32.0918 47.3145 30.7572 46.8913C29.4225 46.4681 28.153 45.8876 26.9486 45.1497C25.7441 44.4119 24.6211 43.533 23.5794 42.513L14.237 33.3333H2.58333C2.0191 33.3333 1.53082 33.1272 1.11849 32.7148C0.706163 32.3025 0.5 31.8142 0.5 31.25V9.375C0.5 8.81076 0.706163 8.32248 1.11849 7.91016C1.53082 7.49783 2.0191 7.29167 2.58333 7.29167H16.2878C16.5916 6.98785 17.1016 6.46701 17.8177 5.72917C18.5339 4.99132 19.0493 4.47049 19.3639 4.16667C19.6786 3.86285 20.156 3.42882 20.7962 2.86458C21.4364 2.30035 21.9844 1.89345 22.4401 1.64388C22.8958 1.39431 23.4492 1.11762 24.1003 0.813802C24.7513 0.509983 25.424 0.298394 26.1185 0.179036C26.8129 0.0596788 27.5508 0 28.332 0H32.1406C34.2891 0 36.253 0.607639 38.0326 1.82292C39.8121 0.607639 41.776 0 43.9245 0H49.3607C50.1202 0 50.8472 0.0651042 51.5417 0.195312C52.2361 0.325521 52.8492 0.482856 53.3809 0.667318C53.9125 0.851779 54.4714 1.13932 55.0573 1.52995C55.6432 1.92057 56.1261 2.25694 56.5059 2.53906C56.8856 2.82118 57.3522 3.24978 57.9056 3.82487C58.459 4.39996 58.8822 4.85569 59.1751 5.19206C59.4681 5.52843 59.913 6.04926 60.5098 6.75456C61.1066 7.45985 61.5569 7.98611 61.8607 8.33333H73.4167C73.9809 8.33333 74.4692 8.5395 74.8815 8.95182C75.2938 9.36415 75.5 9.85243 75.5 10.4167Z" fill="#7EC1FF"/>
</svg>
